<?xml version="1.0" encoding="UTF-8"?>
<svg version="1.1" xmlns="http://www.w3.org/2000/svg" width="512" height="512">
<path d="M0 0 C0.74112856 -0.00297112 1.48225712 -0.00594224 2.24584413 -0.0090034 C4.72447482 -0.01766161 7.20305705 -0.01919621 9.68170166 -0.02069092 C11.4609182 -0.02532113 13.24013375 -0.03034606 15.01934814 -0.03573608 C19.85008044 -0.04884247 24.68079884 -0.0553016 29.51154613 -0.05974674 C32.53134281 -0.06268029 35.55113571 -0.06678563 38.57093048 -0.07125092 C48.02426821 -0.08492117 57.47759728 -0.09459015 66.9309442 -0.09845281 C77.8340164 -0.10293263 88.73696318 -0.12047902 99.63999724 -0.1494534 C108.0741418 -0.17108686 116.50825111 -0.18115798 124.94242311 -0.18249393 C129.97681901 -0.18354075 135.01109693 -0.18942255 140.04546356 -0.20731354 C144.78313855 -0.22382299 149.52060723 -0.22593577 154.25830078 -0.21717453 C155.99286706 -0.2164057 157.72744457 -0.22072652 159.46198273 -0.23063278 C172.54718343 -0.30095598 181.71357324 0.71182682 192.02642822 9.60919189 C200.20722463 17.81531584 202.4013461 26.70865857 203.09283447 37.90997314 C203.13742798 38.60594604 203.18202148 39.30191895 203.22796631 40.01898193 C203.33708201 41.72602015 203.44372181 43.43321632 203.54986572 45.14044189 C204.29187225 45.14408752 205.03387878 45.14773315 205.79837036 45.15148926 C212.82984262 45.18953391 219.86085385 45.24657103 226.89198112 45.32434464 C230.5058243 45.36366472 234.11942946 45.39592801 237.73345947 45.41143799 C241.2286195 45.42670794 244.72312449 45.46133205 248.21799088 45.50875092 C250.18405396 45.53056213 252.15030243 45.53290671 254.1164856 45.53479004 C265.14397803 45.71295074 274.47416012 48.30787582 282.54986572 56.14044189 C290.11141167 65.38233138 292.00698579 74.10758761 292.22955322 85.79278564 C292.26257538 87.01698715 292.29559753 88.24118866 292.32962036 89.50248718 C292.63649514 101.99211201 292.70154595 114.48422066 292.68023682 126.97711182 C292.67486214 130.70542451 292.68023592 134.43361709 292.68658447 138.16192627 C292.69079193 145.48885896 292.62974264 152.81400844 292.54986572 160.14044189 C292.54192993 161.36833435 292.53399414 162.59622681 292.52581787 163.86132812 C292.49492109 167.48525857 292.42953921 171.10702758 292.35455322 174.73028564 C292.34932648 175.80387833 292.34409973 176.87747101 292.3387146 177.9835968 C292.03643313 188.90077282 288.40462306 198.30562859 280.79205322 206.23419189 C273.46498582 212.46347568 264.23862802 215.43550026 254.69830322 215.27325439 C252.80338135 215.27712158 252.80338135 215.27712158 250.87017822 215.28106689 C248.23196086 215.27061851 245.59373549 215.23661821 242.95611572 215.17950439 C236.49639703 214.99683303 236.49639703 214.99683303 230.79840088 217.49591064 C229.41922327 219.63536772 228.51486552 221.78375973 227.54986572 224.14044189 C226.3907339 226.31016926 225.21471206 228.47091695 224.02642822 230.62481689 C223.38842299 231.81874974 222.75304831 233.01409163 222.12017822 234.21075439 C221.79952393 234.81693604 221.47886963 235.42311768 221.14849854 236.04766846 C220.82719971 236.65578369 220.50590088 237.26389893 220.17486572 237.89044189 C217.65672162 242.65346294 215.1155228 247.4028211 212.54986572 252.14044189 C211.6289917 253.8700415 211.6289917 253.8700415 210.68951416 255.63458252 C210.09428955 256.71417236 209.49906494 257.79376221 208.88580322 258.90606689 C208.36292725 259.86802979 207.84005127 260.82999268 207.30133057 261.82110596 C205.27527296 264.50406487 203.7341079 265.20545666 200.54986572 266.14044189 C196.29814026 262.798045 193.05457448 259.50917849 189.79986572 255.14044189 C188.92502387 253.97756249 188.0500195 252.81480533 187.17486572 251.65216064 C186.73658447 251.06483154 186.29830322 250.47750244 185.84674072 249.87237549 C183.85579122 247.21352839 181.82734254 244.58399323 179.79986572 241.95294189 C179.40452637 241.43892822 179.00918701 240.92491455 178.60186768 240.39532471 C174.74455504 235.3826999 170.86748167 230.3854261 166.98736572 225.39044189 C166.36700439 224.59098145 165.74664307 223.791521 165.10748291 222.96783447 C164.53030518 222.22557617 163.95312744 221.48331787 163.35845947 220.71856689 C162.84082031 220.05244385 162.32318115 219.3863208 161.78985596 218.70001221 C160.63798917 217.19075965 160.63798917 217.19075965 159.54986572 216.14044189 C157.60902304 216.02727389 155.66409888 215.983599 153.72003174 215.96685791 C152.47105606 215.95336807 151.22208038 215.93987823 149.93525696 215.92597961 C148.92644313 215.91838969 148.92644313 215.91838969 147.89724922 215.91064644 C145.78982414 215.89423956 143.68257769 215.87099437 141.57524109 215.8457489 C135.58127795 215.77501927 129.58723575 215.71527123 123.59307861 215.66363525 C119.92838334 215.63158364 116.26388333 215.59022793 112.59934807 215.54343987 C111.20931507 215.52755415 109.81923701 215.51517167 108.42914009 215.50653267 C94.67455913 215.41992773 84.56236299 213.67083795 72.79986572 206.45294189 C67.44919649 200.95364296 64.52205388 194.5946276 62.36627197 187.29278564 C62.02152832 186.13641602 61.67678467 184.98004639 61.32159424 183.78863525 C61.06692383 182.91473145 60.81225342 182.04082764 60.54986572 181.14044189 C60.05540451 181.63712372 59.5609433 182.13380554 59.05149841 182.64553833 C54.38992281 187.32715573 49.72594085 192.00636077 45.05924511 196.68287468 C42.66017212 199.08716497 40.26203774 201.49237609 37.86602783 203.89971924 C35.11106962 206.6676267 32.3520649 209.43148047 29.59283447 212.19512939 C28.73336716 213.059758 27.87389984 213.9243866 26.98838806 214.81521606 C26.18778458 215.61589508 25.38718109 216.4165741 24.56231689 217.24151611 C23.85838303 217.94767059 23.15444916 218.65382507 22.42918396 219.38137817 C20.01365491 221.64234145 18.33691211 223.06365688 14.98736572 223.39044189 C12.54986572 223.14044189 12.54986572 223.14044189 10.54986572 221.14044189 C9.59293913 218.26663288 9.40382998 215.57062411 9.34454346 212.55548096 C9.31462563 211.20453339 9.31462563 211.20453339 9.28410339 209.82629395 C9.2673909 208.86261902 9.25067841 207.89894409 9.23345947 206.90606689 C9.21267838 205.91290466 9.19189728 204.91974243 9.17048645 203.89648438 C9.10516823 200.72787307 9.04618833 197.55917979 8.98736572 194.39044189 C8.94416365 192.24069388 8.90054882 190.09095411 8.85650635 187.94122314 C8.74950501 182.67438241 8.64770581 177.40746035 8.54986572 172.14044189 C7.38068604 172.01636963 6.21150635 171.89229736 5.00689697 171.76446533 C3.4586858 171.59322379 1.91051056 171.42165717 0.36236572 171.24981689 C-0.40656006 171.16908936 -1.17548584 171.08836182 -1.9677124 171.00518799 C-7.73895926 170.35499387 -12.42212596 169.13141127 -17.45013428 166.14044189 C-18.58322021 165.54296143 -18.58322021 165.54296143 -19.73919678 164.93341064 C-28.67379891 159.74895088 -32.98056688 151.58286308 -35.8094368 141.91993523 C-36.85291633 137.39308051 -36.86798387 132.98515796 -36.83831787 128.35748291 C-36.84357483 127.33005981 -36.84883179 126.30263672 -36.85424805 125.24407959 C-36.86735718 121.87734375 -36.85874141 118.51108807 -36.84857178 115.14434814 C-36.85059527 112.78602509 -36.853509 110.42770264 -36.85726929 108.06938171 C-36.86168049 103.13784806 -36.85530085 98.20647795 -36.84124756 93.27496338 C-36.82416607 86.97616568 -36.8339983 80.67775184 -36.85196495 74.37896824 C-36.86284329 69.51201016 -36.8593377 64.64514197 -36.85158157 59.77818108 C-36.84959027 57.4567148 -36.85200094 55.13524017 -36.85902023 52.81378365 C-36.86670042 49.55990332 -36.85493824 46.30663086 -36.83831787 43.05279541 C-36.84439056 42.10752487 -36.85046326 41.16225433 -36.85671997 40.18833923 C-36.73270006 26.97948012 -32.49226306 17.31934926 -23.51263428 7.76544189 C-16.69446024 1.22051529 -9.22193038 -0.0116236 0 0 Z " fill="#58EC85" transform="translate(128.45013427734375,115.85955810546875)"/>
<path d="M0 0 C6.4562938 2.09219859 11.51999196 6.16768273 15 12 C17.63847039 18.88321682 18.4364067 25.21467223 18.38818359 32.53930664 C18.39606903 34.04136909 18.39606903 34.04136909 18.40411377 35.57377625 C18.4172159 38.8527327 18.40861104 42.13119567 18.3984375 45.41015625 C18.40046088 47.70600985 18.40337452 50.00186282 18.40713501 52.29771423 C18.41154498 57.09640658 18.4051694 61.89493079 18.39111328 66.69360352 C18.37401273 72.82893521 18.38387682 78.96387339 18.40183067 85.09919071 C18.41269605 89.83567748 18.40920966 94.57207169 18.4014473 99.30856133 C18.39945341 101.57027674 18.40187588 103.8320007 18.40888596 106.09370613 C18.4165468 109.25939173 18.40483151 112.42444883 18.38818359 115.59008789 C18.39425629 116.51449677 18.40032898 117.43890564 18.40658569 118.3913269 C18.3169186 127.64470373 16.15522074 134.57829569 9.765625 141.34375 C7.6518932 143.32654266 5.62112163 144.75841607 3 146 C2.33899796 146.34728149 1.67799591 146.69456299 0.9969635 147.05236816 C-3.43279772 148.4530468 -7.70670947 148.29175574 -12.32641602 148.28710938 C-13.36435303 148.29394241 -14.40229004 148.30077545 -15.47167969 148.30781555 C-17.72188213 148.32138957 -19.97211531 148.33045182 -22.22235298 148.33552551 C-25.78188454 148.34381516 -29.34115963 148.36431993 -32.90061951 148.38806152 C-41.73890794 148.44447156 -50.57725856 148.47970526 -59.41564941 148.51568604 C-66.8877443 148.54690583 -74.35971449 148.58607609 -81.83170891 148.63594055 C-85.34156319 148.65603619 -88.85132145 148.6643334 -92.36122131 148.67224121 C-94.5084773 148.68521086 -96.65573005 148.69873076 -98.80297852 148.71289062 C-99.78127121 148.71190872 -100.7595639 148.71092682 -101.76750183 148.70991516 C-102.66608917 148.71818832 -103.56467651 148.72646149 -104.49049377 148.73498535 C-105.2693673 148.73791847 -106.04824083 148.74085159 -106.85071659 148.7438736 C-109.26422314 149.03148702 -110.90294819 149.79969128 -113 151 C-113 151.66 -113 152.32 -113 153 C-113.66 153 -114.32 153 -115 153 C-115 153.66 -115 154.32 -115 155 C-115.66 155 -116.32 155 -117 155 C-117 155.66 -117 156.32 -117 157 C-118.609375 158.55078125 -118.609375 158.55078125 -120.75 160.3125 C-123.91269855 162.99633926 -126.48987086 165.68304363 -129 169 C-131.125 171.3125 -131.125 171.3125 -133 173 C-133.66 173 -134.32 173 -135 173 C-135 173.66 -135 174.32 -135 175 C-135.66 175 -136.32 175 -137 175 C-137 175.66 -137 176.32 -137 177 C-138.57421875 178.515625 -138.57421875 178.515625 -140.6875 180.25 C-143.35349133 182.50075728 -145.71010091 184.70049545 -147.875 187.4375 C-148.57625 188.283125 -149.2775 189.12875 -150 190 C-150.66 190 -151.32 190 -152 190 C-152 190.66 -152 191.32 -152 192 C-152.66 192 -153.32 192 -154 192 C-153.42381887 176.56231951 -153.42381887 176.56231951 -150 170 C-149.30859478 167.22111387 -149.30859478 167.22111387 -149 165 C-148.34 165 -147.68 165 -147 165 C-146.81207886 163.69252808 -146.81207886 163.69252808 -146.62036133 162.35864258 C-146.02834166 159.15344201 -145.18007916 156.3225778 -144.07421875 153.26171875 C-143.49704102 151.65973633 -143.49704102 151.65973633 -142.90820312 150.02539062 C-142.50537109 148.92388672 -142.10253906 147.82238281 -141.6875 146.6875 C-141.29626953 145.59759766 -140.90503906 144.50769531 -140.50195312 143.38476562 C-138.48397625 137.81943305 -136.32661834 132.38770002 -133.8684082 127.00366211 C-132.58818095 124.04981757 -131.65933393 121.02274013 -130.75 117.9375 C-130.24726563 116.24947266 -130.24726563 116.24947266 -129.734375 114.52734375 C-129.49203125 113.69332031 -129.2496875 112.85929687 -129 112 C-128.34 112 -127.68 112 -127 112 C-126.896875 111.01 -126.79375 110.02 -126.6875 109 C-126.09191294 104.71702837 -124.61404973 101.00003629 -123 97 C-122.34 97 -121.68 97 -121 97 C-120.855625 95.906875 -120.71125 94.81375 -120.5625 93.6875 C-120 90 -120 90 -119 87 C-118.34 87 -117.68 87 -117 87 C-116.81824219 86.00419922 -116.81824219 86.00419922 -116.6328125 84.98828125 C-115.77452292 80.46575541 -114.96028689 76.20061476 -113 72 C-112.34 72 -111.68 72 -111 72 C-110.95875 70.783125 -110.9175 69.56625 -110.875 68.3125 C-110.75516393 64.77733598 -109.99044654 63.99070244 -107.375 61.4453125 C-104.19412746 58.98924938 -100.76324457 57.23826883 -97.125 55.5625 C-83.82065018 49.17756426 -71.23961905 41.36865666 -58.61328125 33.75390625 C-55.30606817 31.76563342 -51.9780597 29.86045062 -48.5625 28.0625 C-39.98184732 23.4126491 -31.92736835 17.99881443 -23.875 12.5 C-22.83931885 11.79327148 -22.83931885 11.79327148 -21.78271484 11.07226562 C-18.01373254 8.47346603 -14.44147726 5.76542443 -10.9375 2.8125 C-7.18759802 -0.14196823 -4.85196407 -0.97039281 0 0 Z " fill="#11D972" transform="translate(303,128)"/>
<path d="M0 0 C7.78049064 -0.13970859 15.56068137 -0.24597607 23.3421154 -0.31087303 C26.95639579 -0.34203881 30.56981112 -0.38423316 34.18359375 -0.45263672 C37.67852255 -0.51836809 41.1726254 -0.55381666 44.66812515 -0.56926346 C46.63456758 -0.5855635 48.60068275 -0.63231576 50.56661987 -0.67977905 C58.89219478 -0.68287041 64.47428081 0.70775817 71 6 C72.03191971 6.78003891 72.03191971 6.78003891 73.08468628 7.57583618 C78.32501764 14.20839018 78.44210292 22.7938887 78.40405273 30.90649414 C78.41091599 31.94688339 78.41777924 32.98727264 78.42485046 34.05918884 C78.44302033 37.46798692 78.43929574 40.87632056 78.43359375 44.28515625 C78.43815941 46.67069141 78.44346612 49.05622525 78.44947815 51.4417572 C78.45838936 56.42875531 78.45600772 61.4155931 78.44604492 66.40258789 C78.43454285 72.78012867 78.45479652 79.15711678 78.48396206 85.534585 C78.50233995 90.45636992 78.50202863 95.37802267 78.49632454 100.2998333 C78.4961716 102.65087091 78.50219301 105.00191764 78.51461601 107.35292244 C78.5295582 110.64326474 78.51882517 113.9325891 78.50170898 117.22290039 C78.51621094 118.66561813 78.51621094 118.66561813 78.53100586 120.13748169 C78.44700574 127.88179392 76.63173631 133.97350324 71.5 139.875 C70.675 140.57625 69.85 141.2775 69 142 C68.360625 142.556875 67.72125 143.11375 67.0625 143.6875 C61.69929885 147.10044619 56.45694675 147.27669601 50.3203125 147.1953125 C49.10116653 147.19106766 49.10116653 147.19106766 47.85739136 147.18673706 C45.27977325 147.17560619 42.70251181 147.15051515 40.125 147.125 C38.36979671 147.11496101 36.61458794 147.10583677 34.859375 147.09765625 C30.57278074 147.07569015 26.2864507 147.04120978 22 147 C21.7014209 147.92619141 21.4028418 148.85238281 21.09521484 149.80664062 C19.90603915 153.2739652 18.37563581 156.27942103 16.625 159.5 C16.28847412 160.12221436 15.95194824 160.74442871 15.60522461 161.38549805 C14.40889284 163.59331493 13.20460817 165.79668813 12 168 C10.9464346 169.93349569 9.89305992 171.86709531 8.83984375 173.80078125 C6.26083765 178.53369099 3.67642276 183.26361528 1.08813477 187.99145508 C0.37047581 189.31615336 -0.32622557 190.65245114 -1 192 C-4.01416428 190.68673997 -5.70885605 189.45812243 -7.62890625 186.796875 C-8.10094482 186.15331055 -8.5729834 185.50974609 -9.05932617 184.84667969 C-9.55537354 184.15477539 -10.0514209 183.46287109 -10.5625 182.75 C-11.63138542 181.29062037 -12.70172741 179.83230657 -13.7734375 178.375 C-14.31194336 177.64023437 -14.85044922 176.90546875 -15.40527344 176.1484375 C-18.97016803 171.3457626 -22.68586549 166.63921196 -26.49456787 162.02787781 C-28 160 -28 160 -29.65826416 157.06159973 C-32.64026493 152.2054286 -34.88444207 148.63070258 -40.61091614 146.92349243 C-45.00149173 146.41458249 -49.37681047 146.57164261 -53.78515625 146.71484375 C-55.41220985 146.72242027 -57.03929941 146.72423718 -58.66636658 146.72059631 C-62.93105171 146.72439443 -67.19163614 146.79703327 -71.45526123 146.8873291 C-78.27931457 147.01864384 -85.10487046 147.03750705 -91.92996025 147.06955147 C-94.30132979 147.08945492 -96.67110514 147.13446973 -99.04200745 147.18455505 C-106.24339264 147.29926277 -112.41722966 147.324242 -119 144 C-119 143.34 -119 142.68 -119 142 C-119.598125 141.731875 -120.19625 141.46375 -120.8125 141.1875 C-123.01819033 139.99012525 -124.43583187 138.95521016 -126 137 C-126 136.01 -126 135.02 -126 134 C-126.66 134 -127.32 134 -128 134 C-129.70662209 129.22145813 -130.23941673 124.79931878 -130.56640625 119.7265625 C-130.64963135 118.46666504 -130.73285645 117.20676758 -130.81860352 115.90869141 C-130.87846436 114.94882324 -130.9383252 113.98895508 -131 113 C-129.74069672 113.0030162 -128.48139343 113.00603241 -127.18392944 113.00914001 C-115.26801219 113.03310016 -103.35262208 113.02005045 -91.4367733 112.97153378 C-85.31184464 112.94776411 -79.18745801 112.93665956 -73.0625 112.95532227 C-67.14231365 112.97288136 -61.22309699 112.95609666 -55.30302811 112.91632271 C-53.05383599 112.90708772 -50.80455887 112.90985736 -48.55540085 112.92530632 C-34.33071992 113.01345746 -22.35362 112.75652603 -11.40390015 102.58946228 C-4.04297556 94.79540628 -0.71119904 87.27135816 -0.68115234 76.51611328 C-0.67110672 75.68618362 -0.6610611 74.85625397 -0.65071106 74.00117493 C-0.61996709 71.27422744 -0.60286846 68.54737775 -0.5859375 65.8203125 C-0.56721878 63.92315841 -0.54764484 62.02601257 -0.5272522 60.12887573 C-0.47599942 55.14771402 -0.43633702 50.16652534 -0.39910889 45.1852417 C-0.35902625 40.09738531 -0.30795335 35.00964045 -0.2578125 29.921875 C-0.16113437 19.9479951 -0.07670364 9.97405212 0 0 Z " fill="#01A850" transform="translate(331,173)"/>
<path d="M0 0 C0.74112856 -0.00297112 1.48225712 -0.00594224 2.24584413 -0.0090034 C4.72447482 -0.01766161 7.20305705 -0.01919621 9.68170166 -0.02069092 C11.4609182 -0.02532113 13.24013375 -0.03034606 15.01934814 -0.03573608 C19.85008044 -0.04884247 24.68079884 -0.0553016 29.51154613 -0.05974674 C32.53134281 -0.06268029 35.55113571 -0.06678563 38.57093048 -0.07125092 C48.02426821 -0.08492117 57.47759728 -0.09459015 66.9309442 -0.09845281 C77.8340164 -0.10293263 88.73696318 -0.12047902 99.63999724 -0.1494534 C108.0741418 -0.17108686 116.50825111 -0.18115798 124.94242311 -0.18249393 C129.97681901 -0.18354075 135.01109693 -0.18942255 140.04546356 -0.20731354 C144.78313855 -0.22382299 149.52060723 -0.22593577 154.25830078 -0.21717453 C155.99286706 -0.2164057 157.72744457 -0.22072652 159.46198273 -0.23063278 C172.54718343 -0.30095598 181.71357324 0.71182682 192.02642822 9.60919189 C200.20722463 17.81531584 202.4013461 26.70865857 203.09283447 37.90997314 C203.13742798 38.60594604 203.18202148 39.30191895 203.22796631 40.01898193 C203.33708201 41.72602015 203.44372181 43.43321632 203.54986572 45.14044189 C204.29187225 45.14408752 205.03387878 45.14773315 205.79837036 45.15148926 C212.82984262 45.18953391 219.86085385 45.24657103 226.89198112 45.32434464 C230.5058243 45.36366472 234.11942946 45.39592801 237.73345947 45.41143799 C241.2286195 45.42670794 244.72312449 45.46133205 248.21799088 45.50875092 C250.18405396 45.53056213 252.15030243 45.53290671 254.1164856 45.53479004 C265.14397803 45.71295074 274.47416012 48.30787582 282.54986572 56.14044189 C290.11141167 65.38233138 292.00698579 74.10758761 292.22955322 85.79278564 C292.26257538 87.01698715 292.29559753 88.24118866 292.32962036 89.50248718 C292.63649514 101.99211201 292.70154595 114.48422066 292.68023682 126.97711182 C292.67486214 130.70542451 292.68023592 134.43361709 292.68658447 138.16192627 C292.69079193 145.48885896 292.62974264 152.81400844 292.54986572 160.14044189 C292.54192993 161.36833435 292.53399414 162.59622681 292.52581787 163.86132812 C292.49492109 167.48525857 292.42953921 171.10702758 292.35455322 174.73028564 C292.34932648 175.80387833 292.34409973 176.87747101 292.3387146 177.9835968 C292.03643313 188.90077282 288.40462306 198.30562859 280.79205322 206.23419189 C273.46498582 212.46347568 264.23862802 215.43550026 254.69830322 215.27325439 C252.80338135 215.27712158 252.80338135 215.27712158 250.87017822 215.28106689 C248.23196086 215.27061851 245.59373549 215.23661821 242.95611572 215.17950439 C236.49639703 214.99683303 236.49639703 214.99683303 230.79840088 217.49591064 C229.41922327 219.63536772 228.51486552 221.78375973 227.54986572 224.14044189 C226.3907339 226.31016926 225.21471206 228.47091695 224.02642822 230.62481689 C223.38842299 231.81874974 222.75304831 233.01409163 222.12017822 234.21075439 C221.79952393 234.81693604 221.47886963 235.42311768 221.14849854 236.04766846 C220.82719971 236.65578369 220.50590088 237.26389893 220.17486572 237.89044189 C217.65672162 242.65346294 215.1155228 247.4028211 212.54986572 252.14044189 C211.6289917 253.8700415 211.6289917 253.8700415 210.68951416 255.63458252 C210.09428955 256.71417236 209.49906494 257.79376221 208.88580322 258.90606689 C208.36292725 259.86802979 207.84005127 260.82999268 207.30133057 261.82110596 C205.27527296 264.50406487 203.7341079 265.20545666 200.54986572 266.14044189 C196.29814026 262.798045 193.05457448 259.50917849 189.79986572 255.14044189 C188.92502387 253.97756249 188.0500195 252.81480533 187.17486572 251.65216064 C186.73658447 251.06483154 186.29830322 250.47750244 185.84674072 249.87237549 C183.85579122 247.21352839 181.82734254 244.58399323 179.79986572 241.95294189 C179.40452637 241.43892822 179.00918701 240.92491455 178.60186768 240.39532471 C174.74455504 235.3826999 170.86748167 230.3854261 166.98736572 225.39044189 C166.36700439 224.59098145 165.74664307 223.791521 165.10748291 222.96783447 C164.53030518 222.22557617 163.95312744 221.48331787 163.35845947 220.71856689 C162.84082031 220.05244385 162.32318115 219.3863208 161.78985596 218.70001221 C160.63798917 217.19075965 160.63798917 217.19075965 159.54986572 216.14044189 C157.60902304 216.02727389 155.66409888 215.983599 153.72003174 215.96685791 C152.47105606 215.95336807 151.22208038 215.93987823 149.93525696 215.92597961 C148.92644313 215.91838969 148.92644313 215.91838969 147.89724922 215.91064644 C145.78982414 215.89423956 143.68257769 215.87099437 141.57524109 215.8457489 C135.58127795 215.77501927 129.58723575 215.71527123 123.59307861 215.66363525 C119.92838334 215.63158364 116.26388333 215.59022793 112.59934807 215.54343987 C111.20931507 215.52755415 109.81923701 215.51517167 108.42914009 215.50653267 C94.67455913 215.41992773 84.56236299 213.67083795 72.79986572 206.45294189 C67.44919649 200.95364296 64.52205388 194.5946276 62.36627197 187.29278564 C62.02152832 186.13641602 61.67678467 184.98004639 61.32159424 183.78863525 C61.06692383 182.91473145 60.81225342 182.04082764 60.54986572 181.14044189 C60.05540451 181.63712372 59.5609433 182.13380554 59.05149841 182.64553833 C54.38992281 187.32715573 49.72594085 192.00636077 45.05924511 196.68287468 C42.66017212 199.08716497 40.26203774 201.49237609 37.86602783 203.89971924 C35.11106962 206.6676267 32.3520649 209.43148047 29.59283447 212.19512939 C28.73336716 213.059758 27.87389984 213.9243866 26.98838806 214.81521606 C26.18778458 215.61589508 25.38718109 216.4165741 24.56231689 217.24151611 C23.85838303 217.94767059 23.15444916 218.65382507 22.42918396 219.38137817 C20.01365491 221.64234145 18.33691211 223.06365688 14.98736572 223.39044189 C12.54986572 223.14044189 12.54986572 223.14044189 10.54986572 221.14044189 C9.59293913 218.26663288 9.40382998 215.57062411 9.34454346 212.55548096 C9.31462563 211.20453339 9.31462563 211.20453339 9.28410339 209.82629395 C9.2673909 208.86261902 9.25067841 207.89894409 9.23345947 206.90606689 C9.21267838 205.91290466 9.19189728 204.91974243 9.17048645 203.89648438 C9.10516823 200.72787307 9.04618833 197.55917979 8.98736572 194.39044189 C8.94416365 192.24069388 8.90054882 190.09095411 8.85650635 187.94122314 C8.74950501 182.67438241 8.64770581 177.40746035 8.54986572 172.14044189 C7.38068604 172.01636963 6.21150635 171.89229736 5.00689697 171.76446533 C3.4586858 171.59322379 1.91051056 171.42165717 0.36236572 171.24981689 C-0.40656006 171.16908936 -1.17548584 171.08836182 -1.9677124 171.00518799 C-7.73895926 170.35499387 -12.42212596 169.13141127 -17.45013428 166.14044189 C-18.58322021 165.54296143 -18.58322021 165.54296143 -19.73919678 164.93341064 C-28.67379891 159.74895088 -32.98056688 151.58286308 -35.8094368 141.91993523 C-36.85291633 137.39308051 -36.86798387 132.98515796 -36.83831787 128.35748291 C-36.84357483 127.33005981 -36.84883179 126.30263672 -36.85424805 125.24407959 C-36.86735718 121.87734375 -36.85874141 118.51108807 -36.84857178 115.14434814 C-36.85059527 112.78602509 -36.853509 110.42770264 -36.85726929 108.06938171 C-36.86168049 103.13784806 -36.85530085 98.20647795 -36.84124756 93.27496338 C-36.82416607 86.97616568 -36.8339983 80.67775184 -36.85196495 74.37896824 C-36.86284329 69.51201016 -36.8593377 64.64514197 -36.85158157 59.77818108 C-36.84959027 57.4567148 -36.85200094 55.13524017 -36.85902023 52.81378365 C-36.86670042 49.55990332 -36.85493824 46.30663086 -36.83831787 43.05279541 C-36.84439056 42.10752487 -36.85046326 41.16225433 -36.85671997 40.18833923 C-36.73270006 26.97948012 -32.49226306 17.31934926 -23.51263428 7.76544189 C-16.69446024 1.22051529 -9.22193038 -0.0116236 0 0 Z M-18.76263428 18.45294189 C-19.715896 19.25151611 -19.715896 19.25151611 -20.68841553 20.06622314 C-25.84151353 26.13339619 -25.89620364 32.44919068 -25.88592529 40.05767822 C-25.90103905 41.67371696 -25.90103905 41.67371696 -25.91645813 43.32240295 C-25.94487938 46.87253285 -25.95081187 50.42223666 -25.95404053 53.97247314 C-25.96368572 56.44958163 -25.97377851 58.92668841 -25.98429871 61.40379333 C-26.00224558 66.5928239 -26.0078212 71.78170476 -26.00604248 76.97076416 C-26.00573774 83.60519138 -26.04669091 90.23865444 -26.09835911 96.87285328 C-26.13178937 101.98856476 -26.13779798 107.10404484 -26.1362133 112.21985435 C-26.13974321 114.6649883 -26.15295539 117.11012889 -26.1762104 119.5551548 C-26.20575649 122.98245526 -26.19692335 126.40768491 -26.17889404 129.83502197 C-26.19575256 130.83535461 -26.21261108 131.83568726 -26.22998047 132.86633301 C-26.11466163 141.53591938 -22.74490747 147.41285777 -17.07122803 153.83184814 C-15.99034912 154.75803955 -15.99034912 154.75803955 -14.88763428 155.70294189 C-14.16447021 156.34360596 -13.44130615 156.98427002 -12.69622803 157.64434814 C-8.6116248 160.36504908 -4.28664712 160.26268042 0.50689697 160.23809814 C2.01087036 160.23435181 2.01087036 160.23435181 3.54522705 160.23052979 C4.80488281 160.22142578 6.06453857 160.21232178 7.36236572 160.20294189 C11.38424072 160.18231689 15.40611572 160.16169189 19.54986572 160.14044189 C19.54986572 174.99044189 19.54986572 189.84044189 19.54986572 205.14044189 C20.53986572 204.81044189 21.52986572 204.48044189 22.54986572 204.14044189 C22.54986572 203.48044189 22.54986572 202.82044189 22.54986572 202.14044189 C23.53986572 201.81044189 24.52986572 201.48044189 25.54986572 201.14044189 C26.7413676 199.7172591 27.92845192 198.28975146 29.07720947 196.83184814 C31.20225154 194.39114996 33.66452682 192.44395165 36.19439697 190.43731689 C36.64170166 190.00934814 37.08900635 189.58137939 37.54986572 189.14044189 C37.54986572 188.48044189 37.54986572 187.82044189 37.54986572 187.14044189 C38.20986572 187.14044189 38.86986572 187.14044189 39.54986572 187.14044189 C39.54986572 186.48044189 39.54986572 185.82044189 39.54986572 185.14044189 C40.20986572 185.14044189 40.86986572 185.14044189 41.54986572 185.14044189 C43.18455472 183.48595506 43.18455472 183.48595506 44.86236572 181.39044189 C47.54620499 178.22774334 50.23290935 175.65057104 53.54986572 173.14044189 C55.82177988 171.12003441 55.82177988 171.12003441 57.54986572 169.14044189 C57.54986572 168.48044189 57.54986572 167.82044189 57.54986572 167.14044189 C58.20986572 167.14044189 58.86986572 167.14044189 59.54986572 167.14044189 C59.54986572 166.48044189 59.54986572 165.82044189 59.54986572 165.14044189 C60.20986572 165.14044189 60.86986572 165.14044189 61.54986572 165.14044189 C61.54986572 164.48044189 61.54986572 163.82044189 61.54986572 163.14044189 C64.51082376 161.44555129 66.62458975 160.89137262 70.02572632 160.89561462 C70.91708786 160.89167694 71.8084494 160.88773926 72.7268219 160.88368225 C74.1824781 160.89222481 74.1824781 160.89222481 75.6675415 160.90093994 C76.69569473 160.89892578 77.72384796 160.89691162 78.78315735 160.89483643 C81.01646785 160.89129061 83.2497884 160.89205839 85.48309708 160.89661217 C89.02320155 160.90220492 92.56297828 160.89304581 96.10305786 160.87940979 C106.16867481 160.84228791 116.23418226 160.82371857 126.29986572 160.83502197 C132.45788555 160.84088892 138.61544639 160.82253113 144.77337265 160.78913307 C147.11518953 160.78120019 149.45705672 160.7824272 151.79886246 160.79315758 C155.08501872 160.80756143 158.36974442 160.79113141 161.65582275 160.76812744 C162.61411484 160.77989517 163.57240692 160.7916629 164.55973816 160.80378723 C172.64319886 160.69345576 178.95180487 158.08767703 185.20611572 152.96466064 C185.81455322 152.25954346 186.42299072 151.55442627 187.04986572 150.82794189 C187.99345947 149.78186768 187.99345947 149.78186768 188.95611572 148.71466064 C192.91708449 142.31691942 192.84398794 135.13498912 192.82452393 127.84405518 C192.82963486 126.84457855 192.83474579 125.84510193 192.8400116 124.81533813 C192.85384557 121.53041498 192.85295544 118.24570311 192.85064697 114.96075439 C192.85453735 112.6644381 192.85887272 110.36812252 192.8636322 108.07180786 C192.87108115 103.26539779 192.87081276 98.45906119 192.86553955 93.65264893 C192.85974732 87.51065104 192.87667669 81.36895494 192.89988422 75.22700691 C192.91465658 70.48619851 192.91548847 65.7454622 192.9123745 61.00463486 C192.91288596 58.74094927 192.91809073 56.47725947 192.92818642 54.21359634 C192.94060107 51.04074052 192.93372875 47.86846506 192.92218018 44.69561768 C192.92982391 43.77166199 192.93746765 42.8477063 192.94534302 41.89575195 C192.87363689 32.92769919 191.22594072 24.50705861 184.67900658 18.04227352 C175.91327045 10.21237623 166.20437764 10.42627739 155.10992432 10.50933838 C153.35789772 10.50419289 151.60587631 10.49690688 149.85386658 10.48765564 C145.12040461 10.46921629 140.38750936 10.48203172 135.65407133 10.50174594 C130.6890423 10.51819045 125.72404753 10.50931173 120.75900269 10.50422668 C112.42520138 10.49971305 104.09162507 10.51553237 95.75787354 10.54351807 C86.13401182 10.57558765 76.5105553 10.57554366 66.88666475 10.5583033 C57.61108423 10.54242168 48.33565174 10.54918094 39.06007767 10.56624031 C35.12005275 10.57309825 31.18014694 10.57209134 27.24012375 10.56469536 C22.59912051 10.5570154 17.95857673 10.56921433 13.31765175 10.59654427 C11.61815695 10.60341046 9.9186191 10.60354505 8.21912575 10.59632874 C-2.49630635 10.55608308 -10.28298157 11.09688706 -18.76263428 18.45294189 Z M202.54986572 57.14044189 C202.54622009 58.18534286 202.54257446 59.23024384 202.53881836 60.30680847 C202.50179479 70.17872221 202.44394181 80.05032613 202.36596298 89.92200375 C202.32654017 94.99653815 202.2943262 100.07090036 202.27886963 105.14556885 C202.26366884 110.04763291 202.22916257 114.94922345 202.1815567 119.85107613 C202.16677816 121.71641474 202.15882674 123.58182098 202.15798187 125.44721794 C202.14163394 143.45141669 202.14163394 143.45141669 197.54986572 151.14044189 C197.08064697 151.93837158 196.61142822 152.73630127 196.12799072 153.55841064 C190.26940617 161.36411301 181.99681583 167.99486625 172.08361626 169.5198288 C169.40669698 169.66774541 166.75402625 169.70082969 164.07305908 169.68634033 C162.56416107 169.70184685 162.56416107 169.70184685 161.02478027 169.71766663 C157.72959051 169.74695252 154.43501879 169.74859082 151.13970947 169.74981689 C148.84327534 169.76480809 146.54685194 169.7815372 144.2504425 169.79992676 C138.22862231 169.84350662 132.20694756 169.86357877 126.18499756 169.87866211 C120.03114252 169.89826684 113.87744376 169.94023313 107.72369385 169.98028564 C95.66579945 170.05548647 83.60794021 170.10583936 71.54986572 170.14044189 C71.68971513 172.38292628 71.83536257 174.62504958 71.98345947 176.86700439 C72.06394531 178.11562256 72.14443115 179.36424072 72.22735596 180.6506958 C72.57657075 184.42940611 73.27975499 187.58413183 74.54986572 191.14044189 C75.20986572 191.14044189 75.86986572 191.14044189 76.54986572 191.14044189 C76.63236572 191.71794189 76.71486572 192.29544189 76.79986572 192.89044189 C77.76784359 195.7943755 79.23680856 197.17784794 81.54986572 199.14044189 C82.20986572 199.14044189 82.86986572 199.14044189 83.54986572 199.14044189 C83.87986572 200.13044189 84.20986572 201.12044189 84.54986572 202.14044189 C89.44994197 204.00745823 93.77242526 204.35920743 98.9788208 204.25299072 C100.44218255 204.23055302 101.9055463 204.20824549 103.36891174 204.18605042 C104.13448206 204.17077112 104.90005238 204.15549183 105.68882179 204.13974953 C109.78607478 204.06698685 113.88371891 204.0575404 117.98150635 204.03692627 C123.17673437 204.00735927 128.3697132 203.95933027 133.56378174 203.84234619 C137.78083358 203.74903229 141.99418247 203.72005646 146.21219444 203.73273277 C147.80907699 203.72596193 149.40604907 203.69615097 151.0020237 203.64188576 C163.12051261 203.24632784 163.12051261 203.24632784 167.19581604 206.42375374 C170.59948478 209.94595428 173.05520445 213.94880575 175.54986572 218.14044189 C176.5105 219.41720659 177.49211211 220.67903256 178.51080322 221.90997314 C182.34417309 226.7420041 186.15368603 231.5767439 189.80767822 236.54669189 C190.34860107 237.28041016 190.88952393 238.01412842 191.44683838 238.77008057 C192.49723775 240.20042184 193.54143393 241.63534407 194.57867432 243.07525635 C195.29144531 244.04531616 195.29144531 244.04531616 196.01861572 245.03497314 C196.43562744 245.61094238 196.85263916 246.18691162 197.2822876 246.78033447 C198.61523155 248.42801536 198.61523155 248.42801536 201.54986572 249.14044189 C201.89243408 248.48036133 202.23500244 247.82028076 202.58795166 247.14019775 C204.15711781 244.11867881 205.7284736 241.09830374 207.29986572 238.07794189 C207.83869385 237.03960205 208.37752197 236.00126221 208.93267822 234.93145752 C211.70657654 229.60354306 214.53693793 224.33646567 217.54986572 219.14044189 C218.80937167 216.87486718 220.0597286 214.60417649 221.29986572 212.32794189 C221.91345947 211.20774658 222.52705322 210.08755127 223.15924072 208.93341064 C224.69843591 206.36205252 224.69843591 206.36205252 224.54986572 204.14044189 C225.62357422 204.16138916 226.69728271 204.18233643 227.80352783 204.20391846 C231.82340933 204.27684019 235.84323351 204.3224293 239.86358643 204.36016846 C241.59675968 204.38016599 243.32986647 204.40737337 245.06280518 204.44219971 C260.36430289 204.8781217 260.36430289 204.8781217 273.42486572 197.64044189 C274.12611572 196.81544189 274.82736572 195.99044189 275.54986572 195.14044189 C276.10674072 194.50106689 276.66361572 193.86169189 277.23736572 193.20294189 C280.96751892 187.34127258 280.84160233 181.40864861 280.82452393 174.70391846 C280.82963486 173.6657196 280.83474579 172.62752075 280.8400116 171.55786133 C280.85388948 168.13220421 280.85295178 164.70674876 280.85064697 161.28106689 C280.85453561 158.89221116 280.85887063 156.50335611 280.8636322 154.11450195 C280.87109108 149.10782633 280.87080603 144.10122122 280.86553955 139.09454346 C280.85975322 132.69466192 280.87665758 126.29507057 280.89988422 119.89523697 C280.91465552 114.96055426 280.91548849 110.02594083 280.9123745 105.09123993 C280.91288625 102.73265764 280.91809656 100.37407132 280.92818642 98.01551056 C280.94059559 94.70833304 280.93373134 91.40171282 280.92218018 88.09454346 C280.92982391 87.13004272 280.93746765 86.16554199 280.94534302 85.17181396 C280.89060364 78.04052699 280.16119126 70.56467474 275.71783447 64.73809814 C275.06427979 64.23149658 274.4107251 63.72489502 273.73736572 63.20294189 C273.09154541 62.67829346 272.4457251 62.15364502 271.78033447 61.61309814 C266.91302419 58.39947997 263.14774211 56.76327669 257.269104 56.79986572 C256.04829132 56.80009232 254.82747864 56.80031891 253.56967163 56.80055237 C251.61467239 56.82377815 251.61467239 56.82377815 249.62017822 56.84747314 C248.26112335 56.85307486 246.90206238 56.85734224 245.54299927 56.8603363 C241.98202517 56.87173995 238.42142357 56.90116761 234.8605957 56.93444824 C231.22061195 56.96524646 227.58056747 56.97886237 223.94049072 56.99395752 C216.81013086 57.02604234 209.68002273 57.07718364 202.54986572 57.14044189 Z " fill="#F3FBE5" transform="translate(128.45013427734375,115.85955810546875)"/>
<path d="M0 0 C6.4562938 2.09219859 11.51999196 6.16768273 15 12 C17.65527006 18.90985496 18.42941391 25.24898423 18.35644531 32.6027832 C18.35848969 33.61058334 18.36053406 34.61838348 18.36264038 35.65672302 C18.36562439 38.95493308 18.34724651 42.25263144 18.328125 45.55078125 C18.32506378 47.85621517 18.32319042 50.16165095 18.32244873 52.46708679 C18.31786102 57.28257399 18.30349049 62.09789253 18.28125 66.91333008 C18.25288942 73.08481649 18.24202857 79.25617085 18.2375679 85.42771626 C18.23341241 90.181181 18.22359509 94.93461913 18.21169281 99.6880703 C18.20599917 101.9642535 18.20123749 104.24043923 18.19742584 106.51662636 C18.19055186 109.6925265 18.17691586 112.86832263 18.16113281 116.04418945 C18.16001495 116.98297943 18.15889709 117.92176941 18.15774536 118.88900757 C18.1303495 123.05102897 18.05850436 126.94304829 17 131 C16.67 131 16.34 131 16 131 C15.67 109.55 15.34 88.1 15 66 C10.71 67.98 6.42 69.96 2 72 C-1.91065232 73.76643042 -5.82381887 75.51927526 -9.75 77.25 C-10.71292969 77.683125 -11.67585938 78.11625 -12.66796875 78.5625 C-24.50131919 83.76467848 -31.08547093 84.38190615 -43.6875 80.75 C-44.88439453 80.42386719 -46.08128906 80.09773438 -47.31445312 79.76171875 C-51.62889703 78.57566684 -55.91323719 77.37505428 -60.14379883 75.91503906 C-63.08824332 74.97172955 -65.89332315 74.66748233 -68.95703125 74.33984375 C-71.64161871 73.89326802 -74.022449 72.84573513 -76.53125 71.8203125 C-81.00365119 70.33422983 -85.68228935 69.65387658 -90.31640625 68.84375 C-94.22356985 67.94878994 -97.35624664 66.64402681 -101 65 C-102.30191187 64.57062166 -103.61245011 64.16404385 -104.9375 63.8125 C-105.948125 63.544375 -106.95875 63.27625 -108 63 C-104.86408101 59.44492353 -101.48415971 57.57963995 -97.25 55.625 C-83.90376753 49.21640083 -71.28081526 41.39350146 -58.61328125 33.75390625 C-55.30606817 31.76563342 -51.9780597 29.86045062 -48.5625 28.0625 C-39.98184732 23.4126491 -31.92736835 17.99881443 -23.875 12.5 C-23.1845459 12.02884766 -22.4940918 11.55769531 -21.78271484 11.07226562 C-18.01373254 8.47346603 -14.44147726 5.76542443 -10.9375 2.8125 C-7.18759802 -0.14196823 -4.85196407 -0.97039281 0 0 Z " fill="#21E074" transform="translate(303,128)"/>
<path d="M0 0 C9.85875 -0.12375 19.7175 -0.2475 29.875 -0.375 C32.96858887 -0.42962402 36.06217773 -0.48424805 39.24951172 -0.54052734 C41.72622114 -0.55806576 44.20294796 -0.57335159 46.6796875 -0.5859375 C47.94562744 -0.6166333 49.21156738 -0.6473291 50.51586914 -0.67895508 C58.86279987 -0.68384681 64.45616576 0.69306719 71 6 C72.03191971 6.78003891 72.03191971 6.78003891 73.08468628 7.57583618 C78.11409792 13.94143446 78.43835618 22.13576119 78.34057617 29.94775391 C78.34123329 31.35445847 78.34123329 31.35445847 78.34190369 32.7895813 C78.3398338 35.85212919 78.31658856 38.91411168 78.29296875 41.9765625 C78.28736638 44.11461081 78.28309931 46.252663 78.28010559 48.39071655 C78.2687073 53.99012068 78.23928361 59.58928757 78.20599365 65.18859863 C78.17518421 70.9134602 78.16157709 76.63836049 78.14648438 82.36328125 C78.11440884 93.57562448 78.06327366 104.78779243 78 116 C74.84213393 112.06161999 71.79389276 108.07233902 68.8125 104 C68.33417725 103.34717041 67.85585449 102.69434082 67.36303711 102.02172852 C62.79348289 95.75952231 58.35769806 89.41142507 54 83 C53.25621094 81.92878906 52.51242187 80.85757813 51.74609375 79.75390625 C50 77 50 77 50 75 C49.34 75 48.68 75 48 75 C46.625 73.3046875 46.625 73.3046875 45 70.875 C42.01148544 66.47975788 38.97270949 62.130976 35.875 57.8125 C35.05981247 56.67323673 34.2447067 55.53391495 33.4296875 54.39453125 C33.03620117 53.84490723 32.64271484 53.2952832 32.23730469 52.72900391 C30.15614732 49.82080412 28.07824448 46.91028185 26 44 C25.38125 44.66 24.7625 45.32 24.125 46 C22 48 22 48 20 48 C19.71125 49.093125 19.4225 50.18625 19.125 51.3125 C18 55 18 55 16 58 C15.34 58 14.68 58 14 58 C13.89171875 58.72316406 13.7834375 59.44632813 13.671875 60.19140625 C11.94108307 67.42651903 6.75225468 73.45570287 2 79 C1.34 80.32 0.68 81.64 0 83 C0 55.61 0 28.22 0 0 Z " fill="#03C86B" transform="translate(331,173)"/>
<path d="M0 0 C56.76 0 113.52 0 172 0 C168.23524863 3.76475137 164.68263454 6.8626307 160.375 9.875 C159.44977539 10.52843384 159.44977539 10.52843384 158.50585938 11.19506836 C154.03164787 14.33268436 149.48129792 17.32710247 144.84375 20.21875 C142.74544148 21.53307512 140.66549391 22.86379249 138.59375 24.21875 C137.69946289 24.80160767 137.69946289 24.80160767 136.78710938 25.39624023 C135.10685591 26.4927663 133.42836713 27.59199509 131.75 28.69140625 C127.9237716 31.10987639 123.9533728 33.24258349 119.97119141 35.39135742 C114.84687854 38.16572862 109.77021747 41.02535428 104.6875 43.875 C103.5931665 44.48778809 102.49883301 45.10057617 101.37133789 45.73193359 C95.54246105 48.99963073 89.72732713 52.28865618 83.9375 55.625 C79.36183176 58.25417559 74.75732244 60.71648523 70 63 C68.68445979 61.71142987 67.37265903 60.41904109 66.0625 59.125 C65.33160156 58.40570313 64.60070312 57.68640625 63.84765625 56.9453125 C62 55 62 55 61 53 C60.2575 52.566875 59.515 52.13375 58.75 51.6875 C55.6825172 49.80518101 53.53853934 47.53853934 51 45 C50.175 44.505 49.35 44.01 48.5 43.5 C45.53057199 41.71834319 43.44046564 39.44046564 41 37 C40.01 36.67 39.02 36.34 38 36 C36.46484375 34.40625 36.46484375 34.40625 34.9375 32.5 C32.82278233 29.81893599 32.82278233 29.81893599 30 28 C30 27.34 30 26.68 30 26 C29.40775635 25.72615479 28.8155127 25.45230957 28.20532227 25.17016602 C26.07882035 24.04182286 24.50894637 22.86920306 22.71484375 21.27734375 C21.80230835 20.47550659 21.80230835 20.47550659 20.87133789 19.6574707 C20.23317139 19.08988037 19.59500488 18.52229004 18.9375 17.9375 C13.36690806 13.02973281 7.72102095 8.29058267 1.87890625 3.70703125 C1.25886719 3.14371094 0.63882813 2.58039063 0 2 C0 1.34 0 0.68 0 0 Z " fill="#36E77B" transform="translate(124,128)"/>
<path d="M0 0 C0.18598479 8.84076171 0.32781767 17.68084249 0.41449738 26.523139 C0.45611651 30.62982079 0.51249191 34.73515702 0.60351562 38.84106445 C0.69093036 42.80935792 0.73837382 46.77636385 0.75901794 50.74554634 C0.77371391 52.2538739 0.80241353 53.76213692 0.84584045 55.26991081 C1.04605989 62.51466084 1.20982723 68.53540931 -3.73632812 74.31079102 C-9.56928873 79.96239292 -14.67498111 82.13125004 -22.68652344 82.11352539 C-23.82740417 82.11344986 -24.96828491 82.11337433 -26.14373779 82.11329651 C-27.36989807 82.10813522 -28.59605835 82.10297394 -29.859375 82.09765625 C-31.74864716 82.09553383 -31.74864716 82.09553383 -33.67608643 82.09336853 C-37.01665119 82.08872073 -40.35714721 82.07974281 -43.69769287 82.06866455 C-47.1096538 82.05841598 -50.52162185 82.05386354 -53.93359375 82.04882812 C-60.6224148 82.03779963 -67.31120343 82.02106189 -74 82 C-73.46890625 81.02160156 -72.9378125 80.04320312 -72.390625 79.03515625 C-67.42945945 69.86497693 -67.42945945 69.86497693 -63.03808594 60.4140625 C-60.80912901 55.2306368 -58.41433506 50.11916003 -56.04638672 44.99804688 C-55.43275532 43.66737402 -54.8220692 42.33533896 -54.21435547 41.00195312 C-44.16424022 18.96213166 -44.16424022 18.96213166 -34.375 14.75 C-33.67205811 14.42338379 -32.96911621 14.09676758 -32.24487305 13.76025391 C-30.17534501 12.80914164 -28.09342349 11.89710792 -26 11 C-24.92621094 10.53851563 -23.85242188 10.07703125 -22.74609375 9.6015625 C-20.8255462 8.79856392 -18.89987222 8.00769239 -16.96875 7.23046875 C-12.41829558 5.34442514 -7.97519796 3.23505764 -3.51953125 1.13671875 C-1 0 -1 0 0 0 Z " fill="#01B658" transform="translate(319,193)"/>
<path d="M0 0 C-0.33 1.32 -0.66 2.64 -1 4 C-1.66 4 -2.32 4 -3 4 C-3.33 5.98 -3.66 7.96 -4 10 C-4.66 10 -5.32 10 -6 10 C-6.268125 10.53625 -6.53625 11.0725 -6.8125 11.625 C-7.4003125 12.800625 -7.4003125 12.800625 -8 14 C-8.45375 14.94875 -8.9075 15.8975 -9.375 16.875 C-11 20 -11 20 -12.9375 22.8125 C-15.00711994 26.01100355 -16.44793884 29.13956356 -17.875 32.65625 C-19.37233057 35.77568869 -20.79401888 38.30690511 -23 41 C-26.23651123 41.74171448 -26.23651123 41.74171448 -30.12011719 41.72875977 C-30.82961517 41.7344548 -31.53911316 41.74014984 -32.27011108 41.74601746 C-34.61338161 41.7571221 -36.95385281 41.72505704 -39.296875 41.69140625 C-40.93108798 41.68782743 -42.56530721 41.68647209 -44.19952393 41.6872406 C-47.62624727 41.68254859 -51.05202923 41.65771461 -54.47851562 41.61743164 C-58.8542673 41.56662156 -63.22897983 41.55498429 -67.60499191 41.55726719 C-70.98185003 41.5564479 -74.35848437 41.53993517 -77.73526764 41.51826286 C-79.34746865 41.50876369 -80.95969486 41.50281497 -82.5719223 41.50058174 C-98.06226309 41.45565481 -98.06226309 41.45565481 -105 38 C-105 37.34 -105 36.68 -105 36 C-105.598125 35.731875 -106.19625 35.46375 -106.8125 35.1875 C-109.01819033 33.99012525 -110.43583187 32.95521016 -112 31 C-112 30.01 -112 29.02 -112 28 C-112.66 28 -113.32 28 -114 28 C-115.70662209 23.22145813 -116.23941673 18.79931878 -116.56640625 13.7265625 C-116.64963135 12.46666504 -116.73285645 11.20676758 -116.81860352 9.90869141 C-116.87846436 8.94882324 -116.9383252 7.98895508 -117 7 C-115.10438324 7.00119339 -115.10438324 7.00119339 -113.17047119 7.00241089 C-101.22450836 7.00602296 -89.27897439 6.978075 -77.33314896 6.9197216 C-71.19253719 6.89072664 -65.0523055 6.87261064 -58.91162109 6.87988281 C-52.9785371 6.88650012 -47.04620256 6.86385347 -41.11327362 6.82144547 C-38.85685648 6.8103571 -36.60036295 6.80957522 -34.34394073 6.81957626 C-22.22940577 6.86636146 -10.19983578 0 0 0 Z " fill="#0FD079" transform="translate(317,279)"/>
<path d="M0 0 C-0.33 2.64 -0.66 5.28 -1 8 C-1.66 8 -2.32 8 -3 8 C-3.20496094 8.83144531 -3.40992188 9.66289062 -3.62109375 10.51953125 C-3.89050781 11.60621094 -4.15992188 12.69289062 -4.4375 13.8125 C-4.70433594 14.89144531 -4.97117187 15.97039062 -5.24609375 17.08203125 C-5.76077412 19.0740843 -6.34937175 21.04811524 -7 23 C-7.66 23 -8.32 23 -9 23 C-9.66 26.3 -10.32 29.6 -11 33 C-11.66 33 -12.32 33 -13 33 C-13.185625 34.6396875 -13.185625 34.6396875 -13.375 36.3125 C-14 40 -14 40 -16 43 C-16.38499891 44.65549531 -16.72793135 46.3222433 -17 48 C-17.66 48 -18.32 48 -19 48 C-19.14050781 48.73476562 -19.28101563 49.46953125 -19.42578125 50.2265625 C-20.98964502 57.77991813 -23.67354069 64.83131291 -26.58764648 71.95825195 C-30.45878586 81.4885886 -33.77075087 91.23609107 -37 101 C-37.66 101 -38.32 101 -39 101 C-39.185625 102.85625 -39.185625 102.85625 -39.375 104.75 C-39.76868662 107.96698206 -40.5543896 110.10877919 -42 113 C-42.46464605 115.6639707 -42.73058518 118.30585183 -43 121 C-43.33 121 -43.66 121 -44 121 C-44 109.12 -44 97.24 -44 85 C-43.01 84.67 -42.02 84.34 -41 84 C-41 83.34 -41 82.68 -41 82 C-38.525 81.505 -38.525 81.505 -36 81 C-36 80.34 -36 79.68 -36 79 C-33.525 78.505 -33.525 78.505 -31 78 C-31 77.01 -31 76.02 -31 75 C-32.04244873 74.60385498 -32.04244873 74.60385498 -33.10595703 74.19970703 C-36.26924145 72.88838767 -39.26479555 71.38130943 -42.3046875 69.8046875 C-43.1994429 69.34158424 -43.1994429 69.34158424 -44.11227417 68.86912537 C-46.0343864 67.87338513 -47.95470673 66.87424289 -49.875 65.875 C-51.1955681 65.19021346 -52.51620629 64.50556206 -53.83691406 63.82104492 C-60.49936433 60.36397007 -67.14456907 56.87756198 -73.75 53.3125 C-78.74739874 50.62339564 -83.77006656 48.20207724 -89 46 C-89 43.03 -89 40.06 -89 37 C-87.8251001 36.56300781 -87.8251001 36.56300781 -86.62646484 36.1171875 C-78.47433205 33.0397241 -70.55004676 29.62389113 -62.625 26 C-47.21743368 19.0073922 -31.6297915 12.47765299 -16 6 C-13.74056356 5.06327597 -11.48142781 4.12582617 -9.22265625 3.1875 C-8.26238525 2.78917969 -7.30211426 2.39085937 -6.31274414 1.98046875 C-1.64118526 0 -1.64118526 0 0 0 Z " fill="#33E77B" transform="translate(193,192)"/>
<path d="M0 0 C1.87597289 0.28534216 3.7507448 0.57858494 5.625 0.875 C6.66914063 1.03742188 7.71328125 1.19984375 8.7890625 1.3671875 C12 2 12 2 14.921875 2.9765625 C19.69152354 4.56241011 24.60281169 5.31229277 29.5390625 6.21875 C33 7 33 7 34.90649414 7.99243164 C37.28667763 9.13797301 39.34819367 9.50716901 41.95703125 9.90234375 C49.4600045 11.17713891 56.65562011 13.37636877 63.94726562 15.52148438 C74.38305192 18.95313219 74.38305192 18.95313219 85 18 C84.25234375 18.85335937 83.5046875 19.70671875 82.734375 20.5859375 C73.20850359 32.04779825 67.8634885 47.80166675 61.97753906 61.35424805 C59.92383735 66.0486364 57.71048043 70.56739152 55.25 75.0625 C54.63640625 76.18785156 54.0228125 77.31320312 53.390625 78.47265625 C52.93171875 79.30667969 52.4728125 80.14070313 52 81 C50.68 81 49.36 81 48 81 C46.11328125 78.734375 46.11328125 78.734375 44.3125 75.75 C43.71050781 74.77546875 43.10851562 73.8009375 42.48828125 72.796875 C41 70 41 70 40.54296875 67.890625 C40.11627104 65.81387575 40.11627104 65.81387575 38.14331055 64.19848633 C35.8936143 61.89087559 34.63401533 59.79020032 33.1640625 56.93359375 C30.11504376 51.1672207 26.79374854 45.61567208 23.375 40.0625 C22.14539678 38.05235031 20.91623883 36.04192818 19.6875 34.03125 C19.07390625 33.02835938 18.4603125 32.02546875 17.828125 30.9921875 C14.99640648 26.35736617 12.18009801 21.71347389 9.375 17.0625 C8.8907959 16.26529541 8.4065918 15.46809082 7.90771484 14.64672852 C5.02827882 9.86442709 2.43480871 5.02393629 0 0 Z " fill="#00D064" transform="translate(195,192)"/>
<path d="M0 0 C7.28709978 1.03233914 12.02118652 4.16130921 16.58928299 9.87979603 C21.09444486 16.65072317 21.43465763 24.72052048 21.35644531 32.6027832 C21.35951187 34.11448341 21.35951187 34.11448341 21.36264038 35.65672302 C21.36562439 38.95493308 21.34724651 42.25263144 21.328125 45.55078125 C21.32506378 47.85621517 21.32319042 50.16165095 21.32244873 52.46708679 C21.31786102 57.28257399 21.30349049 62.09789253 21.28125 66.91333008 C21.25288942 73.08481649 21.24202857 79.25617085 21.2375679 85.42771626 C21.23341241 90.181181 21.22359509 94.93461913 21.21169281 99.6880703 C21.20599917 101.9642535 21.20123749 104.24043923 21.19742584 106.51662636 C21.19055186 109.6925265 21.17691586 112.86832263 21.16113281 116.04418945 C21.16001495 116.98297943 21.15889709 117.92176941 21.15774536 118.88900757 C21.1303495 123.05102897 21.05850436 126.94304829 20 131 C19.67 131 19.34 131 19 131 C18.67 109.55 18.34 88.1 18 66 C13.71 67.98 9.42 69.96 5 72 C1.02663805 73.78661111 -2.94916486 75.56041447 -6.9375 77.3125 C-7.92556641 77.75400391 -8.91363281 78.19550781 -9.93164062 78.65039062 C-14.60778788 80.70111202 -18.85304409 82.53842866 -24 83 C-22.61782385 74.87550115 -20.30988659 67.15620571 -17.8125 59.3125 C-17.40780643 58.02689426 -17.00376323 56.74108363 -16.6003418 55.45507812 C-15.78726919 52.86358017 -14.97242379 50.27265173 -14.15625 47.68212891 C-9.18761979 31.85930779 -4.49723979 15.96273023 0 0 Z " fill="#18D36E" transform="translate(300,128)"/>
<path d="M0 0 C-0.33 1.32 -0.66 2.64 -1 4 C-1.66 4 -2.32 4 -3 4 C-3.33 5.98 -3.66 7.96 -4 10 C-4.66 10 -5.32 10 -6 10 C-6.268125 10.53625 -6.53625 11.0725 -6.8125 11.625 C-7.4003125 12.800625 -7.4003125 12.800625 -8 14 C-8.45375 14.94875 -8.9075 15.8975 -9.375 16.875 C-11 20 -11 20 -12.9375 22.8125 C-15.02555448 26.03949329 -16.45513261 29.19789907 -17.875 32.75390625 C-19.32379414 35.64646399 -20.70688308 37.68932095 -23 40 C-26.25238037 40.60127258 -26.25238037 40.60127258 -30.15527344 40.56762695 C-30.86786819 40.56835709 -31.58046295 40.56908722 -32.31465149 40.56983948 C-34.66367443 40.56636345 -37.01069975 40.52750664 -39.359375 40.48828125 C-40.99032508 40.47895305 -42.62128919 40.47183697 -44.2522583 40.46684265 C-48.54012899 40.44777302 -52.82714968 40.39867346 -57.11468506 40.34332275 C-61.49170432 40.29212895 -65.86886125 40.26932839 -70.24609375 40.24414062 C-78.83111877 40.19055384 -87.41545358 40.10524255 -96 40 C-96 39.67 -96 39.34 -96 39 C-82.47 38.67 -68.94 38.34 -55 38 C-60.50700515 26.76448004 -60.50700515 26.76448004 -66.9375 16.25 C-71 10.24513776 -71 10.24513776 -71 8 C-70.37074615 7.99413376 -69.74149231 7.98826752 -69.09317017 7.98222351 C-62.5059996 7.91797237 -55.91930335 7.83347286 -49.33251953 7.73754883 C-46.87880736 7.70442549 -44.4250213 7.67635494 -41.97119141 7.65356445 C-38.43099672 7.61978671 -34.89147151 7.56745833 -31.3515625 7.51171875 C-29.722827 7.50213387 -29.722827 7.50213387 -28.06118774 7.49235535 C-18.10041072 7.30283243 -8.5785829 0 0 0 Z " fill="#02C767" transform="translate(317,279)"/>
<path d="M0 0 C1.22244667 0.00333092 1.22244667 0.00333092 2.46958923 0.00672913 C3.39046829 0.00680466 4.31134735 0.00688019 5.26013184 0.00695801 C6.2611644 0.01211929 7.26219696 0.01728058 8.29356384 0.02259827 C9.31316696 0.02401321 10.33277008 0.02542816 11.38327026 0.02688599 C14.65417867 0.03250355 17.92501972 0.04505902 21.19590759 0.05775452 C23.40749515 0.06276725 25.61908377 0.06733055 27.83067322 0.07142639 C33.26494116 0.08247868 38.69916957 0.09923389 44.13340759 0.12025452 C44.13340759 0.78025452 44.13340759 1.44025452 44.13340759 2.12025452 C43.47340759 2.12025452 42.81340759 2.12025452 42.13340759 2.12025452 C42.04704041 2.8150592 41.96067322 3.50986389 41.87168884 4.22572327 C40.95633045 7.81450936 39.32771231 10.32388265 37.32090759 13.43275452 C34.27965117 18.21303084 31.59097434 23.01607742 29.13340759 28.12025452 C28.47340759 29.11025452 27.81340759 30.10025452 27.13340759 31.12025452 C26.47340759 31.12025452 25.81340759 31.12025452 25.13340759 31.12025452 C25.00965759 31.69775452 24.88590759 32.27525452 24.75840759 32.87025452 C23.2151686 38.42591489 23.2151686 38.42591489 20.45372009 40.19837952 C13.85032928 42.82194893 5.20671421 42.44176845 -1.86659241 42.12025452 C-3.76282443 40.2240225 -2.99556866 37.45655092 -3.00553894 34.93397522 C-3.00351471 34.06732239 -3.00149048 33.20066956 -2.99940491 32.30775452 C-3.00036163 31.42369934 -3.00131836 30.53964417 -3.00230408 29.62879944 C-3.00298592 27.75583322 -3.00113134 25.88286466 -2.9969635 24.00990295 C-2.9916153 21.13257064 -2.99690834 18.25539444 -3.00331116 15.37806702 C-3.00265038 13.5629625 -3.00136922 11.74785809 -2.99940491 9.93275452 C-3.00142914 9.06610168 -3.00345337 8.19944885 -3.00553894 7.30653381 C-2.9774186 0.19181908 -2.9774186 0.19181908 0 0 Z " fill="#07D472" transform="translate(334.86659240722656,173.87974548339844)"/>
<path d="M0 0 C0.33 0.66 0.66 1.32 1 2 C3.02463255 2.65213292 3.02463255 2.65213292 5 3 C5 3.66 5 4.32 5 5 C5.556875 5.0825 6.11375 5.165 6.6875 5.25 C9 6 9 6 11.375 7.9375 C13.91384228 10.18651018 13.91384228 10.18651018 17.25 11 C20 12 20 12 21.1875 13.8125 C20.88515728 17.33983173 18.55702115 18.66059767 16 21 C14.9635717 22.17391368 13.94303305 23.36201667 12.9375 24.5625 C10.72842769 27.1634129 8.55082312 29.72247935 6 32 C5.34 32 4.68 32 4 32 C4 32.66 4 33.32 4 34 C3.34 34 2.68 34 2 34 C2 34.66 2 35.32 2 36 C0.42578125 37.515625 0.42578125 37.515625 -1.6875 39.25 C-4.35349133 41.50075728 -6.71010091 43.70049545 -8.875 46.4375 C-9.926875 47.7059375 -9.926875 47.7059375 -11 49 C-11.66 49 -12.32 49 -13 49 C-13 49.66 -13 50.32 -13 51 C-13.66 51 -14.32 51 -15 51 C-14.42381887 35.56231951 -14.42381887 35.56231951 -11 29 C-10.30859478 26.22111387 -10.30859478 26.22111387 -10 24 C-9.34 24 -8.68 24 -8 24 C-7.8453125 22.78763672 -7.8453125 22.78763672 -7.6875 21.55078125 C-6.85514744 17.25186947 -5.48568192 13.29765306 -4 9.1875 C-3.72671875 8.41212891 -3.4534375 7.63675781 -3.171875 6.83789062 C-1.13686224 1.13686224 -1.13686224 1.13686224 0 0 Z " fill="#04CB67" transform="translate(164,269)"/>
<path d="M0 0 C-0.33 1.32 -0.66 2.64 -1 4 C-1.66 4 -2.32 4 -3 4 C-3.33 5.98 -3.66 7.96 -4 10 C-4.66 10 -5.32 10 -6 10 C-6.268125 10.53625 -6.53625 11.0725 -6.8125 11.625 C-7.4003125 12.800625 -7.4003125 12.800625 -8 14 C-8.45375 14.94875 -8.9075 15.8975 -9.375 16.875 C-11 20 -11 20 -12.9375 22.8125 C-14.64223908 25.44709675 -15.80333143 27.75768825 -17 30.625 C-18.49190804 34.13572011 -20.00006995 36.53577174 -23 39 C-22.25 33.25 -22.25 33.25 -20 31 C-21.32 30.67 -22.64 30.34 -24 30 C-24 29.34 -24 28.68 -24 28 C-24.928125 27.71125 -25.85625 27.4225 -26.8125 27.125 C-30 26 -30 26 -33 24 C-33 23.34 -33 22.68 -33 22 C-33.55171875 21.89558594 -34.1034375 21.79117187 -34.671875 21.68359375 C-37.49588509 20.85439616 -39.72554916 19.5720035 -42.25 18.0625 C-43.14203125 17.53785156 -44.0340625 17.01320313 -44.953125 16.47265625 C-45.62859375 15.98667969 -46.3040625 15.50070312 -47 15 C-47 14.34 -47 13.68 -47 13 C-47.969375 12.690625 -48.93875 12.38125 -49.9375 12.0625 C-53 11 -53 11 -54 10 C-56.85877909 9.76298761 -59.69883297 9.57780818 -62.5625 9.4375 C-63.36880859 9.39431641 -64.17511719 9.35113281 -65.00585938 9.30664062 C-67.00368805 9.20024738 -69.0018207 9.09959112 -71 9 C-71 8.67 -71 8.34 -71 8 C-70.37074615 7.99413376 -69.74149231 7.98826752 -69.09317017 7.98222351 C-62.5059996 7.91797237 -55.91930335 7.83347286 -49.33251953 7.73754883 C-46.87880736 7.70442549 -44.4250213 7.67635494 -41.97119141 7.65356445 C-38.43099672 7.61978671 -34.89147151 7.56745833 -31.3515625 7.51171875 C-29.722827 7.50213387 -29.722827 7.50213387 -28.06118774 7.49235535 C-18.10041072 7.30283243 -8.5785829 0 0 0 Z " fill="#02BD5E" transform="translate(317,279)"/>
<path d="M0 0 C4.91128067 -0.04949353 9.82241566 -0.08576382 14.73388672 -0.10986328 C16.40415985 -0.1199115 18.07441542 -0.13355236 19.74462891 -0.15087891 C22.14750504 -0.17517926 24.55014827 -0.18649487 26.953125 -0.1953125 C27.69806213 -0.20563507 28.44299927 -0.21595764 29.21051025 -0.22659302 C32.96927642 -0.22740368 35.81173711 -0.10367118 39 2 C37.88200014 3.33920838 36.75538103 4.67122556 35.625 6 C34.99851563 6.7425 34.37203125 7.485 33.7265625 8.25 C33.15679687 8.8275 32.58703125 9.405 32 10 C31.34 10 30.68 10 30 10 C29.7525 10.61875 29.505 11.2375 29.25 11.875 C27.79371361 14.35068687 26.62187494 14.95125002 24 16 C24 16.66 24 17.32 24 18 C23.34 18 22.68 18 22 18 C21.7525 18.556875 21.505 19.11375 21.25 19.6875 C19.42610362 23.0617083 17.58054135 26.15704461 14.125 28 C10.8867527 28 8.75131202 26.61490053 6 25 C5.34 24.34 4.68 23.68 4 23 C4 22.01 4 21.02 4 20 C3.34 20 2.68 20 2 20 C0.24172257 15.27462942 -0.11323721 11.28833431 -0.0625 6.23046875 C-0.05347656 5.06281982 -0.04445312 3.8951709 -0.03515625 2.69213867 C-0.02355469 1.80373291 -0.01195312 0.91532715 0 0 Z " fill="#04DD75" transform="translate(201,287)"/>
<path d="M0 0 C0.33 0 0.66 0 1 0 C1.61410895 9.12634141 0.61730256 15.84010206 -5.5 22.875 C-6.325 23.57625 -7.15 24.2775 -8 25 C-8.639375 25.556875 -9.27875 26.11375 -9.9375 26.6875 C-15.30070115 30.10044619 -20.54305325 30.27669601 -26.6796875 30.1953125 C-27.49245148 30.1924826 -28.30521545 30.18965271 -29.14260864 30.18673706 C-31.72022675 30.17560619 -34.29748819 30.15051515 -36.875 30.125 C-38.63020329 30.11496101 -40.38541206 30.10583677 -42.140625 30.09765625 C-46.42721926 30.07569015 -50.7135493 30.04120978 -55 30 C-55.33 30.66 -55.66 31.32 -56 32 C-55.67 30.68 -55.34 29.36 -55 28 C-48.07 28 -41.14 28 -34 28 C-33.67 27.01 -33.34 26.02 -33 25 C-30.56640625 23.02734375 -30.56640625 23.02734375 -27.5625 20.9375 C-23.59629598 18.18881869 -23.59629598 18.18881869 -20 15 C-19.01 15 -18.02 15 -17 15 C-17 14.34 -17 13.68 -17 13 C-14.95287216 11.22207539 -12.90757439 9.57069603 -10.75 7.9375 C-10.16347656 7.47794922 -9.57695312 7.01839844 -8.97265625 6.54492188 C-6.01166163 4.27926194 -3.64772929 2.7336077 0 2 C0 1.34 0 0.68 0 0 Z " fill="#049247" transform="translate(408,290)"/>
<path d="M0 0 C1.32 0 2.64 0 4 0 C3.29886117 3.75525202 1.6573048 6.73792631 -0.16015625 10.078125 C-0.78857422 11.23828125 -1.41699219 12.3984375 -2.06445312 13.59375 C-2.73037171 14.81255302 -3.39638859 16.03130235 -4.0625 17.25 C-4.73283338 18.48415158 -5.40275985 19.71852427 -6.07226562 20.953125 C-7.71085072 23.97095079 -9.35356812 26.98645014 -11 30 C-14.04110011 28.68294363 -15.69748917 27.46416041 -17.578125 24.7421875 C-18.23554688 23.80439453 -18.23554688 23.80439453 -18.90625 22.84765625 C-19.3496875 22.19667969 -19.793125 21.54570312 -20.25 20.875 C-20.93835938 19.88693359 -20.93835938 19.88693359 -21.640625 18.87890625 C-22.76821231 17.2579995 -23.88516391 15.62970314 -25 14 C-22.29065018 11.85320749 -19.66433017 10.24493306 -16.5234375 8.80859375 C-15.27046875 8.22754883 -15.27046875 8.22754883 -13.9921875 7.63476562 C-13.12851562 7.23966797 -12.26484375 6.84457031 -11.375 6.4375 C-9.65180029 5.64854984 -7.93035465 4.85575387 -6.2109375 4.05859375 C-5.45087402 3.71111084 -4.69081055 3.36362793 -3.90771484 3.00561523 C-1.83713565 2.03432887 -1.83713565 2.03432887 0 0 Z " fill="#089C4C" transform="translate(341,335)"/>
<path d="M0 0 C0.66 0.33 1.32 0.66 2 1 C1.59007812 2.15757812 1.18015625 3.31515625 0.7578125 4.5078125 C0.21351344 6.04686502 -0.33075582 7.58592808 -0.875 9.125 C-1.14441406 9.88554687 -1.41382813 10.64609375 -1.69140625 11.4296875 C-3.16791649 15.60713111 -4.61494964 19.79106057 -6 24 C-6.66 24 -7.32 24 -8 24 C-8.12375 25.2375 -8.2475 26.475 -8.375 27.75 C-8.76868662 30.96698206 -9.5543896 33.10877919 -11 36 C-11.46464605 38.6639707 -11.73058518 41.30585183 -12 44 C-12.33 44 -12.66 44 -13 44 C-13 32.12 -13 20.24 -13 8 C-12.01 7.67 -11.02 7.34 -10 7 C-10 6.34 -10 5.68 -10 5 C-8.35 4.67 -6.7 4.34 -5 4 C-5 3.34 -5 2.68 -5 2 C-2.625 0.9375 -2.625 0.9375 0 0 Z " fill="#22D872" transform="translate(162,269)"/>
<path d="M0 0 C0.88345596 -0.00175232 1.76691193 -0.00350464 2.67713928 -0.00531006 C5.59898848 -0.00971229 8.52077713 -0.00679502 11.44262695 -0.00341797 C13.4780122 -0.00409178 15.51339737 -0.00506244 17.54878235 -0.00631714 C21.81833664 -0.00779216 26.08787002 -0.00564694 30.35742188 -0.00097656 C35.81347933 0.0047025 41.2694874 0.00145206 46.72554302 -0.00454903 C50.93187324 -0.00817538 55.1381919 -0.00700622 59.34452248 -0.00442123 C61.35503966 -0.00375676 63.36555791 -0.00456354 65.37607384 -0.00690079 C68.1973584 -0.00945938 71.01856495 -0.005541 73.83984375 0 C74.66147003 -0.00202423 75.48309631 -0.00404846 76.32962036 -0.00613403 C81.70362318 0.01327658 86.91036197 0.45884033 92.2434082 1.12939453 C90.2434082 3.12939453 90.2434082 3.12939453 88.38872337 3.37549019 C87.25215262 3.37272481 87.25215262 3.37272481 86.09262085 3.36990356 C85.22321365 3.37265289 84.35380646 3.37540222 83.45805359 3.37823486 C82.50211807 3.37104431 81.54618256 3.36385376 80.5612793 3.35644531 C79.55636948 3.35673737 78.55145966 3.35702942 77.51609802 3.35733032 C74.18292713 3.35593309 70.84997771 3.34035335 67.5168457 3.32470703 C65.21041994 3.3209783 62.9039926 3.31813067 60.5975647 3.31613159 C54.51806285 3.30848412 48.43865609 3.28882607 42.35919189 3.26672363 C36.15915209 3.24628917 29.95909696 3.23713502 23.7590332 3.22705078 C11.58711635 3.20558124 -0.58472983 3.17143188 -12.7565918 3.12939453 C-12.7565918 2.46939453 -12.7565918 1.80939453 -12.7565918 1.12939453 C-8.50984253 -0.06100969 -4.38027593 -0.01066032 0 0 Z " fill="#D1F7D7" transform="translate(212.756591796875,282.87060546875)"/>
<path d="M0 0 C0.33 0 0.66 0 1 0 C2.23417156 4.79177053 2.13359366 9.46980942 2.11352539 14.38012695 C2.11367142 15.31719986 2.11381744 16.25427277 2.1139679 17.21974182 C2.11327264 20.30927872 2.10549832 23.39875492 2.09765625 26.48828125 C2.0957907 28.63347847 2.09436744 30.77867611 2.09336853 32.9238739 C2.08955417 38.56435324 2.07973309 44.20480674 2.06866455 49.84527588 C2.0584272 55.60322724 2.05386593 61.36118278 2.04882812 67.11914062 C2.03810987 78.41277175 2.02104641 89.70638373 2 101 C-0.62057844 97.77842113 -2.93772868 94.60897481 -5 91 C-4.34 91 -3.68 91 -3 91 C-2.34 91.99 -1.68 92.98 -1 94 C-0.29647344 89.03202017 0.0966832 84.9350744 -1 80 C-0.835 79.26394531 -0.67 78.52789062 -0.5 77.76953125 C0.08938059 74.50491534 -0.16389918 71.73357965 -0.5 68.4375 C-0.88824303 64.62124752 -1.06892472 61.67908974 0 58 C-0.144375 57.278125 -0.28875 56.55625 -0.4375 55.8125 C-1.78469594 49.07652032 -0.91392496 42.16076832 -0.21875 35.3828125 C0.04570943 32.90089914 0.04570943 32.90089914 0 30 C0.020625 29.195625 0.04125 28.39125 0.0625 27.5625 C0.00420374 25.17235316 -0.40707655 23.29757837 -1 21 C-1 17 -1 17 -0.5 13.875 C0.10048149 9.22126848 0.08481755 4.68381361 0 0 Z " fill="#03BF5F" transform="translate(407,188)"/>
<path d="M0 0 C2.77230783 0.39859361 5.49975369 0.85677177 8.25 1.375 C9.01441406 1.51421875 9.77882812 1.6534375 10.56640625 1.796875 C12.05132912 2.06872616 13.53512011 2.34684958 15.01757812 2.63183594 C16.64517726 2.93410435 18.28282199 3.18179028 19.921875 3.4140625 C22 4 22 4 24 7 C23.01 8.98 22.02 10.96 21 13 C20.34 13 19.68 13 19 13 C19 13.66 19 14.32 19 15 C18.34 15 17.68 15 17 15 C16.67 15.66 16.34 16.32 16 17 C15.67 15.68 15.34 14.36 15 13 C13.700625 12.9071875 13.700625 12.9071875 12.375 12.8125 C8.02581811 11.76547473 6.3213918 9.95234827 3 7 C2.01 6.67 1.02 6.34 0 6 C-0.38218767 4.34385343 -0.71395102 2.67542976 -1 1 C-0.67 0.67 -0.34 0.34 0 0 Z " fill="#04DC75" transform="translate(169,268)"/>
<path d="M0 0 C7.65019455 -0.09315209 15.30032944 -0.16399231 22.95096397 -0.20724869 C26.50446139 -0.22802189 30.05756754 -0.25614773 33.61083984 -0.30175781 C37.70674143 -0.35399721 41.80223942 -0.37302984 45.8984375 -0.390625 C47.1592514 -0.41127014 48.42006531 -0.43191528 49.71908569 -0.45318604 C57.32442784 -0.45510005 63.19357482 0.53484385 70 4 C70 4.99 70 5.98 70 7 C65.28234175 5.16535513 65.28234175 5.16535513 63.20648193 3.94961548 C60.35530585 2.72253952 58.04851335 2.71960967 54.94628906 2.68115234 C53.72532532 2.66128265 52.50436157 2.64141296 51.24639893 2.62094116 C49.27591583 2.60361435 49.27591583 2.60361435 47.265625 2.5859375 C45.903695 2.56722054 44.54177652 2.54764672 43.17987061 2.5272522 C39.60266933 2.4759805 36.02543048 2.43632848 32.44805908 2.39910889 C28.79470563 2.35903795 25.14150782 2.30795975 21.48828125 2.2578125 C14.32562771 2.16111206 7.16289872 2.07668872 0 2 C0 1.34 0 0.68 0 0 Z " fill="#C5FDD3" transform="translate(331,171)"/>
<path d="M0 0 C0.33 0.99 0.66 1.98 1 3 C0.0479279 4.00596297 -0.91187346 5.00461563 -1.875 6 C-2.40867187 6.556875 -2.94234375 7.11375 -3.4921875 7.6875 C-5 9 -5 9 -7 9 C-7.33 38.04 -7.66 67.08 -8 97 C-8.33 97 -8.66 97 -9 97 C-9.04645292 86.4639832 -9.08193488 75.927991 -9.10362434 65.39189243 C-9.11403707 60.49893627 -9.12815021 55.60605045 -9.15087891 50.71313477 C-9.17269708 45.98635611 -9.1845875 41.2596449 -9.18975449 36.53281975 C-9.19343418 34.73441444 -9.20061951 32.93601259 -9.21146011 31.13763618 C-9.2260945 28.60803533 -9.22797299 26.07870901 -9.22705078 23.54907227 C-9.23424133 22.81466919 -9.24143188 22.08026611 -9.24884033 21.3236084 C-9.22573231 15.42052502 -9.03167105 8.57865941 -5.2734375 3.80859375 C-4.64695312 3.35613281 -4.02046875 2.90367187 -3.375 2.4375 C-2.74335937 1.96183594 -2.11171875 1.48617187 -1.4609375 0.99609375 C-0.97882813 0.66738281 -0.49671875 0.33867187 0 0 Z " fill="#5DE487" transform="translate(113,132)"/>
<path d="M0 0 C0.495 0.99 0.495 0.99 1 2 C0.34 2 -0.32 2 -1 2 C-1.33 2.99 -1.66 3.98 -2 5 C-14.21 5 -26.42 5 -39 5 C-39.33 5.66 -39.66 6.32 -40 7 C-39.67 5.68 -39.34 4.36 -39 3 C-37.92516357 2.98018066 -36.85032715 2.96036133 -35.74291992 2.93994141 C-31.75635286 2.86388742 -27.7701509 2.77516991 -23.78393555 2.68261719 C-22.05842292 2.64432655 -20.33283044 2.60947379 -18.60717773 2.578125 C-16.12715105 2.53247596 -13.64767409 2.47448219 -11.16796875 2.4140625 C-10.01001045 2.39673569 -10.01001045 2.39673569 -8.82865906 2.37905884 C-5.04753326 2.27478727 -3.21981165 2.1465411 0 0 Z " fill="#1E9250" transform="translate(392,315)"/>
<path d="M0 0 C-0.33 1.32 -0.66 2.64 -1 4 C-1.66 4 -2.32 4 -3 4 C-3.33 5.98 -3.66 7.96 -4 10 C-6.74796255 10.15266459 -8.537414 10.24574881 -11 8.9375 C-13.65959281 7.69081587 -15.20355415 8.33768388 -18 9 C-18.66 8.67 -19.32 8.34 -20 8 C-18.329375 7.4121875 -18.329375 7.4121875 -16.625 6.8125 C-12.27243409 5.19583266 -8.20926023 3.14386876 -4.1015625 0.98828125 C-2 0 -2 0 0 0 Z " fill="#0CB85F" transform="translate(317,279)"/>
<path d="M0 0 C0.66 0 1.32 0 2 0 C1.41889329 3.42754467 0.31446376 5.04538661 -2.16015625 7.453125 C-2.78857422 8.071875 -3.41699219 8.690625 -4.06445312 9.328125 C-4.72380859 9.96234375 -5.38316406 10.5965625 -6.0625 11.25 C-6.72572266 11.8996875 -7.38894531 12.549375 -8.07226562 13.21875 C-9.70829317 14.8194676 -11.35090912 16.41276193 -13 18 C-13.99 17.67 -14.98 17.34 -16 17 C-15.04882866 15.8274869 -14.08882991 14.66212985 -13.125 13.5 C-12.59132812 12.8503125 -12.05765625 12.200625 -11.5078125 11.53125 C-10.76144531 10.77328125 -10.76144531 10.77328125 -10 10 C-9.34 10 -8.68 10 -8 10 C-7.34 8.68 -6.68 7.36 -6 6 C-5.34 6 -4.68 6 -4 6 C-4 5.34 -4 4.68 -4 4 C-3.34 4 -2.68 4 -2 4 C-2 3.34 -2 2.68 -2 2 C-1.34 2 -0.68 2 0 2 C0 1.34 0 0.68 0 0 Z " fill="#CDF7D3" transform="translate(190,279)"/>
<path d="M0 0 C-0.57691478 3.16854747 -1.41646887 4.78226459 -3.72265625 7.015625 C-4.52993164 7.80839844 -4.52993164 7.80839844 -5.35351562 8.6171875 C-5.91748047 9.15601563 -6.48144531 9.69484375 -7.0625 10.25 C-7.63033203 10.80429687 -8.19816406 11.35859375 -8.78320312 11.9296875 C-10.18212469 13.29334214 -11.59019114 14.64760417 -13 16 C-13.99 15.67 -14.98 15.34 -16 15 C-14.38405168 12.95880212 -12.7143618 10.95927063 -11 9 C-10.34 9 -9.68 9 -9 9 C-8.773125 8.443125 -8.54625 7.88625 -8.3125 7.3125 C-6.49644015 4.11277551 -3.9498923 0 0 0 Z " fill="#CBF5D2" transform="translate(166,305)"/>
<path d="M0 0 C0.33 0 0.66 0 1 0 C1.50194819 7.45950775 1.10371084 13.55986985 -3 20 C-3.66 20.33 -4.32 20.66 -5 21 C-4.55008469 17.85059281 -4.00192706 15.0054411 -2.9375 12 C-1.84154141 9.01677797 -1.84154141 9.01677797 -2 5.8125 C-2 3 -2 3 0 0 Z " fill="#219151" transform="translate(408,290)"/>
<path d="M0 0 C0.33 0 0.66 0 1 0 C1.75363052 3.35091771 2.11979937 6.43109812 2.09765625 9.86328125 C2.09282227 11.19262695 2.09282227 11.19262695 2.08789062 12.54882812 C2.07951172 13.46083984 2.07113281 14.37285156 2.0625 15.3125 C2.05798828 16.24384766 2.05347656 17.17519531 2.04882812 18.13476562 C2.03709234 20.42324373 2.02067363 22.71158808 2 25 C1.01 24.67 0.02 24.34 -1 24 C-0.814375 23.4225 -0.62875 22.845 -0.4375 22.25 C0.15911352 20.04253969 0.15911352 20.04253969 -0.5 18.0625 C-1 16 -1 16 -0.53515625 13.734375 C0.0365043 10.81348167 0.09831489 8.16013566 0.0625 5.1875 C0.05347656 4.21167969 0.04445313 3.23585937 0.03515625 2.23046875 C0.02355469 1.49441406 0.01195312 0.75835937 0 0 Z " fill="#0DBE63" transform="translate(407,188)"/>
<path d="M0 0 C0.99 0.33 1.98 0.66 3 1 C2.04882866 2.1725131 1.08882991 3.33787015 0.125 4.5 C-0.40867188 5.1496875 -0.94234375 5.799375 -1.4921875 6.46875 C-1.98976562 6.9740625 -2.48734375 7.479375 -3 8 C-3.66 8 -4.32 8 -5 8 C-5 8.66 -5 9.32 -5 10 C-5.66 10 -6.32 10 -7 10 C-7 8.02 -7 6.04 -7 4 C-6.34 4.66 -5.68 5.32 -5 6 C-4.34 4.68 -3.68 3.36 -3 2 C-2.01 2 -1.02 2 0 2 C0 1.34 0 0.68 0 0 Z " fill="#1FBA68" transform="translate(156,310)"/>
<path d="M0 0 C0.33 0.99 0.66 1.98 1 3 C-1.64 5.31 -4.28 7.62 -7 10 C-7.33 9.34 -7.66 8.68 -8 8 C-7.04578192 6.85073734 -6.08647955 5.70569459 -5.125 4.5625 C-4.59132813 3.92441406 -4.05765625 3.28632813 -3.5078125 2.62890625 C-2 1 -2 1 0 0 Z " fill="#78E89D" transform="translate(113,132)"/>
<path d="M0 0 C2.18977834 2.18977834 3.50894392 4.54937904 5 7.24609375 C5.92809546 8.87388619 6.96061121 10.44091682 8 12 C7.1646875 11.505 7.1646875 11.505 6.3125 11 C3.69715478 9.8690399 1.8193354 9.84337026 -1 10 C-0.835 9.0925 -0.67 8.185 -0.5 7.25 C0.10137146 3.88912497 0.10137146 3.88912497 0 0 Z " fill="#D0FAD6" transform="translate(104,258)"/>
<path d="M0 0 C1.51953125 1.08203125 1.51953125 1.08203125 3 3 C3.07421875 6.13671875 3.07421875 6.13671875 2.6875 9.6875 C2.50767578 11.45673828 2.50767578 11.45673828 2.32421875 13.26171875 C2.21722656 14.16535156 2.11023438 15.06898438 2 16 C1.67 16 1.34 16 1 16 C0.14701624 12.32612505 -0.10789471 8.9552607 -0.0625 5.1875 C-0.05347656 4.21167969 -0.04445312 3.23585938 -0.03515625 2.23046875 C-0.02355469 1.49441406 -0.01195312 0.75835937 0 0 Z " fill="#35D57F" transform="translate(201,289)"/>
<path d="M0 0 C0 0.66 0 1.32 0 2 C-3.58045212 4.74778884 -6.4923533 6.46968862 -11 7 C-11 6.34 -11 5.68 -11 5 C-10.360625 4.87625 -9.72125 4.7525 -9.0625 4.625 C-8.381875 4.41875 -7.70125 4.2125 -7 4 C-6.67 3.34 -6.34 2.68 -6 2 C-3.85118612 0.75230162 -2.50320403 0 0 0 Z " fill="#229352" transform="translate(402,312)"/>
<path d="M0 0 C3.78383679 0.92493788 5.56693694 1.39371171 7.875 4.625 C8.431875 5.800625 8.431875 5.800625 9 7 C8.01 7.33 7.02 7.66 6 8 C4.02 5.36 2.04 2.72 0 0 Z " fill="#40EA7F" transform="translate(156,156)"/>
<path d="M0 0 C0.66 0.33 1.32 0.66 2 1 C0.47793991 3.62901288 -0.84365964 5.84365964 -3 8 C-3.99 7.67 -4.98 7.34 -6 7 C-4.02 4.69 -2.04 2.38 0 0 Z " fill="#B9F2C7" transform="translate(180,289)"/>
<path d="M0 0 C-0.33 1.32 -0.66 2.64 -1 4 C-7.96428571 6.27678571 -7.96428571 6.27678571 -12 5 C-10.37750059 4.16180842 -8.75191503 3.3295884 -7.125 2.5 C-6.22007812 2.0359375 -5.31515625 1.571875 -4.3828125 1.09375 C-2 0 -2 0 0 0 Z " fill="#46C17C" transform="translate(317,279)"/>
<path d="M0 0 C0.33 0 0.66 0 1 0 C1 3.63 1 7.26 1 11 C0.34 11 -0.32 11 -1 11 C-2.25 3.375 -2.25 3.375 0 0 Z " fill="#168B49" transform="translate(408,290)"/>
<path d="M0 0 C1.32 0.33 2.64 0.66 4 1 C4.625 2.8125 4.625 2.8125 5 5 C4.01 6.485 4.01 6.485 3 8 C2.01 5.36 1.02 2.72 0 0 Z " fill="#D3F9D7" transform="translate(316,137)"/>
<path d="M0 0 C1.5625 1.625 1.5625 1.625 3 4 C2.6875 7.25 2.6875 7.25 2 10 C0.4375 8.9375 0.4375 8.9375 -1 7 C-0.6875 3.3125 -0.6875 3.3125 0 0 Z " fill="#05BE60" transform="translate(150,307)"/>
<path d="M0 0 C2.97 0.495 2.97 0.495 6 1 C6.33 2.32 6.66 3.64 7 5 C2.25 3.125 2.25 3.125 0 2 C0 1.34 0 0.68 0 0 Z " fill="#CAF7D3" transform="translate(394,173)"/>
<path d="M0 0 C3.53586014 3.17320782 5.58578031 5.16743695 6 10 C2.51668565 6.98112756 1.20842856 4.43090471 0 0 Z " fill="#3CCB7C" transform="translate(313,135)"/>
<path d="M0 0 C2.31 1.98 4.62 3.96 7 6 C4 7 4 7 1 6 C0.67 4.02 0.34 2.04 0 0 Z " fill="#C3EBC9" transform="translate(323,359)"/>
<path d="M0 0 C1.32 0 2.64 0 4 0 C3.6875 1.875 3.6875 1.875 3 4 C2.01 4.66 1.02 5.32 0 6 C0 4.02 0 2.04 0 0 Z " fill="#169D52" transform="translate(313,262)"/>
<path d="M0 0 C3.34249629 0.59687434 5.46436342 1.73603877 8 4 C8 4.66 8 5.32 8 6 C4.08597051 4.73058503 2.20927127 3.48832306 0 0 Z " fill="#40EA7F" transform="translate(136,139)"/>
<path d="M0 0 C0.33 0 0.66 0 1 0 C1.3125 2.3125 1.3125 2.3125 1 5 C-1.5 6.8125 -1.5 6.8125 -4 8 C-2.87548273 5.0280615 -1.77706209 2.66559313 0 0 Z " fill="#37A766" transform="translate(328,264)"/>
</svg>
