<?xml version="1.0" encoding="UTF-8"?>
<svg version="1.1" xmlns="http://www.w3.org/2000/svg" width="1024" height="1024">
<path d="M0 0 C337.92 0 675.84 0 1024 0 C1024 337.92 1024 675.84 1024 1024 C686.08 1024 348.16 1024 0 1024 C0 686.08 0 348.16 0 0 Z " fill="#008E42" transform="translate(0,0)"/>
<path d="M0 0 C1.46356296 -0.00346474 2.92712331 -0.00823475 4.39067829 -0.01418173 C8.37629953 -0.02660906 12.36170298 -0.02055948 16.34732461 -0.01122308 C20.65956298 -0.00439884 24.97176548 -0.01493037 29.28399658 -0.02316284 C37.71683507 -0.03646587 46.14959322 -0.03363798 54.58243479 -0.02492492 C61.43796771 -0.01813613 68.2934782 -0.01723681 75.14901352 -0.02049637 C76.12655408 -0.02095607 77.10409464 -0.02141577 78.11125764 -0.0218894 C80.09739265 -0.02284862 82.08352767 -0.02382126 84.06966268 -0.02480717 C102.6698516 -0.03335078 121.26999609 -0.02354263 139.87017773 -0.00740607 C155.81702833 0.00600038 171.76381342 0.00366432 187.71066284 -0.01016235 C206.24964535 -0.0262291 224.78858898 -0.03253133 243.32757747 -0.02332556 C245.30559277 -0.02236996 247.28360807 -0.02142684 249.26162338 -0.02049637 C250.23473574 -0.02003354 251.2078481 -0.01957072 252.21044872 -0.01909386 C259.0557966 -0.01650758 265.90111973 -0.02086709 272.74646378 -0.02793503 C281.09126234 -0.0363622 289.43597628 -0.03404412 297.78076519 -0.0180928 C302.03532545 -0.01022712 306.28974478 -0.00708939 310.54430389 -0.01704025 C314.44391703 -0.02602282 318.34325946 -0.02099616 322.24284826 -0.0051076 C323.64843074 -0.00177485 325.05403641 -0.00341969 326.4596038 -0.01073496 C334.82696079 -0.05091995 342.12959988 0.69146138 350.07150269 3.38095093 C351.14142456 3.73415405 352.21134644 4.08735718 353.31369019 4.45126343 C372.80000752 12.25735494 386.63521365 26.5190089 395.00900269 45.63095093 C399.2911563 56.00634822 399.33072984 66.47906373 399.19650269 77.50595093 C399.18644775 78.95386137 399.17732637 80.40177861 399.16915894 81.84970093 C399.14735612 85.36026129 399.11296649 88.87056121 399.07150269 92.38095093 C399.666738 92.37818555 400.2619733 92.37542017 400.87524605 92.37257099 C415.41746176 92.30606416 429.95966845 92.25655093 444.50200081 92.22551441 C451.53482684 92.21010306 458.5675508 92.18912453 465.60031128 92.15463257 C472.39546542 92.12132207 479.19051378 92.10406504 485.98574448 92.0963192 C488.56990089 92.09080364 491.15405194 92.08003356 493.73816299 92.06376076 C525.90134751 91.86939428 525.90134751 91.86939428 539.32150269 99.06845093 C540.31536987 99.58302856 540.31536987 99.58302856 541.32931519 100.10800171 C547.04863363 103.16655746 552.51935538 106.71937701 557.07150269 111.38095093 C557.07150269 112.04095093 557.07150269 112.70095093 557.07150269 113.38095093 C557.73150269 113.38095093 558.39150269 113.38095093 559.07150269 113.38095093 C560.78238077 115.42794843 562.34460934 117.45946268 563.88400269 119.63095093 C564.33396606 120.26557251 564.78392944 120.90019409 565.24752808 121.55404663 C569.11361338 127.16578958 571.97367745 132.88165086 574.07150269 139.38095093 C574.31710528 140.03942835 574.56270788 140.69790577 574.81575298 141.37633705 C578.00588662 151.05206682 577.48510647 160.91291845 577.44381714 170.97616577 C577.44624825 173.05519289 577.44997065 175.13421883 577.45487976 177.21324158 C577.46424982 182.83524759 577.45489534 188.4570783 577.44154763 194.07907057 C577.43018837 199.97865781 577.43434418 205.87823699 577.43629456 211.77783203 C577.43717626 221.68528081 577.42612421 231.592661 577.40768433 241.50009155 C577.38653036 252.93070392 577.38300514 264.36121579 577.38924628 275.79184377 C577.39495531 286.81494361 577.38927541 297.83800829 577.37807274 308.86110306 C577.37344592 313.53939086 577.37254458 318.21765704 577.37465858 322.8959465 C577.37655221 328.41342937 577.36835544 333.93081101 577.35259819 339.4482708 C577.34838143 341.46496219 577.34748706 343.48166391 577.35028839 345.49835777 C577.37543417 366.85156538 575.33898653 384.73493365 562.07150269 402.38095093 C561.57779175 403.04739624 561.08408081 403.71384155 560.57540894 404.40048218 C550.2166914 417.40023251 533.71148226 425.87700887 517.37162781 428.15609741 C512.16711714 428.66487518 506.92548491 428.62650891 501.70040894 428.69735718 C500.42294296 428.71813828 499.14547699 428.73891937 497.82929993 428.7603302 C494.4543165 428.81444547 491.07932089 428.86475214 487.70425415 428.91317749 C484.25174961 428.96366371 480.79932671 429.01920733 477.34689331 429.0743103 C470.58849505 429.18115907 463.8300352 429.28298315 457.07150269 429.38095093 C456.46272278 430.5627317 456.46272278 430.5627317 455.84164429 431.76838684 C449.32119218 444.42270417 442.7696699 457.04392722 435.9057312 469.51596069 C429.93184772 480.40120248 424.15792088 491.39281245 418.36529541 502.37519836 C417.64086668 503.74662817 416.91499623 505.11729747 416.18762207 506.48716736 C414.48249897 509.69851269 412.79411711 512.91568518 411.14816284 516.1578064 C410.5518103 517.31296753 409.95545776 518.46812866 409.34103394 519.65829468 C408.82774536 520.67012817 408.31445679 521.68196167 407.78561401 522.72445679 C405.8679021 525.69648689 404.00888127 527.42583585 401.07150269 529.38095093 C396.90446197 529.97624246 394.89362887 529.90412213 391.32150269 527.63095093 C389.3197682 525.62921644 387.58510782 523.77085377 386.07150269 521.38095093 C386.07150269 520.72095093 386.07150269 520.06095093 386.07150269 519.38095093 C385.41150269 519.38095093 384.75150269 519.38095093 384.07150269 519.38095093 C382.48833156 517.3502295 381.0208022 515.31716596 379.57150269 513.19345093 C375.59407388 507.47267338 371.468082 501.91515639 367.12033081 496.47006226 C364.07150269 492.59336192 364.07150269 492.59336192 364.07150269 490.38095093 C363.41150269 490.38095093 362.75150269 490.38095093 362.07150269 490.38095093 C360.58322144 488.57235718 360.58322144 488.57235718 358.75900269 485.94345093 C355.17063553 480.88326712 351.47451722 475.92618152 347.69650269 471.00595093 C346.85393921 469.90694458 346.85393921 469.90694458 345.99435425 468.78573608 C343.47917304 465.50787297 340.9591052 462.23381046 338.43478394 458.96298218 C332.33788815 451.05959875 326.32957616 443.0936114 320.35494995 435.09750366 C319.93141235 434.53104126 319.50787476 433.96457886 319.07150269 433.38095093 C318.65782535 432.69583467 318.24414801 432.0107184 317.81793499 431.30484104 C316.22389629 429.17130332 316.22389629 429.17130332 313.70117664 428.88152218 C312.75868407 428.88173146 311.8161915 428.88194075 310.84513855 428.88215637 C309.76188293 428.87257904 308.67862732 428.86300171 307.56254578 428.85313416 C306.37352158 428.86287766 305.18449738 428.87262115 303.95944214 428.88265991 C302.706987 428.87714111 301.45453186 428.87162231 300.16412354 428.86593628 C297.43657391 428.85659182 294.71013132 428.85448602 291.98269081 428.86453056 C287.65548043 428.88011253 283.32866335 428.86639333 279.0014801 428.84849548 C270.57643727 428.81764075 262.15151405 428.81617224 253.72642517 428.81814575 C243.0503041 428.81953666 232.37427814 428.80886985 221.69822472 428.76956803 C218.10945936 428.75718166 214.52093242 428.75133815 210.9321537 428.76107597 C184.4344748 428.83175238 160.60302773 427.35898319 140.04025269 408.43954468 C127.54561511 395.37471531 119.95410346 379.23215114 119.88400269 361.00595093 C119.94130389 359.46408228 120.00287359 357.92235691 120.07150269 356.38095093 C114.39339367 361.20345554 109.08167677 366.27526042 103.88644409 371.61117554 C102.28173328 373.24883766 100.67687856 374.88635878 99.07189941 376.52375793 C98.23321949 377.38115507 97.39453957 378.23855221 96.5304451 379.12193108 C91.58865344 384.16603852 86.62225583 389.18591151 81.66029668 394.21016681 C76.42422919 399.51295833 71.19698348 404.82387285 65.99337769 410.15853882 C61.39686588 414.87067794 56.77429916 419.55619238 52.13550949 424.22677803 C50.37631002 426.0069372 48.62606783 427.79599527 46.88515091 429.59403801 C44.45128814 432.10523056 41.98790689 434.58346779 39.51535034 437.05648804 C38.45201729 438.1761068 38.45201729 438.1761068 37.36720276 439.31834412 C33.60902533 443.00890563 31.10945944 444.83570406 25.73516846 444.98716736 C21.95146621 444.80855847 21.15910633 444.44888845 18.00900269 442.00595093 C14.61502809 437.40766276 14.93602349 433.70953726 14.95797729 428.1578064 C14.95783127 427.20166443 14.95768524 426.24552246 14.95753479 425.26040649 C14.95823329 422.08962765 14.96602279 418.91890705 14.97384644 415.74813843 C14.97571084 413.55381299 14.97713464 411.35948714 14.97813416 409.16516113 C14.98195759 403.38161068 14.9917864 397.59808523 15.00283813 391.81454468 C15.01305599 385.91611062 15.01763258 380.01767253 15.02267456 374.11923218 C15.03340881 362.53979409 15.05048316 350.96037459 15.07150269 339.38095093 C13.99246674 339.38635139 13.99246674 339.38635139 12.89163208 339.39186096 C9.60263489 339.40623531 6.31364433 339.41512246 3.02462769 339.42391968 C1.89299194 339.42968018 0.7613562 339.43544067 -0.40457153 339.44137573 C-22.09863532 339.48489045 -41.36559061 332.96353789 -57.10037231 317.46298218 C-73.69060497 300.06799943 -76.23498208 278.74554228 -76.20315552 255.80160522 C-76.20750833 253.72420062 -76.21269337 251.64679762 -76.21864319 249.56939697 C-76.2319837 243.95150069 -76.23261734 238.33367188 -76.23007989 232.71576285 C-76.22900673 228.01428403 -76.23390238 223.31281866 -76.23868531 218.61134273 C-76.24976357 207.51313213 -76.25022748 196.41495539 -76.24417114 185.31674194 C-76.23813328 173.8940822 -76.25044155 162.4715457 -76.27174121 151.04890698 C-76.28939486 141.21754191 -76.29535261 131.38621594 -76.29210347 121.55483562 C-76.29029635 115.69375143 -76.29286957 109.83275515 -76.30681801 103.97168541 C-76.31945293 98.45663856 -76.31739888 92.94178288 -76.30440712 87.42673874 C-76.30205403 85.412075 -76.30473012 83.39739757 -76.31303024 81.38274956 C-76.40442875 57.45782945 -71.53003722 38.61622956 -55.25271606 20.51766968 C-53.92849731 19.38095093 -53.92849731 19.38095093 -51.92849731 19.38095093 C-51.92849731 18.72095093 -51.92849731 18.06095093 -51.92849731 17.38095093 C-37.04228643 4.13550477 -19.43199289 -0.1014859 0 0 Z " fill="#57ED84" transform="translate(261.9284973144531,232.61904907226563)"/>
<path d="M0 0 C44.01849727 -0.06868455 88.03698886 -0.12153816 132.05552917 -0.15319599 C137.25373503 -0.15694805 142.45194078 -0.16083103 147.65014648 -0.16479492 C148.6850044 -0.16558185 149.71986231 -0.16636878 150.78607955 -0.16717956 C167.53666806 -0.18022921 184.28722565 -0.20388064 201.03779582 -0.23145839 C218.22872565 -0.25952484 235.41963931 -0.27617889 252.61059111 -0.28226548 C263.21611113 -0.28637935 273.82154374 -0.29936714 284.42703684 -0.3237494 C291.70216838 -0.33962188 298.97725481 -0.34439693 306.2524024 -0.34050413 C310.44815216 -0.33858495 314.64374928 -0.34150223 318.83947182 -0.35761642 C322.68592385 -0.37228087 326.53212147 -0.37291023 330.37858554 -0.36269668 C332.41841752 -0.36084116 334.45824678 -0.37372106 336.49803478 -0.38724393 C351.81215918 -0.3129139 364.50443065 3.8855058 375.6796875 14.5703125 C389.31285191 28.84611765 390.75133506 45.20021156 390.61523438 63.97924805 C390.61874356 66.03931128 390.62441107 68.09937177 390.63204956 70.15942383 C390.64618977 75.70687636 390.62934378 81.25382678 390.60576439 86.80123115 C390.58552281 92.6313854 390.59154169 98.46152149 390.59387207 104.29170227 C390.59381865 114.07516672 390.57415223 123.85843704 390.54199219 133.6418457 C390.50507544 144.92661561 390.49632265 156.2111318 390.5032897 167.49595422 C390.50961005 178.39040697 390.49881404 189.28477344 390.47932434 200.17920876 C390.47118453 204.79888966 390.46843445 209.41852626 390.47001648 214.03821373 C390.47089998 219.48277285 390.45655456 224.92709351 390.43078995 230.37158966 C390.42367203 232.36086432 390.42152323 234.35016442 390.42490768 236.33944893 C390.44933594 254.09229351 389.10530273 269.52698569 376.5 283.25 C368.59323661 290.76202331 357.13400059 296.9863045 346.08197403 297.00752163 C344.62782033 296.90594334 343.17453612 296.79136286 341.722229 296.66612244 C340.91483294 296.60757965 340.10743688 296.54903687 339.27557427 296.48872006 C337.51243857 296.36070421 335.74965954 296.22770066 333.98722994 296.09030545 C329.06400352 295.71113684 324.13724618 295.38471869 319.21043396 295.05599976 C318.1578709 294.98533729 317.10530784 294.91467483 316.02084893 294.84187108 C293.78800166 293.37670157 271.52039824 292.56779751 249.25 291.9375 C248.03363468 291.90242136 246.81726935 291.86734271 245.56404448 291.83120108 C165.38978506 288.34521503 165.38978506 288.34521503 96.91311646 324.36701965 C90.59586752 330.37544957 84.87565547 336.85860476 79.3125 343.5625 C78.85950594 344.10576604 78.40651188 344.64903209 77.93979073 345.20876074 C66.82500709 358.58641719 56.79125451 372.58592909 47.95204639 387.58161259 C47.63787108 388.04968043 47.32369577 388.51774828 47 389 C46.67 389 46.34 389 46 389 C45.65177168 377.55226362 45.38560365 366.10579443 45.22281742 354.65383244 C45.14466442 349.33526593 45.0387818 344.02033233 44.8684082 338.70385742 C44.70486906 333.56824356 44.6156368 328.43611103 44.57684135 323.2980938 C44.54921666 321.34284049 44.49525811 319.38776908 44.41404915 317.43400764 C43.81878041 302.5131547 43.81878041 302.5131547 47.47204781 298.30393791 C51.57654722 294.97105019 56.14283464 293.00134869 61 291 C62.50339228 290.15445084 63.99423384 289.28507706 65.45703125 288.37109375 C66.56433594 287.73300781 67.67164063 287.09492187 68.8125 286.4375 C69.95332031 285.77621094 71.09414063 285.11492187 72.26953125 284.43359375 C75 283 75 283 77 283 C77.1131958 282.14132324 77.2263916 281.28264648 77.34301758 280.39794922 C78.02557932 276.86770235 79.10772104 273.93926283 80.51171875 270.6328125 C81.02283203 269.4159375 81.53394531 268.1990625 82.06054688 266.9453125 C82.60241007 265.67168153 83.14472845 264.39824413 83.6875 263.125 C87.12280831 255.02589073 90.43764232 246.91772427 93.48646545 238.66265869 C97.03609227 229.12295305 100.91591408 219.71215225 104.74282837 210.28125 C107.08910805 204.49903384 109.42876804 198.71413849 111.76953125 192.9296875 C112.22698227 191.79980408 112.68443329 190.66992065 113.15574646 189.50579834 C116.72865281 180.6787275 120.27940401 171.84306722 123.8125 163 C124.27744873 161.84105225 124.74239746 160.68210449 125.22143555 159.48803711 C127.29302666 154.31721519 129.33734373 149.13909917 131.3203125 143.93359375 C131.6814917 142.99708984 132.0426709 142.06058594 132.41479492 141.09570312 C133.06437056 139.40733371 133.70377657 137.71498882 134.3293457 136.01757812 C137.57735721 127.61860468 142.93844031 124.18988565 150.75 120.3125 C157.28731864 116.97563836 163.69784297 113.51315337 170 109.75 C174.38206785 107.13734599 178.75551219 104.54184722 183.25 102.125 C199.49387231 93.38017852 215.36183346 83.91378811 231.27880859 74.59277344 C233.68053957 73.18698725 236.0840532 71.78432155 238.48828125 70.3828125 C242.67025255 67.94093719 246.83799443 65.47573017 251 63 C251.83225098 62.50628906 252.66450195 62.01257813 253.52197266 61.50390625 C269.71789478 51.86705279 285.40192263 41.56460952 301 31 C301.8058252 30.45714355 302.61165039 29.91428711 303.44189453 29.35498047 C311.47630012 23.94108316 319.36471614 18.3405066 327.1875 12.625 C328.39212891 11.74956543 328.39212891 11.74956543 329.62109375 10.85644531 C330.3790625 10.29795898 331.13703125 9.73947266 331.91796875 9.1640625 C332.58594482 8.67373535 333.2539209 8.1834082 333.94213867 7.67822266 C336.45215373 5.63126056 338.70977846 3.29022154 341 1 C228.47 1 115.94 1 0 1 C0 0.67 0 0.34 0 0 Z " fill="#0DDA72" transform="translate(251,254)"/>
<path d="M0 0 C15.27377343 -0.11725112 30.54752601 -0.20519139 45.82164955 -0.25906086 C52.91510771 -0.28474797 60.00828484 -0.31971428 67.1015625 -0.37719727 C73.29032357 -0.42732589 79.47888093 -0.45935985 85.66783941 -0.47044247 C88.93933657 -0.47691214 92.21012176 -0.4946131 95.48146439 -0.52865028 C128.06570901 -0.85400032 128.06570901 -0.85400032 141 11 C141.60199219 11.52335937 142.20398438 12.04671875 142.82421875 12.5859375 C152.75943859 21.76685649 157.55936197 34.25189119 158.36940002 47.61035156 C158.56556582 52.86488509 158.5417049 58.11772865 158.51757812 63.375 C158.52301043 65.38241073 158.53013925 67.38981747 158.53881836 69.3972168 C158.55692287 74.80635515 158.55003773 80.21518545 158.53730202 85.62432861 C158.5271072 91.31075818 158.53658557 96.99716304 158.54284668 102.68359375 C158.55010431 112.22921436 158.54058496 121.77471079 158.52148438 131.3203125 C158.49971936 142.32387749 158.50677206 153.32714592 158.52879 164.33070374 C158.54699782 173.81314108 158.54947608 183.29548965 158.53903532 192.77793884 C158.53282991 198.4260646 158.5318829 204.07405139 158.54518127 209.72216797 C158.55681778 215.03461446 158.54857274 220.34668215 158.52560425 225.65908813 C158.52035856 227.59753799 158.521759 229.53602025 158.53065491 231.47445679 C158.60433724 249.17489471 156.44051649 265.95465921 144.33203125 279.8203125 C143 281 143 281 141 281 C141 281.66 141 282.32 141 283 C132.0944813 290.52882015 121.51406493 294.06018296 110.0065918 294.20532227 C109.32311172 294.21522186 108.63963165 294.22512146 107.93544006 294.23532104 C105.69006746 294.26675406 103.44467374 294.29162095 101.19921875 294.31640625 C99.63694223 294.33699153 98.07467109 294.3579884 96.5124054 294.37937927 C92.41076014 294.43443751 88.30906599 294.48391808 84.20733643 294.53222656 C80.01773757 294.58256061 75.82820928 294.6381844 71.63867188 294.69335938 C63.42584101 294.80074206 55.21295091 294.90223076 47 295 C34.73108371 317.14054639 34.73108371 317.14054639 22.75 339.4375 C21.42603839 341.93181946 20.09989269 344.42497462 18.7734375 346.91796875 C18.45384064 347.51892365 18.13424377 348.11987854 17.80496216 348.73904419 C14.69013426 354.59156029 11.54297345 360.42610475 8.375 366.25 C7.91448242 367.10005615 7.45396484 367.9501123 6.97949219 368.82592773 C3.80480167 374.64483499 0.44784764 380.3389968 -3 386 C-7.60364399 381.72580699 -11.14787322 376.89828692 -14.8125 371.8125 C-19.12417376 365.89260992 -23.4700472 360.04104369 -28.09375 354.359375 C-34.79625219 346.06365507 -41.15199226 337.48635847 -47.53588867 328.94506836 C-49.87203688 325.82308739 -52.21501976 322.7077952 -54.59765625 319.62109375 C-55.17314681 318.87293412 -55.17314681 318.87293412 -55.76026344 318.10966015 C-56.96816144 316.55863712 -58.20716262 315.03197341 -59.44857788 313.50764465 C-61.28239658 311.14321966 -62.56803372 308.88794429 -63.75161743 306.14433289 C-66.00274114 301.44913962 -68.49388281 297.7605085 -73 295 C-82.58666363 292.34247048 -93.10302649 293.16616559 -102.96694136 293.4088881 C-106.96051385 293.49004617 -110.95389725 293.48199153 -114.94815063 293.48283386 C-122.51256684 293.49705165 -130.07417695 293.58398205 -137.63764155 293.70049924 C-151.16238553 293.90588308 -164.68839386 293.97423655 -178.21444476 294.0353319 C-182.95071479 294.05942687 -187.68565002 294.11085445 -192.42136741 294.18666518 C-195.38170267 294.23110986 -198.34206239 294.25931823 -201.30261803 294.28443146 C-203.30290278 294.30690326 -205.30292013 294.35024584 -207.30284119 294.39451599 C-221.93418937 294.48748158 -232.95625345 290.31249687 -243.75 280.5 C-244.4925 279.675 -245.235 278.85 -246 278 C-246.47953125 277.51273438 -246.9590625 277.02546875 -247.453125 276.5234375 C-256.94194376 266.41161549 -259.09170518 253.50005153 -260.0625 240.1875 C-260.21673768 238.13907066 -260.37414464 236.09087678 -260.53515625 234.04296875 C-260.600979 233.14602295 -260.66680176 232.24907715 -260.73461914 231.32495117 C-260.93644006 228.84634807 -260.93644006 228.84634807 -262 226 C-260.48235125 225.99641747 -260.48235125 225.99641747 -258.93404293 225.99276257 C-234.26864355 225.93386023 -209.60334102 225.85791135 -184.93804836 225.76428509 C-173.00989607 225.71939838 -161.08177316 225.67996736 -149.15356445 225.65356445 C-138.75194886 225.63052659 -128.35042682 225.59706417 -117.9488855 225.55129844 C-112.44588958 225.52744416 -106.94298586 225.50866441 -101.4399395 225.50238609 C-96.25001942 225.49629985 -91.06033499 225.4761733 -85.87050247 225.44572449 C-83.97561472 225.43700066 -82.0806961 225.43320981 -80.18578911 225.43499184 C-56.75891348 225.45005404 -36.91589238 220.84891614 -19.32421875 204.515625 C-8.80559835 193.41361893 -0.92194479 177.54022449 -0.84178162 162.10308838 C-0.83684364 161.40955033 -0.83190566 160.71601228 -0.82681805 160.00145793 C-0.81146438 157.67838319 -0.80308822 155.35533604 -0.79467773 153.03222656 C-0.78509753 151.36663063 -0.77508737 149.70103713 -0.76467896 148.03544617 C-0.73763921 143.5131155 -0.71662459 138.9907744 -0.69667697 134.46840763 C-0.6748117 129.74248924 -0.64742565 125.01660294 -0.62062073 120.29071045 C-0.57070118 111.34124629 -0.5257596 102.3917643 -0.48259836 93.44226527 C-0.4332197 83.25371156 -0.3783039 73.06519006 -0.32291877 62.8766675 C-0.20911004 41.91780834 -0.10226857 20.95891843 0 0 Z " fill="#00A14C" transform="translate(661,346)"/>
<path d="M0 0 C1.46356296 -0.00346474 2.92712331 -0.00823475 4.39067829 -0.01418173 C8.37629953 -0.02660906 12.36170298 -0.02055948 16.34732461 -0.01122308 C20.65956298 -0.00439884 24.97176548 -0.01493037 29.28399658 -0.02316284 C37.71683507 -0.03646587 46.14959322 -0.03363798 54.58243479 -0.02492492 C61.43796771 -0.01813613 68.2934782 -0.01723681 75.14901352 -0.02049637 C76.12655408 -0.02095607 77.10409464 -0.02141577 78.11125764 -0.0218894 C80.09739265 -0.02284862 82.08352767 -0.02382126 84.06966268 -0.02480717 C102.6698516 -0.03335078 121.26999609 -0.02354263 139.87017773 -0.00740607 C155.81702833 0.00600038 171.76381342 0.00366432 187.71066284 -0.01016235 C206.24964535 -0.0262291 224.78858898 -0.03253133 243.32757747 -0.02332556 C245.30559277 -0.02236996 247.28360807 -0.02142684 249.26162338 -0.02049637 C250.23473574 -0.02003354 251.2078481 -0.01957072 252.21044872 -0.01909386 C259.0557966 -0.01650758 265.90111973 -0.02086709 272.74646378 -0.02793503 C281.09126234 -0.0363622 289.43597628 -0.03404412 297.78076519 -0.0180928 C302.03532545 -0.01022712 306.28974478 -0.00708939 310.54430389 -0.01704025 C314.44391703 -0.02602282 318.34325946 -0.02099616 322.24284826 -0.0051076 C323.64843074 -0.00177485 325.05403641 -0.00341969 326.4596038 -0.01073496 C334.82696079 -0.05091995 342.12959988 0.69146138 350.07150269 3.38095093 C351.14142456 3.73415405 352.21134644 4.08735718 353.31369019 4.45126343 C372.80000752 12.25735494 386.63521365 26.5190089 395.00900269 45.63095093 C399.2911563 56.00634822 399.33072984 66.47906373 399.19650269 77.50595093 C399.18644775 78.95386137 399.17732637 80.40177861 399.16915894 81.84970093 C399.14735612 85.36026129 399.11296649 88.87056121 399.07150269 92.38095093 C399.666738 92.37818555 400.2619733 92.37542017 400.87524605 92.37257099 C415.41746176 92.30606416 429.95966845 92.25655093 444.50200081 92.22551441 C451.53482684 92.21010306 458.5675508 92.18912453 465.60031128 92.15463257 C472.39546542 92.12132207 479.19051378 92.10406504 485.98574448 92.0963192 C488.56990089 92.09080364 491.15405194 92.08003356 493.73816299 92.06376076 C525.90134751 91.86939428 525.90134751 91.86939428 539.32150269 99.06845093 C540.31536987 99.58302856 540.31536987 99.58302856 541.32931519 100.10800171 C547.04863363 103.16655746 552.51935538 106.71937701 557.07150269 111.38095093 C557.07150269 112.04095093 557.07150269 112.70095093 557.07150269 113.38095093 C557.73150269 113.38095093 558.39150269 113.38095093 559.07150269 113.38095093 C560.78238077 115.42794843 562.34460934 117.45946268 563.88400269 119.63095093 C564.33396606 120.26557251 564.78392944 120.90019409 565.24752808 121.55404663 C569.11361338 127.16578958 571.97367745 132.88165086 574.07150269 139.38095093 C574.31710528 140.03942835 574.56270788 140.69790577 574.81575298 141.37633705 C578.00588662 151.05206682 577.48510647 160.91291845 577.44381714 170.97616577 C577.44624825 173.05519289 577.44997065 175.13421883 577.45487976 177.21324158 C577.46424982 182.83524759 577.45489534 188.4570783 577.44154763 194.07907057 C577.43018837 199.97865781 577.43434418 205.87823699 577.43629456 211.77783203 C577.43717626 221.68528081 577.42612421 231.592661 577.40768433 241.50009155 C577.38653036 252.93070392 577.38300514 264.36121579 577.38924628 275.79184377 C577.39495531 286.81494361 577.38927541 297.83800829 577.37807274 308.86110306 C577.37344592 313.53939086 577.37254458 318.21765704 577.37465858 322.8959465 C577.37655221 328.41342937 577.36835544 333.93081101 577.35259819 339.4482708 C577.34838143 341.46496219 577.34748706 343.48166391 577.35028839 345.49835777 C577.37543417 366.85156538 575.33898653 384.73493365 562.07150269 402.38095093 C561.57779175 403.04739624 561.08408081 403.71384155 560.57540894 404.40048218 C550.2166914 417.40023251 533.71148226 425.87700887 517.37162781 428.15609741 C512.16711714 428.66487518 506.92548491 428.62650891 501.70040894 428.69735718 C500.42294296 428.71813828 499.14547699 428.73891937 497.82929993 428.7603302 C494.4543165 428.81444547 491.07932089 428.86475214 487.70425415 428.91317749 C484.25174961 428.96366371 480.79932671 429.01920733 477.34689331 429.0743103 C470.58849505 429.18115907 463.8300352 429.28298315 457.07150269 429.38095093 C456.46272278 430.5627317 456.46272278 430.5627317 455.84164429 431.76838684 C449.32119218 444.42270417 442.7696699 457.04392722 435.9057312 469.51596069 C429.93184772 480.40120248 424.15792088 491.39281245 418.36529541 502.37519836 C417.64086668 503.74662817 416.91499623 505.11729747 416.18762207 506.48716736 C414.48249897 509.69851269 412.79411711 512.91568518 411.14816284 516.1578064 C410.5518103 517.31296753 409.95545776 518.46812866 409.34103394 519.65829468 C408.82774536 520.67012817 408.31445679 521.68196167 407.78561401 522.72445679 C405.8679021 525.69648689 404.00888127 527.42583585 401.07150269 529.38095093 C396.90446197 529.97624246 394.89362887 529.90412213 391.32150269 527.63095093 C389.3197682 525.62921644 387.58510782 523.77085377 386.07150269 521.38095093 C386.07150269 520.72095093 386.07150269 520.06095093 386.07150269 519.38095093 C385.41150269 519.38095093 384.75150269 519.38095093 384.07150269 519.38095093 C382.48833156 517.3502295 381.0208022 515.31716596 379.57150269 513.19345093 C375.59407388 507.47267338 371.468082 501.91515639 367.12033081 496.47006226 C364.07150269 492.59336192 364.07150269 492.59336192 364.07150269 490.38095093 C363.41150269 490.38095093 362.75150269 490.38095093 362.07150269 490.38095093 C360.58322144 488.57235718 360.58322144 488.57235718 358.75900269 485.94345093 C355.17063553 480.88326712 351.47451722 475.92618152 347.69650269 471.00595093 C346.85393921 469.90694458 346.85393921 469.90694458 345.99435425 468.78573608 C343.47917304 465.50787297 340.9591052 462.23381046 338.43478394 458.96298218 C332.33788815 451.05959875 326.32957616 443.0936114 320.35494995 435.09750366 C319.93141235 434.53104126 319.50787476 433.96457886 319.07150269 433.38095093 C318.65782535 432.69583467 318.24414801 432.0107184 317.81793499 431.30484104 C316.22389629 429.17130332 316.22389629 429.17130332 313.70117664 428.88152218 C312.75868407 428.88173146 311.8161915 428.88194075 310.84513855 428.88215637 C309.76188293 428.87257904 308.67862732 428.86300171 307.56254578 428.85313416 C306.37352158 428.86287766 305.18449738 428.87262115 303.95944214 428.88265991 C302.706987 428.87714111 301.45453186 428.87162231 300.16412354 428.86593628 C297.43657391 428.85659182 294.71013132 428.85448602 291.98269081 428.86453056 C287.65548043 428.88011253 283.32866335 428.86639333 279.0014801 428.84849548 C270.57643727 428.81764075 262.15151405 428.81617224 253.72642517 428.81814575 C243.0503041 428.81953666 232.37427814 428.80886985 221.69822472 428.76956803 C218.10945936 428.75718166 214.52093242 428.75133815 210.9321537 428.76107597 C184.4344748 428.83175238 160.60302773 427.35898319 140.04025269 408.43954468 C127.54561511 395.37471531 119.95410346 379.23215114 119.88400269 361.00595093 C119.94130389 359.46408228 120.00287359 357.92235691 120.07150269 356.38095093 C114.39339367 361.20345554 109.08167677 366.27526042 103.88644409 371.61117554 C102.28173328 373.24883766 100.67687856 374.88635878 99.07189941 376.52375793 C98.23321949 377.38115507 97.39453957 378.23855221 96.5304451 379.12193108 C91.58865344 384.16603852 86.62225583 389.18591151 81.66029668 394.21016681 C76.42422919 399.51295833 71.19698348 404.82387285 65.99337769 410.15853882 C61.39686588 414.87067794 56.77429916 419.55619238 52.13550949 424.22677803 C50.37631002 426.0069372 48.62606783 427.79599527 46.88515091 429.59403801 C44.45128814 432.10523056 41.98790689 434.58346779 39.51535034 437.05648804 C38.45201729 438.1761068 38.45201729 438.1761068 37.36720276 439.31834412 C33.60902533 443.00890563 31.10945944 444.83570406 25.73516846 444.98716736 C21.95146621 444.80855847 21.15910633 444.44888845 18.00900269 442.00595093 C14.61502809 437.40766276 14.93602349 433.70953726 14.95797729 428.1578064 C14.95783127 427.20166443 14.95768524 426.24552246 14.95753479 425.26040649 C14.95823329 422.08962765 14.96602279 418.91890705 14.97384644 415.74813843 C14.97571084 413.55381299 14.97713464 411.35948714 14.97813416 409.16516113 C14.98195759 403.38161068 14.9917864 397.59808523 15.00283813 391.81454468 C15.01305599 385.91611062 15.01763258 380.01767253 15.02267456 374.11923218 C15.03340881 362.53979409 15.05048316 350.96037459 15.07150269 339.38095093 C13.99246674 339.38635139 13.99246674 339.38635139 12.89163208 339.39186096 C9.60263489 339.40623531 6.31364433 339.41512246 3.02462769 339.42391968 C1.89299194 339.42968018 0.7613562 339.43544067 -0.40457153 339.44137573 C-22.09863532 339.48489045 -41.36559061 332.96353789 -57.10037231 317.46298218 C-73.69060497 300.06799943 -76.23498208 278.74554228 -76.20315552 255.80160522 C-76.20750833 253.72420062 -76.21269337 251.64679762 -76.21864319 249.56939697 C-76.2319837 243.95150069 -76.23261734 238.33367188 -76.23007989 232.71576285 C-76.22900673 228.01428403 -76.23390238 223.31281866 -76.23868531 218.61134273 C-76.24976357 207.51313213 -76.25022748 196.41495539 -76.24417114 185.31674194 C-76.23813328 173.8940822 -76.25044155 162.4715457 -76.27174121 151.04890698 C-76.28939486 141.21754191 -76.29535261 131.38621594 -76.29210347 121.55483562 C-76.29029635 115.69375143 -76.29286957 109.83275515 -76.30681801 103.97168541 C-76.31945293 98.45663856 -76.31739888 92.94178288 -76.30440712 87.42673874 C-76.30205403 85.412075 -76.30473012 83.39739757 -76.31303024 81.38274956 C-76.40442875 57.45782945 -71.53003722 38.61622956 -55.25271606 20.51766968 C-53.92849731 19.38095093 -53.92849731 19.38095093 -51.92849731 19.38095093 C-51.92849731 18.72095093 -51.92849731 18.06095093 -51.92849731 17.38095093 C-37.04228643 4.13550477 -19.43199289 -0.1014859 0 0 Z M-36.92849731 32.38095093 C-37.74060669 32.97134155 -38.55271606 33.56173218 -39.38943481 34.17001343 C-42.3017086 36.70593183 -44.41262836 39.51536788 -46.55349731 42.69345093 C-46.93505981 43.23679077 -47.31662231 43.78013062 -47.70974731 44.3399353 C-56.97487623 57.87021839 -56.22411329 73.37191363 -56.18728638 89.13339233 C-56.19000146 91.09773386 -56.19356528 93.06207436 -56.19790649 95.02641296 C-56.20697005 100.32582521 -56.2035116 105.62515897 -56.19714832 110.92457247 C-56.19205837 116.48875917 -56.19678793 122.05293948 -56.19992065 127.61712646 C-56.20355099 136.9560567 -56.19878508 146.29495521 -56.1892395 155.63388062 C-56.17835039 166.41132923 -56.18188763 177.18870218 -56.19289231 187.96614897 C-56.20198417 197.24379516 -56.20324137 206.52141865 -56.19801497 215.79906785 C-56.19490653 221.32968725 -56.19445502 226.86027114 -56.20108795 232.39088821 C-56.20688867 237.58992473 -56.20281481 242.78886416 -56.19129944 247.98789024 C-56.18866767 249.88932192 -56.18939241 251.79076184 -56.19382477 253.69219017 C-56.23312431 272.27188432 -54.76615281 288.82278491 -41.92849731 303.38095093 C-20.35014517 323.79475708 5.29713509 318.38095093 35.07150269 318.38095093 C35.07150269 348.74095093 35.07150269 379.10095093 35.07150269 410.38095093 C40.85872439 405.7793058 40.85872439 405.7793058 44.71363831 400.43922424 C45.13157937 399.71719535 45.54952044 398.99516645 45.98012638 398.2512579 C46.41722148 397.4796108 46.85431658 396.7079637 47.30465698 395.91293335 C65.67318192 365.12950658 93.0072393 328.18194226 129.83805656 318.66617203 C186.40464829 306.26951193 250.25492406 313.11336053 307.56219482 316.81680298 C309.61997887 316.94509622 311.67776792 317.07330917 313.73556232 317.20143604 C317.51621421 317.43796984 321.29249117 317.7066445 325.06933117 317.99722576 C340.03466017 319.03727882 351.51741344 316.00222277 363.44650269 306.48641968 C372.83507641 297.93837705 378.45124901 286.04217915 379.18906093 273.36030149 C379.3968867 267.28562655 379.37646766 261.20794451 379.37789917 255.13046265 C379.38552916 253.07615358 379.39395809 251.02184735 379.40312195 248.96754456 C379.42499217 243.4073168 379.43385589 237.84714401 379.43894839 232.28687811 C379.44260112 228.806176 379.44884595 225.32548808 379.45594978 221.84479141 C379.48041925 209.68203352 379.49349056 197.51931811 379.49703979 185.35653687 C379.50067208 174.05145124 379.53055217 162.74663758 379.57244438 151.44163501 C379.60723259 141.70961967 379.62258972 131.97769408 379.62328583 122.24561703 C379.62407579 116.44473699 379.63268491 110.64413426 379.66128349 104.84331894 C379.68761025 99.38153767 379.68958818 93.92026078 379.67362785 88.4584446 C379.67182489 86.46557444 379.67839852 84.47267429 379.69444656 82.47986794 C379.81798686 66.1285721 378.16088776 51.31856685 367.07150269 38.38095093 C366.53783081 37.73770874 366.00415894 37.09446655 365.45431519 36.43173218 C358.12529716 28.34877211 346.75998701 23.13136179 336.07150269 21.38095093 C334.0528664 21.28912136 332.03159852 21.24839084 330.01087952 21.24393654 C328.78626951 21.238862 327.56165951 21.23378745 326.29994011 21.22855914 C324.94409057 21.22795752 323.58824097 21.22745842 322.23239136 21.22705078 C320.78953496 21.223034 319.34667968 21.21859541 317.90382576 21.21377122 C313.93826887 21.20182389 309.97272414 21.19616155 306.0071528 21.19159007 C301.73018871 21.18562698 297.4532391 21.1740189 293.17628479 21.16329956 C282.84674235 21.13879164 272.51719512 21.12415071 262.18763256 21.11123949 C259.26917426 21.10752637 256.35071643 21.10355323 253.43225861 21.09948683 C235.30159479 21.07424897 217.17093019 21.05220004 199.04025269 21.03975868 C194.84184771 21.03682908 190.64344276 21.0338674 186.44503784 21.03085327 C184.87983548 21.0297342 184.87983548 21.0297342 183.28301287 21.02859251 C166.38532816 21.01594307 149.48774877 20.98272451 132.59011328 20.94105144 C115.23403106 20.89859931 97.87800271 20.87505986 80.52186871 20.86983812 C70.78015256 20.86642772 61.038601 20.85471629 51.29693604 20.82173538 C42.99919177 20.79368865 34.70164586 20.78275581 26.40385789 20.79393084 C22.17329739 20.79910568 17.94315198 20.79630768 13.71265221 20.7714653 C9.8322189 20.7488697 5.95249636 20.74979152 2.07204974 20.76866917 C0.67560121 20.77145485 -0.72089658 20.76595103 -2.1172663 20.75085624 C-15.47761934 20.61537564 -26.30852222 24.27077463 -36.92849731 32.38095093 Z M399.07150269 113.38095093 C399.07095792 114.23810479 399.07041315 115.09525866 399.06985188 115.97838688 C399.05484828 136.88848811 399.01225716 157.79837701 398.93941212 178.70835972 C398.90484089 188.82052049 398.87941695 198.93254606 398.87594604 209.04476929 C398.87289517 217.86430901 398.85225447 226.68360745 398.81097811 235.50305408 C398.78974793 240.16776361 398.77699577 244.83213098 398.78534889 249.49688911 C398.79295276 253.89902855 398.77681246 258.30047834 398.74344254 262.70249176 C398.73528483 264.30711524 398.73536865 265.91180831 398.74490547 267.51642418 C398.8547745 288.05710762 391.72408843 305.22814668 377.39181519 320.12704468 C363.61081638 332.77676747 346.15035965 338.51519962 327.6749115 338.53916931 C326.85630361 338.54410729 326.03769571 338.54904527 325.19428152 338.55413288 C322.46593855 338.56942555 319.73761897 338.57784605 317.00924683 338.58627319 C315.04764604 338.5958582 313.0860473 338.60586864 311.12445068 338.61627197 C305.8089321 338.64325967 300.49340469 338.66430239 295.17785573 338.68427396 C289.61914931 338.70617142 284.06046989 338.73354169 278.50178528 338.7603302 C267.97994931 338.81020628 257.4580983 338.85516395 246.93623298 338.89835256 C234.95562778 338.94776842 222.97504969 339.00267041 210.99447072 339.05803216 C186.35350667 339.17177414 161.71251662 339.27863009 137.07150269 339.38095093 C137.21270538 340.12978546 137.35390808 340.87862 137.49938965 341.65014648 C137.6825473 342.63590668 137.86570496 343.62166687 138.05441284 344.63729858 C138.23686554 345.61300812 138.41931824 346.58871765 138.6072998 347.59399414 C139.17254359 350.98757501 139.34610168 354.3191472 139.44650269 357.75595093 C140.26852172 371.47948911 145.09647417 382.9948576 154.07150269 393.38095093 C160.12000932 398.49598725 166.56904203 402.76802498 174.07150269 405.38095093 C175.44360649 405.89835342 175.44360649 405.89835342 176.84342957 406.4262085 C182.745079 408.08252078 188.91654056 407.55220272 194.98629761 407.44589233 C196.39640038 407.42897724 197.80651712 407.41319436 199.21664429 407.39845276 C202.24391024 407.36599759 205.27106537 407.32869941 208.29823875 407.28856277 C213.09493399 407.22818789 217.89151486 407.19831085 222.68852234 407.1762085 C223.50018944 407.17238934 224.31185655 407.16857019 225.14811963 407.1646353 C227.64666809 407.15314853 230.14521808 407.14204514 232.64376831 407.13095093 C242.96344793 407.08430786 253.28144727 407.01591363 263.60006714 406.85653687 C271.13949815 406.74030369 278.67699834 406.68131751 286.2173546 406.68784273 C290.20131519 406.68910505 294.180409 406.66213211 298.16329002 406.56520462 C324.27459565 405.9565791 324.27459565 405.9565791 330.57849121 411.8298645 C333.31834578 415.0861708 335.28449792 418.53482964 337.06943703 422.38447189 C338.66689165 425.56718216 340.82566383 428.12365127 343.07150269 430.88095093 C346.78041781 435.68352051 350.43800715 440.52111463 354.07150269 445.38095093 C358.90133937 451.83883964 363.79318571 458.24401198 368.72042847 464.62802124 C377.59606716 476.14357704 386.37069662 487.73284479 395.07150269 499.38095093 C397.60238259 497.08524333 399.11139811 494.75937736 400.71603394 491.75204468 C401.2207019 490.81296265 401.72536987 489.87388062 402.24533081 488.90634155 C402.78609253 487.88733765 403.32685425 486.86833374 403.88400269 485.81845093 C404.45441284 484.75432983 405.024823 483.69020874 405.61251831 482.59384155 C406.82311145 480.33503581 408.03155187 478.07507522 409.23800659 475.8140564 C412.1677042 470.32838292 415.1209207 464.85541026 418.07150269 459.38095093 C419.24085115 457.20911772 420.41012196 455.03724271 421.57931519 452.86532593 C422.74333879 450.70384665 423.90740125 448.54238829 425.07150269 446.38095093 C425.64996948 445.30651733 426.22843628 444.23208374 426.82443237 443.12509155 C428.52987688 439.95934223 430.23785168 436.79497055 431.94650269 433.63095093 C432.44536987 432.70411499 432.94423706 431.77727905 433.45822144 430.82235718 C434.41992214 429.0435915 435.39862095 427.27387413 436.3968811 425.5153656 C438.14561895 422.35777066 438.14561895 422.35777066 439.57400513 418.81355286 C441.2712817 414.98181132 443.03057239 411.32895964 446.07150269 408.38095093 C451.3211723 406.42713749 456.31706586 406.67147997 461.81369019 406.90048218 C463.34768298 406.91179843 464.88173783 406.9164572 466.41577148 406.91481018 C470.44220129 406.92621599 474.46255503 407.01845256 478.48727417 407.13095093 C484.14234523 407.27467159 489.7992508 407.30977142 495.45581055 407.35426331 C498.4623443 407.37800085 501.46562826 407.43301965 504.47113037 407.51420593 C518.02840658 407.80914087 529.18448244 404.54621611 540.07150269 396.38095093 C540.07150269 395.72095093 540.07150269 395.06095093 540.07150269 394.38095093 C540.66060425 394.13731812 541.24970581 393.8936853 541.85665894 393.64266968 C550.63178304 388.64378946 553.56641201 376.43861351 556.07150269 367.38095093 C557.1828373 362.9476742 557.21975194 358.6027909 557.21867371 354.06005859 C557.22235039 353.22515817 557.22602708 352.39025775 557.22981519 351.53005731 C557.24082367 348.73376688 557.24469111 345.93751366 557.24850464 343.14120483 C557.25477164 341.13527306 557.26141865 339.12934244 557.26841736 337.12341309 C557.28943939 330.53478806 557.2998209 323.94616286 557.30978394 317.35751343 C557.31383277 315.08539188 557.31794973 312.81327045 557.32213402 310.54114914 C557.34118491 299.86081625 557.3554138 289.18049026 557.36374599 278.50014365 C557.3735057 266.19459215 557.39979265 253.88922115 557.44024688 241.5837332 C557.47047799 232.05905912 557.48522166 222.53443654 557.488527 213.00971544 C557.4908703 207.32787397 557.49973631 201.64622533 557.52498817 195.96443558 C557.54839516 190.61112926 557.55245161 185.25814098 557.54222679 179.9047966 C557.54173431 177.95021248 557.5479688 175.99561203 557.56178284 174.04107666 C557.68447198 155.63770486 555.45089588 140.15652244 542.44650269 126.13095093 C532.0169697 116.12615006 520.34420749 113.06139627 506.35299683 113.15390015 C505.19129974 113.15360809 504.02960266 113.15331604 502.83270264 113.15301514 C499.00727777 113.15440429 495.18204963 113.16994626 491.35665894 113.18563843 C488.69865082 113.18937003 486.04065349 113.19231474 483.38264465 113.19421387 C477.11067629 113.20041625 470.83877812 113.21681014 464.56684059 113.23691285 C457.4229305 113.25931064 450.27901695 113.27027501 443.13508046 113.28030372 C428.4471854 113.30117755 413.75934527 113.33632923 399.07150269 113.38095093 Z " fill="#F9FCE6" transform="translate(261.9284973144531,232.61904907226563)"/>
<path d="M0 0 C44.01849727 -0.06868455 88.03698886 -0.12153816 132.05552917 -0.15319599 C137.25373503 -0.15694805 142.45194078 -0.16083103 147.65014648 -0.16479492 C148.6850044 -0.16558185 149.71986231 -0.16636878 150.78607955 -0.16717956 C167.53666806 -0.18022921 184.28722565 -0.20388064 201.03779582 -0.23145839 C218.22872565 -0.25952484 235.41963931 -0.27617889 252.61059111 -0.28226548 C263.21611113 -0.28637935 273.82154374 -0.29936714 284.42703684 -0.3237494 C291.70216838 -0.33962188 298.97725481 -0.34439693 306.2524024 -0.34050413 C310.44815216 -0.33858495 314.64374928 -0.34150223 318.83947182 -0.35761642 C322.68592385 -0.37228087 326.53212147 -0.37291023 330.37858554 -0.36269668 C332.41841752 -0.36084116 334.45824678 -0.37372106 336.49803478 -0.38724393 C351.81215918 -0.3129139 364.50443065 3.8855058 375.6796875 14.5703125 C385.50834183 24.8622704 390.47809714 37.29108253 390.3125 51.5 C390.23412051 53.66775271 390.13995579 55.83535049 390 58 C389.34 58 388.68 58 388 58 C388 81.76 388 105.52 388 130 C369.88283013 138.76637252 351.90990164 147.39172797 333.50195312 155.45263672 C329.67285672 157.14455062 325.85861825 158.86711529 322.046875 160.59765625 C320.71177332 161.20235982 319.3766498 161.80701516 318.04150391 162.41162109 C316.10115194 163.29046911 314.1615531 164.17078871 312.2243042 165.05645752 C310.44593438 165.86913288 308.66443203 166.67494266 306.8828125 167.48046875 C305.86590332 167.94348389 304.84899414 168.40649902 303.80126953 168.88354492 C298.98453529 170.80327001 295.85516071 171.25998797 290.84375 169.84765625 C289.83675049 169.56994385 288.82975098 169.29223145 287.79223633 169.00610352 C286.70579834 168.69471436 285.61936035 168.3833252 284.5 168.0625 C283.35362061 167.744021 282.20724121 167.42554199 281.02612305 167.09741211 C277.34806213 166.07430443 273.67411706 165.03717011 270 164 C265.27261798 162.6810325 260.54286793 161.37071412 255.8125 160.0625 C254.60013672 159.72645752 253.38777344 159.39041504 252.13867188 159.04418945 C242.36700249 156.34747086 232.56103531 153.80088188 222.74072266 151.28808594 C210.70350381 148.20263218 198.69417916 145.01451139 186.6875 141.8125 C185.74036133 141.56028687 184.79322266 141.30807373 183.81738281 141.04821777 C177.54191339 139.3765588 171.26952412 137.69381815 165 136 C164.15439514 135.77213806 163.30879028 135.54427612 162.43756104 135.30950928 C160.00529725 134.65225404 157.57467814 133.98925323 155.14453125 133.32421875 C154.43648849 133.13326126 153.72844574 132.94230377 152.99894714 132.74555969 C148.21516627 131.42660455 143.62664954 129.7954597 139 128 C141.16903697 125.76104877 143.06191265 124.28063272 145.8515625 122.87109375 C146.61210937 122.48083008 147.37265625 122.09056641 148.15625 121.68847656 C148.9709375 121.2756543 149.785625 120.86283203 150.625 120.4375 C157.19549199 117.04927611 163.65024083 113.53634856 170 109.75 C174.38225541 107.13763532 178.75549292 104.54185758 183.25 102.125 C199.49387231 93.38017852 215.36183346 83.91378811 231.27880859 74.59277344 C233.68053957 73.18698725 236.0840532 71.78432155 238.48828125 70.3828125 C242.67025255 67.94093719 246.83799443 65.47573017 251 63 C251.83225098 62.50628906 252.66450195 62.01257813 253.52197266 61.50390625 C269.71789478 51.86705279 285.40192263 41.56460952 301 31 C301.8058252 30.45714355 302.61165039 29.91428711 303.44189453 29.35498047 C311.47630012 23.94108316 319.36471614 18.3405066 327.1875 12.625 C328.39212891 11.74956543 328.39212891 11.74956543 329.62109375 10.85644531 C330.3790625 10.29795898 331.13703125 9.73947266 331.91796875 9.1640625 C332.58594482 8.67373535 333.2539209 8.1834082 333.94213867 7.67822266 C336.45215373 5.63126056 338.70977846 3.29022154 341 1 C228.47 1 115.94 1 0 1 C0 0.67 0 0.34 0 0 Z " fill="#21E074" transform="translate(251,254)"/>
<path d="M0 0 C1.80863036 0.00223852 1.80863036 0.00223852 3.6537987 0.00452226 C5.00385115 0.0113054 6.35390314 0.01818128 7.7039547 0.02513981 C9.12873588 0.02883138 10.55351827 0.03208121 11.97830141 0.03492504 C15.90734908 0.04405551 19.83635112 0.05948878 23.76537418 0.07590783 C27.99713357 0.09250289 32.22890808 0.10331448 36.46068382 0.11481571 C43.79712416 0.13555245 51.13354481 0.15998268 58.46996498 0.18689632 C69.0772975 0.22580401 79.68464169 0.25918054 90.291997 0.29119159 C107.50024277 0.34327382 124.70847073 0.39985154 141.91669273 0.4592371 C158.63641224 0.51692725 175.35613654 0.57251216 192.07587242 0.62525272 C193.10586045 0.62850244 194.13584848 0.63175216 195.19704826 0.63510036 C200.36401147 0.65138963 205.5309748 0.66763738 210.6979382 0.68386447 C253.58728461 0.81861428 296.47660467 0.96065171 339.36591148 1.10743046 C337.85863403 4.31010648 336.60131138 5.9808509 333.71747398 8.06836796 C332.59574791 8.88857426 332.59574791 8.88857426 331.4513607 9.72535038 C330.63941246 10.30518681 329.82746422 10.88502323 328.99091148 11.48243046 C328.14673668 12.09384892 327.30256187 12.70526737 326.43280602 13.33521366 C323.75154975 15.2703016 321.06031879 17.19070497 318.36591148 19.10743046 C317.08877281 20.01936161 317.08877281 20.01936161 315.78583336 20.94971561 C305.19934204 28.49310161 294.47784042 35.78607767 283.50214195 42.75098515 C281.31880068 44.13734447 279.1410501 45.53220297 276.96356773 46.92774296 C251.65689901 63.08879788 225.65163888 78.15402425 199.54486656 92.97779179 C194.73341673 95.71983078 189.99512958 98.54035546 185.30341148 101.48243046 C180.58967824 104.4262562 175.79391146 106.92610421 170.79559898 109.34571171 C166.38981035 111.60882181 162.13687428 114.10129722 157.86591148 116.60743046 C150.82303786 120.73800514 143.75088229 124.61394127 136.36591148 128.10743046 C135.77165367 127.56215702 135.17739586 127.01688358 134.56513023 126.45508671 C130.21756198 122.49967857 125.83857824 118.64521506 121.24091148 114.98243046 C116.39828245 111.07265914 111.8789677 106.89155587 107.36591148 102.60743046 C102.11538536 97.62715201 96.79728187 92.86135545 91.13934898 88.34180546 C83.43206894 82.13256013 75.96591689 75.61487123 68.67841148 68.91993046 C64.29235503 64.8934921 59.74849521 61.12633324 55.11591148 57.38868046 C51.32827802 54.24666634 47.73596877 50.90827864 44.11591148 47.57618046 C41.42853514 45.16364942 38.67625705 42.87486836 35.86591148 40.60743046 C31.1085148 36.76907632 26.6080723 32.71120687 22.11200523 28.57227421 C19.44715982 26.18035748 16.71759323 23.91488162 13.92841148 21.66993046 C9.24923912 17.89835618 4.80933935 13.92999678 0.42474937 9.82447147 C-1.64490042 7.89334016 -3.68464192 6.07092434 -5.98174477 4.41211796 C-6.5270182 3.98157108 -7.07229164 3.55102421 -7.63408852 3.10743046 C-7.63408852 2.44743046 -7.63408852 1.78743046 -7.63408852 1.10743046 C-4.97368082 -0.22277339 -2.98068433 -0.00972667 0 0 Z " fill="#37E87B" transform="translate(252.63408851623535,253.89256954193115)"/>
<path d="M0 0 C15.27377343 -0.11725112 30.54752601 -0.20519139 45.82164955 -0.25906086 C52.91510771 -0.28474797 60.00828484 -0.31971428 67.1015625 -0.37719727 C73.29032357 -0.42732589 79.47888093 -0.45935985 85.66783941 -0.47044247 C88.93933657 -0.47691214 92.21012176 -0.4946131 95.48146439 -0.52865028 C128.06570901 -0.85400032 128.06570901 -0.85400032 141 11 C141.60199219 11.52335937 142.20398438 12.04671875 142.82421875 12.5859375 C152.67604666 21.68979583 157.54851511 34.13206967 158.35797882 47.39756584 C158.53678024 52.31336812 158.49618916 57.22634197 158.45410156 62.14428711 C158.45297055 64.01839676 158.45361189 65.89250819 158.45587158 67.76661682 C158.45700975 72.80704926 158.4336473 77.84709363 158.40557575 82.88743663 C158.38041097 88.17246023 158.37820829 93.4574947 158.37347412 98.74256897 C158.36108837 108.72945713 158.32832682 118.71616817 158.28807616 128.70297867 C158.24322082 140.08156138 158.22133693 151.46015297 158.20129442 162.83880222 C158.1595899 186.22596598 158.08932419 209.61297302 158 233 C157.67 232.34 157.34 231.68 157 231 C156.34 231 155.68 231 155 231 C154.39671875 229.71222656 154.39671875 229.71222656 153.78125 228.3984375 C151.95135666 224.90719362 149.82991966 221.78795075 147.5 218.625 C146.60029127 217.38503598 145.70190241 216.14411344 144.8046875 214.90234375 C144.11004395 213.94110596 144.11004395 213.94110596 143.40136719 212.96044922 C141.09568604 209.73490573 138.86113357 206.46146404 136.625 203.1875 C128.78636164 191.73848844 120.76890438 180.42119259 112.625 169.1875 C106.20869247 160.33605879 99.94446903 151.38196104 93.68896484 142.41650391 C87.5097213 133.57548734 81.27647084 124.77222297 75 116 C57.98830453 92.21883724 57.98830453 92.21883724 52 83 C49.0510145 86.51162089 46.72074427 90.0544462 44.5 94.0625 C41.18153041 99.97740905 37.74843322 105.81478946 34.25 111.625 C33.74235107 112.46836914 33.23470215 113.31173828 32.71166992 114.18066406 C31.66737327 115.91445485 30.62269203 117.64801405 29.57763672 119.38134766 C26.47893211 124.52475615 23.39334841 129.67604537 20.30541992 134.82592773 C18.01524472 138.64440033 15.72294117 142.46151626 13.421875 146.2734375 C9.49494963 152.78441007 5.61012059 159.30585679 2 166 C0 164 0 164 -0.24609566 161.19265556 C-0.24425207 159.98510675 -0.24240849 158.77755795 -0.24050903 157.53341675 C-0.24221788 156.86200531 -0.24392673 156.19059387 -0.24568737 155.49883664 C-0.24899389 153.23853801 -0.23795974 150.9785332 -0.22705078 148.71826172 C-0.22648692 147.10222379 -0.22680274 145.48618534 -0.22793579 143.87014771 C-0.22851127 139.47366757 -0.21672542 135.07729584 -0.20278788 130.68084097 C-0.19031302 126.08973326 -0.18911259 121.49862326 -0.18673706 116.90750122 C-0.18051273 108.2093822 -0.16408905 99.51131326 -0.14403808 90.81321633 C-0.12170869 80.91251891 -0.11069311 71.01181914 -0.10064721 61.11110282 C-0.07972362 40.74070723 -0.04452917 20.37035676 0 0 Z " fill="#00C969" transform="translate(661,346)"/>
<path d="M0 0 C0.33 0 0.66 0 1 0 C1 52.14 1 104.28 1 158 C21.58347703 149.18760821 21.58347703 149.18760821 42 140 C46.20215127 138.17054631 50.40770762 136.35607902 54.625 134.5625 C56.45015301 133.78310297 58.27530371 133.00370051 60.10037231 132.22410583 C62.04518795 131.39362596 63.99033948 130.56393682 65.93554688 129.734375 C73.08519615 126.68448217 80.23006287 123.62341134 87.375 120.5625 C88.48103073 120.08884506 88.48103073 120.08884506 89.60940552 119.60562134 C99.93918624 115.18135118 110.25579748 110.72774074 120.5625 106.25 C131.96993365 101.29413193 143.41087691 96.42222772 154.87109375 91.58984375 C163.9315085 87.76741364 172.96631662 83.88509522 182 80 C183 82 183 82 182.1796875 84.6171875 C181.53386719 86.22980469 181.53386719 86.22980469 180.875 87.875 C180.45992187 88.92429687 180.04484375 89.97359375 179.6171875 91.0546875 C178.77168835 93.13409207 177.91291239 95.20701627 177.04248047 97.27612305 C172.79692879 107.37387636 168.76237298 117.55556467 164.70437622 127.72976685 C152.83680699 157.48164657 152.83680699 157.48164657 147.0625 171.5625 C143.64115663 179.91235096 140.28319465 188.28524409 136.97924805 196.68212891 C135.84150194 199.57266678 134.68998274 202.45708749 133.52661133 205.33740234 C130.11008554 213.83116477 130.11008554 213.83116477 127.5 222.6015625 C125.0113682 232.12980079 121.49920252 235.96390776 112.88769531 241.05395508 C107.67781232 243.89815599 102.37493576 246.48589498 97 249 C94.99730313 249.99458797 92.99654999 250.99312954 91 252 C91 251.01 91 250.02 91 249 C90.17886467 249.00999275 90.17886467 249.00999275 89.34114075 249.02018738 C83.58108466 249.08718255 77.82114139 249.13206318 72.06079102 249.16479492 C69.91849259 249.17976927 67.77622421 249.20015595 65.6340332 249.22631836 C46.07344564 249.45901954 29.25099883 248.68864489 14.32421875 234.51171875 C3.27469453 222.57080434 -0.18109319 208.25533897 -0.12025452 192.40722656 C-0.12110894 191.57959714 -0.12196337 190.75196772 -0.12284368 189.89925861 C-0.12448117 187.1463582 -0.11900565 184.39351973 -0.11352539 181.640625 C-0.11324312 179.65917462 -0.11340203 177.67772413 -0.1139679 175.6962738 C-0.11425431 170.33120696 -0.10838276 164.96616256 -0.10139394 159.60110092 C-0.09513445 153.98903264 -0.09455455 148.37696381 -0.09336853 142.76489258 C-0.09026287 132.14390546 -0.08205978 121.52292865 -0.07201904 110.90194607 C-0.06083416 98.80767523 -0.05534147 86.7134039 -0.05032361 74.61912918 C-0.03987654 49.74608041 -0.0222919 24.87304078 0 0 Z " fill="#33E87C" transform="translate(206,302)"/>
<path d="M0 0 C0.66 0 1.32 0 2 0 C2.0701789 25.3306862 2.12303167 50.66135775 2.15543652 75.9921217 C2.17088467 87.75446517 2.19193492 99.51674812 2.22631836 111.27905273 C2.25628357 121.53483237 2.27558991 131.79056816 2.28226548 142.04639035 C2.28616568 147.4733516 2.29528882 152.90018745 2.31719017 158.32710838 C2.33766791 163.44309102 2.34381111 168.55889749 2.33932304 173.67491722 C2.34014322 175.5448706 2.3460412 177.41483034 2.35761642 179.28474808 C2.4599499 196.68066487 0.78364414 211.87716574 -11.5 225.25 C-21.92819278 235.15757196 -34.6568894 239.32935876 -48.80053711 239.22705078 C-50.39677917 239.22748886 -50.39677917 239.22748886 -52.02526855 239.22793579 C-55.5260446 239.22654774 -59.0266051 239.21101105 -62.52734375 239.1953125 C-64.96114485 239.19158051 -67.39494746 239.18873442 -69.82875061 239.18673706 C-76.22217994 239.17911528 -82.61551783 239.15947919 -89.00891113 239.1373291 C-95.53782922 239.11683938 -102.06676213 239.10772865 -108.59570312 239.09765625 C-121.39717434 239.076232 -134.1985823 239.04250015 -147 239 C-146.74601944 238.46731003 -146.49203888 237.93462006 -146.23036194 237.38578796 C-145.05971326 234.92843543 -143.89117478 232.47008488 -142.72265625 230.01171875 C-142.12354431 228.75530579 -142.12354431 228.75530579 -141.5123291 227.47351074 C-139.05252138 222.29397688 -136.69088409 217.08493674 -134.4375 211.8125 C-132.22366179 206.67708341 -129.86475394 201.66326301 -127.3125 196.6875 C-123.0415355 188.34864649 -119.29614962 179.78508619 -115.5637207 171.1940918 C-112.89997151 165.10674913 -110.0894804 159.13881277 -107.0703125 153.22265625 C-104.26924367 147.72601015 -101.75870198 142.17680745 -99.4296875 136.46484375 C-98.54090161 134.33510635 -97.6490975 132.20665241 -96.75683594 130.07836914 C-96.16479749 128.64105321 -95.58779739 127.1974581 -95.02539062 125.74829102 C-91.87494944 117.68745108 -89.20409136 111.56386714 -81.07421875 107.76171875 C-78.73246 106.80040282 -76.37514552 105.87558331 -74 105 C-72.41929679 104.28234368 -70.843978 103.55255804 -69.27734375 102.8046875 C-67.83205066 102.15849451 -66.38540108 101.51532802 -64.9375 100.875 C-64.11934814 100.50938965 -63.30119629 100.1437793 -62.45825195 99.76708984 C-58.52075818 98.00802236 -54.57944381 96.25756799 -50.63867188 94.50585938 C-46.98715972 92.88140718 -43.33685551 91.25428953 -39.6875 89.625 C-39.07408752 89.3514267 -38.46067505 89.07785339 -37.82867432 88.79598999 C-28.09637214 84.45069202 -18.45142216 79.94036738 -8.87963867 75.25048828 C-7.99767822 74.82106934 -7.11571777 74.39165039 -6.20703125 73.94921875 C-5.4385083 73.57112061 -4.66998535 73.19302246 -3.87817383 72.8034668 C-2 72 -2 72 0 72 C0 48.24 0 24.48 0 0 Z " fill="#00B256" transform="translate(639,312)"/>
<path d="M0 0 C-0.93933398 3.96607679 -2.49171257 6.83259465 -4.875 10.0625 C-8.4998622 15.0700416 -11.53526919 20.30845029 -14.5625 25.6875 C-18.92014665 33.41041006 -23.3850754 41.05276425 -28 48.625 C-28.52021729 49.48053467 -29.04043457 50.33606934 -29.57641602 51.2175293 C-30.66197834 52.99236365 -31.78102562 54.74709394 -32.9303894 56.48129272 C-34.59229872 59.12058373 -35.73212428 61.77592141 -36.86476135 64.67881775 C-39.32843692 70.32993663 -42.01640668 75.2196092 -47 79 C-56.37551541 82.33966115 -67.04300303 81.49735893 -76.8664062 81.26014018 C-80.82949131 81.18370059 -84.79191839 81.21298596 -88.75550842 81.22938538 C-95.41004942 81.24228357 -102.06092722 81.18592292 -108.71459961 81.08032227 C-118.06012803 80.93220276 -127.40253591 80.91637512 -136.74904048 80.92381084 C-143.2643312 80.92385576 -149.77952697 80.89134175 -156.29469228 80.85328603 C-157.8628791 80.84434493 -159.43107167 80.83636065 -160.99926829 80.82934642 C-165.47583457 80.80839219 -169.95128322 80.76679992 -174.42731285 80.69360352 C-176.41053869 80.66504676 -178.39400209 80.65475225 -180.37741089 80.64527893 C-194.92872103 80.35066098 -205.98667963 76.2848367 -216.75 66.5 C-217.86375 65.2625 -217.86375 65.2625 -219 64 C-219.47953125 63.51273438 -219.9590625 63.02546875 -220.453125 62.5234375 C-229.94194376 52.41161549 -232.09170518 39.50005153 -233.0625 26.1875 C-233.21673768 24.13907066 -233.37414464 22.09087678 -233.53515625 20.04296875 C-233.600979 19.14602295 -233.66680176 18.24907715 -233.73461914 17.32495117 C-233.93644006 14.84634807 -233.93644006 14.84634807 -235 12 C-233.48235125 11.99641747 -233.48235125 11.99641747 -231.93404293 11.99276257 C-207.26864355 11.93386023 -182.60334102 11.85791135 -157.93804836 11.76428509 C-146.00989607 11.71939838 -134.08177316 11.67996736 -122.15356445 11.65356445 C-111.75194886 11.63052659 -101.35042682 11.59706417 -90.9488855 11.55129844 C-85.44588958 11.52744416 -79.94298586 11.50866441 -74.4399395 11.50238609 C-69.25001942 11.49629985 -64.06033499 11.4761733 -58.87050247 11.44572449 C-56.97561472 11.43700066 -55.0806961 11.43320981 -53.18578911 11.43499184 C-36.48916327 11.44572686 -21.99504869 9.60404114 -6.85546875 1.91015625 C-4.5543117 0.78137816 -2.58408212 0 0 0 Z " fill="#00C86B" transform="translate(634,560)"/>
<path d="M0 0 C20.32105876 5.0601581 40.55386958 10.40241543 60.75 15.9375 C75.85761094 20.07726426 90.9838325 24.10749435 106.16015625 27.98828125 C114.70499707 30.17427425 123.23820682 32.40404964 131.76885986 34.64471436 C133.44002135 35.08344688 135.11136217 35.52149695 136.78289795 35.95880127 C145.23135955 38.16944741 153.66555868 40.38387176 162 43 C153.66982838 62.3905604 144.958192 81.59168665 136.0078125 100.703125 C133.44931972 106.17036411 130.91186205 111.64739167 128.3711853 117.1229248 C127.50282179 118.99392011 126.63394604 120.86467664 125.76489258 122.73535156 C122.35136548 130.08198617 122.35136548 130.08198617 118.95703125 137.4375 C115.6303565 144.64397832 112.16408233 151.77060604 108.625 158.875 C108.18325439 159.76316406 107.74150879 160.65132812 107.28637695 161.56640625 C106.87476318 162.38753906 106.46314941 163.20867187 106.0390625 164.0546875 C105.66990723 164.79187012 105.30075195 165.52905273 104.92041016 166.28857422 C104 168 104 168 103 169 C101.65927183 169.09527037 100.31357497 169.1218877 98.96946716 169.12025452 C98.10143463 169.12162918 97.2334021 169.12300385 96.33906555 169.12442017 C95.37953476 169.12082489 94.42000397 169.11722961 93.43139648 169.11352539 C92.42663269 169.11367142 91.4218689 169.11381744 90.38665771 169.1139679 C87.04811483 169.1132683 83.70962695 169.10547374 80.37109375 169.09765625 C78.06323782 169.09579224 75.75538149 169.09436826 73.44752502 169.09336853 C67.35982174 169.08954204 61.27214214 169.07971065 55.18444824 169.06866455 C48.97778646 169.05845323 42.77112087 169.05387151 36.56445312 169.04882812 C24.37629165 169.0380885 12.18814779 169.02101052 0 169 C0 168.67 0 168.34 0 168 C33.33 167.67 66.66 167.34 101 167 C98.69 163.7 96.38 160.4 94 157 C92.57466091 154.57286565 91.20174479 152.16426811 89.875 149.6875 C86.3379915 143.2497867 82.5759977 136.98122869 78.6875 130.75 C74.4840302 124.01228198 70.32172789 117.25573016 66.25 110.4375 C61.47007563 102.43844289 56.65166441 94.46332361 51.8125 86.5 C51.45437225 85.91061646 51.09624451 85.32123291 50.7272644 84.71398926 C49.26147966 82.30183979 47.79554967 79.88977871 46.32936096 77.47787476 C43.75961959 73.25055575 41.19169633 69.02213725 38.625 64.79296875 C31.9636114 53.81710148 25.29938892 42.84296885 18.625 31.875 C17.77832764 30.48269165 17.77832764 30.48269165 16.91455078 29.06225586 C14.19568082 24.59406322 11.46817247 20.1315639 8.72265625 15.6796875 C8.20944824 14.8458252 7.69624023 14.01196289 7.16748047 13.15283203 C6.20950029 11.59749701 5.2490477 10.04368098 4.28564453 8.49169922 C2.55863077 5.68571557 1.04586054 3.13758163 0 0 Z " fill="#00D164" transform="translate(389,382)"/>
<path d="M0 0 C4.15501454 3.71448287 6.99105828 8.21284206 10.0625 12.8125 C14.08550922 18.76772742 18.15052892 24.66903742 22.4375 30.4375 C28.56008485 38.68982633 34.41633323 47.12371065 40.29199219 55.55273438 C46.90667491 65.03037583 53.59090146 74.45540426 60.375 83.8125 C69.76269595 96.76766148 78.91531928 109.88984695 87.93334961 123.10473633 C90.36295971 126.65584396 92.83238772 130.17298754 95.34765625 133.6640625 C95.90437012 134.43983643 96.46108398 135.21561035 97.03466797 136.01489258 C98.11487911 137.51649776 99.20091317 139.01393573 100.29345703 140.5065918 C100.7779834 141.18117432 101.26250977 141.85575684 101.76171875 142.55078125 C102.19444092 143.14544189 102.62716309 143.74010254 103.07299805 144.3527832 C104 146 104 146 104 149 C104.66 149.33 105.32 149.66 106 150 C102.77674563 150 100.2201158 149.41031983 97.08935547 148.64233398 C95.25871048 148.1957267 95.25871048 148.1957267 93.39108276 147.74009705 C92.04973735 147.40895291 90.70844029 147.07761285 89.3671875 146.74609375 C87.97409596 146.40395156 86.58095747 146.06200047 85.18777466 145.7202301 C82.24993675 144.99864868 79.31274898 144.27448925 76.37597656 143.54858398 C72.6918233 142.63818444 69.00608863 141.73439466 65.31983566 140.83254051 C50.69363117 137.25096154 36.12811765 133.55235883 21.64733887 129.41412354 C13.54909072 127.11322341 5.40079609 125.13024325 -2.79785156 123.22412109 C-11.08819817 121.29175068 -19.32707526 119.15188687 -27.57128906 117.03295898 C-30.42198083 116.30042751 -33.2734382 115.57093347 -36.125 114.84179688 C-37.96619039 114.36996549 -39.80733789 113.89796674 -41.6484375 113.42578125 C-42.48700287 113.21117752 -43.32556824 112.99657379 -44.18954468 112.77546692 C-48.81475761 111.58535657 -53.41427465 110.33439923 -58 109 C-57.41653249 103.86813805 -56.23308296 99.24743896 -54.5 94.375 C-53.06316785 90.28618621 -51.72274535 86.28719402 -51 82 C-50.34 82 -49.68 82 -49 82 C-48.56171875 81.22140625 -48.1234375 80.4428125 -47.671875 79.640625 C-42.176998 69.94641111 -36.46772248 60.38983178 -30.71533203 50.84667969 C-27.59695804 45.67158137 -24.48543148 40.49237494 -21.375 35.3125 C-20.74029785 34.25595215 -20.1055957 33.1994043 -19.45166016 32.11083984 C-15.30491311 25.19959477 -11.1910348 18.27024392 -7.14404297 11.30004883 C-4.88904149 7.43411619 -2.5163587 3.69785443 0 0 Z " fill="#00AE55" transform="translate(712,428)"/>
<path d="M0 0 C11.10055731 0.72337755 20.25678385 9.57427299 27.296875 17.453125 C36.19966924 28.86942364 38.20401663 42.18438655 37.296875 56.21484375 C36.636875 56.21484375 35.976875 56.21484375 35.296875 56.21484375 C35.296875 79.97484375 35.296875 103.73484375 35.296875 128.21484375 C17.18758327 136.97740426 -0.77982695 145.60271748 -19.17919922 153.66308594 C-25.76482485 156.56306076 -32.3263733 159.51688952 -38.890625 162.46484375 C-40.18242809 163.0444923 -41.47425675 163.62408384 -42.76611328 164.20361328 C-45.74531492 165.54025027 -48.72431815 166.87732724 -51.703125 168.21484375 C-53.10908323 165.40292728 -52.27010455 164.11829719 -51.3671875 161.1328125 C-50.89079834 159.54025635 -50.89079834 159.54025635 -50.40478516 157.91552734 C-50.0494873 156.75617676 -49.69418945 155.59682617 -49.328125 154.40234375 C-48.96380371 153.19400879 -48.59948242 151.98567383 -48.22412109 150.74072266 C-45.26709498 140.96754347 -42.23749619 131.21651739 -39.19946289 121.46826172 C-29.91865239 91.67893117 -20.97192635 61.78245821 -12.44140625 31.76953125 C-12.16641296 30.80283005 -11.89141968 29.83612885 -11.60809326 28.84013367 C-10.25011186 24.06418594 -8.89636459 19.28709971 -7.54931641 14.50805664 C-7.05770421 12.77357559 -6.5660092 11.03911801 -6.07421875 9.3046875 C-5.73587761 8.09635757 -5.73587761 8.09635757 -5.39070129 6.86361694 C-3.51820722 0.2796263 -3.51820722 0.2796263 0 0 Z " fill="#12D56B" transform="translate(603.703125,255.78515625)"/>
<path d="M0 0 C32.67 0 65.34 0 99 0 C97.22213607 3.55572785 95.55226917 6.86658823 93.50390625 10.22265625 C93.03355957 10.99818848 92.56321289 11.7737207 92.07861328 12.57275391 C91.32813721 13.80517822 91.32813721 13.80517822 90.5625 15.0625 C85.6433936 23.19439303 80.86651923 31.39694134 76.18579102 39.66821289 C73.33839422 44.6925916 70.42067655 49.66634684 67.4375 54.61132812 C65.32586897 58.12019327 63.25732306 61.65387357 61.1875 65.1875 C58.04753743 70.5371751 54.88759529 75.8735803 51.6875 81.1875 C47.98633544 87.33395821 44.33220688 93.50741476 40.6875 99.6875 C34.10606687 110.84351499 27.4469924 121.95186853 20.76660156 133.04882812 C19.63547699 134.9280309 18.50506656 136.80766082 17.375 138.6875 C17.02268311 139.27289551 16.67036621 139.85829102 16.30737305 140.46142578 C14.27973326 143.83881893 12.27726837 147.22975615 10.29296875 150.6328125 C9.83809082 151.41180908 9.38321289 152.19080566 8.91455078 152.9934082 C8.03121446 154.50854213 7.15056062 156.02524403 6.27294922 157.54370117 C3.22058323 162.77941677 3.22058323 162.77941677 1 165 C-0.42337486 162.15325029 -0.12269995 159.75532955 -0.12025452 156.57138062 C-0.12110894 155.90405273 -0.12196337 155.23672485 -0.12284368 154.5491749 C-0.12449684 152.30277589 -0.11897979 150.05645079 -0.11352539 147.81005859 C-0.11324346 146.2038727 -0.11340137 144.59768667 -0.1139679 142.99150085 C-0.11425563 138.62191272 -0.10836274 134.25235185 -0.10139394 129.88277006 C-0.09515644 125.31968542 -0.09455629 120.75660021 -0.09336853 116.19351196 C-0.09025639 107.5485349 -0.08204456 98.90357043 -0.07201904 90.25859892 C-0.05876798 78.57955638 -0.05335705 66.90051041 -0.04751682 55.22146225 C-0.0381046 36.81429872 -0.0181849 18.40716179 0 0 Z " fill="#06D371" transform="translate(661,347)"/>
<path d="M0 0 C7.09510031 1.89935787 14.1893124 3.80200722 21.28295898 5.70678711 C23.68868729 6.35237536 26.09460694 6.99725107 28.50073242 7.64135742 C40.85078755 10.94789392 53.18790739 14.26270448 65.42700195 17.96191406 C69.34596884 19.10051654 73.2850266 20.09976536 77.25 21.0625 C95.52750163 25.51717945 95.52750163 25.51717945 102 29 C102.33 28.34 102.66 27.68 103 27 C104.18150384 30.97526812 104.13700848 32.68967579 102.4375 36.5390625 C101.64022401 37.91000907 100.82632298 39.27136274 100 40.625 C99.06745699 42.2249015 98.13797391 43.82658901 97.2109375 45.4296875 C96.44088379 46.75178223 96.44088379 46.75178223 95.65527344 48.10058594 C92.86193211 52.99346522 90.22873329 57.97146637 87.58444214 62.94604492 C85.98200637 65.95896465 84.37174691 68.96769504 82.76171875 71.9765625 C82.44519852 72.56830261 82.12867828 73.16004272 81.80256653 73.76971436 C78.70069862 79.56561005 75.5775502 85.3497115 72.4375 91.125 C71.74164795 92.41035645 71.74164795 92.41035645 71.03173828 93.72167969 C67.84086859 99.57642284 64.46933944 105.30614398 61 111 C56.39635601 106.72580699 52.85212678 101.89828692 49.1875 96.8125 C44.87582624 90.89260992 40.5299528 85.04104369 35.90625 79.359375 C29.20374781 71.06365507 22.84800774 62.48635847 16.46411133 53.94506836 C14.12796312 50.82308739 11.78498024 47.7077952 9.40234375 44.62109375 C9.0186497 44.12233199 8.63495565 43.62357023 8.23963451 43.10969448 C7.03193974 41.55877903 5.79368682 40.03179125 4.55305481 38.50709534 C2.72141804 36.1450215 1.42681783 33.88541261 0.23368835 31.14927673 C-2.02697309 26.47282622 -4.51983173 22.77570727 -9 20 C-18.45503786 17.31599011 -28.84214772 18.07351057 -38.58733535 18.27716184 C-42.50974457 18.3432094 -46.43174981 18.32361929 -50.35456848 18.3134613 C-57.76793044 18.30709946 -65.1785122 18.3767477 -72.59115535 18.4743318 C-81.03618176 18.5817597 -89.4807669 18.6035107 -97.92638433 18.6183883 C-115.28549835 18.65087054 -132.64214524 18.78989558 -150 19 C-150 18.67 -150 18.34 -150 18 C-148.93154311 18.01577512 -148.93154311 18.01577512 -147.84150124 18.03186893 C-130.47998313 18.28231631 -113.12017085 18.43812701 -95.75692177 18.48965549 C-87.35974835 18.51683887 -78.96505033 18.57560543 -70.56884766 18.7097168 C-63.24725617 18.82658234 -55.9280509 18.88317941 -48.60549867 18.86853737 C-44.72975671 18.86286327 -40.85939697 18.88658484 -36.98472977 18.98260689 C-21.54546141 20.10357122 -21.54546141 20.10357122 -7.69329071 15.24116135 C-3.7453061 10.68728641 -1.68945596 5.73248812 0 0 Z " fill="#00B354" transform="translate(597,621)"/>
<path d="M0 0 C0.66 0 1.32 0 2 0 C2.07002751 25.48612295 2.12295747 50.97223152 2.15543652 76.45843124 C2.17091677 88.29165611 2.19202843 100.12482127 2.22631836 111.95800781 C2.25618524 122.26973454 2.27556657 132.58141803 2.28226548 142.89318681 C2.28618233 148.35507194 2.29541155 153.81683335 2.31719017 159.27867889 C2.33751247 164.41679426 2.34384242 169.55473462 2.33932304 174.69288635 C2.34015015 176.58113302 2.34614106 178.46938538 2.35761642 180.35759735 C2.37249399 182.93130295 2.36897107 185.50434368 2.36076355 188.07806396 C2.36950207 188.82903847 2.3782406 189.58001297 2.38724393 190.35374427 C2.35124786 194.51617953 1.96436899 196.98060188 -1 200 C-3.04119788 198.38405168 -5.04072937 196.7143618 -7 195 C-7 194.34 -7 193.68 -7 193 C-7.66 193 -8.32 193 -9 193 C-10.4375 191.50390625 -10.4375 191.50390625 -12 189.5625 C-14.14525044 186.84811762 -14.14525044 186.84811762 -17 185 C-17 184.34 -17 183.68 -17 183 C-17.99 182.67 -18.98 182.34 -20 182 C-21.7275887 180.37113065 -23.36116844 178.71466438 -25 177 C-26.33063155 175.66397035 -27.66415332 174.33081524 -29 173 C-30.0209375 171.97519531 -30.0209375 171.97519531 -31.0625 170.9296875 C-32.23942177 169.75751138 -33.42476919 168.59361025 -34.625 167.4453125 C-35.78460557 166.33182761 -36.89817447 165.17068962 -38 164 C-38 163.34 -38 162.68 -38 162 C-38.84864372 161.63834999 -38.84864372 161.63834999 -39.71443176 161.26939392 C-42.46451665 159.74200962 -44.34143865 157.91284944 -46.5690918 155.68969727 C-47.46649582 154.79859756 -48.36389984 153.90749786 -49.28849792 152.98939514 C-50.25899369 152.01531999 -51.22922776 151.04098406 -52.19921875 150.06640625 C-53.19972502 149.06724774 -54.20052799 148.06838623 -55.20161438 147.06980896 C-57.29531149 144.97905651 -59.38535809 142.88473909 -61.47290039 140.7878418 C-64.14950719 138.09982611 -66.83501208 135.42090833 -69.52330303 132.74458408 C-71.59009301 130.68501785 -73.65209979 128.62071588 -75.71268654 126.55494499 C-76.7012023 125.56509493 -77.69120629 124.5767288 -78.68271446 123.58987617 C-80.06634427 122.2113214 -81.44289124 120.82566868 -82.8190918 119.43969727 C-83.9967939 118.25960838 -83.9967939 118.25960838 -85.19828796 117.05567932 C-87 115 -87 115 -88 112 C-75.75272831 105.6938717 -63.22300549 100.09970901 -50.63867188 94.50585938 C-46.98715972 92.88140718 -43.33685551 91.25428953 -39.6875 89.625 C-39.07408752 89.3514267 -38.46067505 89.07785339 -37.82867432 88.79598999 C-28.09637214 84.45069202 -18.45142216 79.94036738 -8.87963867 75.25048828 C-7.99767822 74.82106934 -7.11571777 74.39165039 -6.20703125 73.94921875 C-5.4385083 73.57112061 -4.66998535 73.19302246 -3.87817383 72.8034668 C-2 72 -2 72 0 72 C0 48.24 0 24.48 0 0 Z " fill="#00C15E" transform="translate(639,312)"/>
<path d="M0 0 C4.43369265 0.61855726 8.03579839 2.34922806 11.9609375 4.390625 C13.39523395 5.12228191 14.82981984 5.85337159 16.26464844 6.58398438 C17.03015015 6.97577881 17.79565186 7.36757324 18.58435059 7.77124023 C22.84430794 9.93813754 27.1311923 12.05073907 31.4140625 14.171875 C66.7460572 31.72556574 66.7460572 31.72556574 82.16015625 40.328125 C88.71333608 43.98076179 95.3914031 47.39772402 102.06762695 50.81884766 C108.19592808 53.9808758 114.128736 57.38313661 120 61 C117.40624253 63.94011659 114.40798593 65.64032023 111.01953125 67.57421875 C110.44667892 67.90291458 109.8738266 68.23161041 109.28361511 68.57026672 C107.46245096 69.6138625 105.63756978 70.65075263 103.8125 71.6875 C102.57331608 72.39604448 101.33438088 73.10502413 100.09570312 73.81445312 C97.06666642 75.54801825 94.03426125 77.27559206 91 79 C90.67 78.01 90.34 77.02 90 76 C89.17886467 76.00999275 89.17886467 76.00999275 88.34114075 76.02018738 C82.58108466 76.08718255 76.82114139 76.13206318 71.06079102 76.16479492 C68.91849259 76.17976927 66.77622421 76.20015595 64.6340332 76.22631836 C45.07344564 76.45901954 28.25099883 75.68864489 13.32421875 61.51171875 C1.16542173 48.37204398 -0.60869659 34.32531122 -0.25 17.25 C-0.22988812 15.57033399 -0.21164571 13.89064451 -0.1953125 12.2109375 C-0.15172461 8.14003388 -0.08296282 4.07028371 0 0 Z " fill="#56ED83" transform="translate(207,475)"/>
<path d="M0 0 C15.23049379 5.53338084 30.47251027 18.86379748 43 29 C43.61875 28.34 44.2375 27.68 44.875 27 C47 25 47 25 49 25 C49 24.34 49 23.68 49 23 C50.95927063 21.2856382 52.95880212 19.61594832 55 18 C55.66 18.33 56.32 18.66 57 19 C45.80729206 30.2160346 34.6117481 41.42922992 23.41278934 52.63902283 C18.21336919 57.84360644 13.01489289 63.04912638 7.81860352 68.25683594 C3.29124102 72.79414376 -1.23785727 77.32971033 -5.76907736 81.86316586 C-8.16981511 84.26521097 -10.569655 86.66813833 -12.96742058 89.07315063 C-15.63996381 91.75289731 -18.31556347 94.4295547 -20.99194336 97.10546875 C-21.7925116 97.90963226 -22.59307983 98.71379578 -23.41790771 99.54232788 C-24.14289963 100.26594513 -24.86789154 100.98956238 -25.61485291 101.73510742 C-26.56476058 102.68639778 -26.56476058 102.68639778 -27.5338583 103.65690613 C-29 105 -29 105 -30 105 C-30 75.63 -30 46.26 -30 16 C-29.34 16 -28.68 16 -28 16 C-27.67 35.14 -27.34 54.28 -27 74 C-19.17921272 52.91246602 -19.17921272 52.91246602 -11.66015625 31.734375 C-7.95236584 21.09250617 -3.96194248 10.54926854 0 0 Z " fill="#00CC66" transform="translate(327,538)"/>
<path d="M0 0 C28.05 0 56.1 0 85 0 C84.34 0.33 83.68 0.66 83 1 C82.3306832 2.33200497 81.66434693 3.66550932 81 5 C79.59887695 6.61230469 79.59887695 6.61230469 77.98828125 8.171875 C77.39466797 8.75453125 76.80105469 9.3371875 76.18945312 9.9375 C75.57005859 10.535625 74.95066406 11.13375 74.3125 11.75 C70.69866279 15.25903205 67.15908372 18.75838547 63.8984375 22.6015625 C60.61954012 26.40723658 57.11776781 29.94435474 53.55078125 33.4765625 C52.96688126 34.05494873 52.38298126 34.63333496 51.78138733 35.22924805 C49.3424461 37.64053069 46.89993916 40.04812657 44.45288086 42.45117188 C42.64771559 44.22600827 40.84893062 46.00712229 39.05078125 47.7890625 C38.50279373 48.32359039 37.95480621 48.85811829 37.39021301 49.40884399 C34.07241133 52.70499065 31.46873719 56.02430371 29 60 C27.37239583 59.05598958 25.74479167 58.11197917 24.1171875 57.16796875 C21.89104178 55.90040831 21.89104178 55.90040831 19.01171875 54.671875 C10.41013597 49.8969367 5.99011741 38.9575191 3 30 C1.02905723 20.14528617 0.80142957 10.01786957 0 0 Z " fill="#00DE76" transform="translate(400,573)"/>
<path d="M0 0 C0.99 0.495 0.99 0.495 2 1 C2.81257194 18.17686795 0.00795932 34.44998854 -11.66796875 47.8203125 C-13 49 -13 49 -15 49 C-15 49.66 -15 50.32 -15 51 C-23.92738731 58.54730812 -34.53792269 62.13403566 -46.08520508 62.11352539 C-46.77843872 62.11367142 -47.47167236 62.11381744 -48.18591309 62.1139679 C-50.46381829 62.11327451 -52.74164043 62.10550915 -55.01953125 62.09765625 C-56.60422216 62.09579003 -58.18891365 62.09436709 -59.77360535 62.09336853 C-63.9344951 62.08955943 -68.09534968 62.07974292 -72.25622559 62.06866455 C-76.50609868 62.05841582 -80.75597748 62.0538635 -85.00585938 62.04882812 C-93.33725569 62.03811916 -101.66862346 62.02106211 -110 62 C-110 61.67 -110 61.34 -110 61 C-108.93563721 60.99589111 -107.87127441 60.99178223 -106.7746582 60.98754883 C-102.81388366 60.96572552 -98.85409805 60.91140394 -94.89379883 60.84741211 C-93.18198141 60.82425975 -91.4700221 60.80984285 -89.75805664 60.80444336 C-87.29223502 60.79513297 -84.82863626 60.75410221 -82.36328125 60.70703125 C-81.22080681 60.71293022 -81.22080681 60.71293022 -80.05525208 60.71894836 C-76.04279325 60.60953628 -74.24414747 60.20518114 -71.13183594 57.58959961 C-70.42833008 56.73503174 -69.72482422 55.88046387 -69 55 C-62.60066945 49.45997924 -55.87241909 44.34780892 -49.08203125 39.30078125 C-45.42904863 36.57377648 -41.81697304 33.79619452 -38.20751953 31.01196289 C-34.37483706 28.0564033 -30.53455293 25.11103991 -26.6887207 22.17260742 C-25.23484295 21.06156264 -23.78155048 19.94975153 -22.32885742 18.8371582 C-18.93966683 16.24184595 -15.54549842 13.65420325 -12.1328125 11.08984375 C-11.53791016 10.63996094 -10.94300781 10.19007813 -10.33007812 9.7265625 C-8.73573168 8.52121467 -7.13753721 7.32096148 -5.5390625 6.12109375 C-3.25805151 4.21557226 -1.64005666 2.46008498 0 0 Z " fill="#008F43" transform="translate(817,578)"/>
<path d="M0 0 C0.495 0.99 0.495 0.99 1 2 C0.20239258 3.98925781 0.20239258 3.98925781 -1.10546875 6.453125 C-1.82972046 7.8302063 -1.82972046 7.8302063 -2.56860352 9.23510742 C-3.10283936 10.23002197 -3.6370752 11.22493652 -4.1875 12.25 C-4.73269287 13.27907471 -5.27788574 14.30814941 -5.83959961 15.3684082 C-11.46893095 25.96151425 -17.21706075 36.49016912 -23 47 C-24.06649102 48.94135968 -25.13289679 50.8827662 -26.19921875 52.82421875 C-28.79650278 57.55112048 -31.39691737 62.27628926 -34 67 C-34.99 67 -35.98 67 -37 67 C-38.45117188 65.47802734 -38.45117188 65.47802734 -39.96875 63.3359375 C-40.53513184 62.54952881 -41.10151367 61.76312012 -41.68505859 60.95288086 C-42.28398926 60.10218018 -42.88291992 59.25147949 -43.5 58.375 C-44.75058232 56.63266161 -46.00320992 54.89178952 -47.2578125 53.15234375 C-47.88333008 52.28335449 -48.50884766 51.41436523 -49.15332031 50.51904297 C-52.24033794 46.3080636 -55.50016068 42.23732862 -58.79882812 38.19091797 C-62 34.20888361 -62 34.20888361 -62 32 C-61.4735791 31.8457959 -60.9471582 31.6915918 -60.40478516 31.53271484 C-54.01112898 29.54453716 -48.27391641 26.76836722 -42.375 23.625 C-41.38951172 23.10550781 -40.40402344 22.58601562 -39.38867188 22.05078125 C-28.46840469 16.25522463 -17.7232309 10.15034896 -7 4 C-5.61473424 3.20806931 -4.22933751 2.41636762 -2.84375 1.625 C-1.9053125 1.08875 -0.966875 0.5525 0 0 Z " fill="#019C49" transform="translate(693,664)"/>
<path d="M0 0 C0.99 0.495 0.99 0.495 2 1 C-4.67683567 16.3434568 -13.32726256 25.65154939 -29 32 C-35.01443116 34.12238492 -40.45428488 34.27295635 -46.80053711 34.22705078 C-48.39677917 34.22748886 -48.39677917 34.22748886 -50.02526855 34.22793579 C-53.5260446 34.22654774 -57.0266051 34.21101105 -60.52734375 34.1953125 C-62.96114485 34.19158051 -65.39494746 34.18873442 -67.82875061 34.18673706 C-74.22217994 34.17911528 -80.61551783 34.15947919 -87.00891113 34.1373291 C-93.53782922 34.11683938 -100.06676213 34.10772865 -106.59570312 34.09765625 C-119.39717434 34.076232 -132.1985823 34.04250015 -145 34 C-145 33.67 -145 33.34 -145 33 C-144.44084396 32.99857498 -143.88168793 32.99714996 -143.30558777 32.99568176 C-137.38188218 32.97569395 -131.45916736 32.92081785 -125.53588867 32.84741211 C-123.3377193 32.82449281 -121.13944419 32.80989897 -118.94116211 32.80444336 C-105.29518891 32.76395086 -93.01155021 31.78081599 -79.97451782 27.62802124 C-77.18818069 26.74179024 -74.37502207 25.9548001 -71.5625 25.15625 C-69.7077349 24.6061805 -67.85355911 24.05411972 -66 23.5 C-58.1862994 21.19065746 -50.35890563 19.00931257 -42.46435547 16.99536133 C-33.92663732 14.78358755 -25.49845937 12.19318423 -17.07299805 9.59008789 C-15.96867432 9.25485107 -14.86435059 8.91961426 -13.7265625 8.57421875 C-12.74252441 8.27088623 -11.75848633 7.96755371 -10.74462891 7.6550293 C-8.05145123 7.01227928 -5.75615789 6.87340647 -3 7 C-2.01 4.69 -1.02 2.38 0 0 Z " fill="#019D48" transform="translate(637,517)"/>
<path d="M0 0 C0.66 0.33 1.32 0.66 2 1 C-0.1017485 6.79462231 -2.21263986 12.58576364 -4.33984375 18.37109375 C-11.63751499 38.21951952 -18.83384669 58.10374977 -26 78 C-26.33 78 -26.66 78 -27 78 C-27.33 57.54 -27.66 37.08 -28 16 C-23.42125 13.339375 -18.8425 10.67875 -14.125 7.9375 C-11.9596167 6.67087524 -11.9596167 6.67087524 -9.75048828 5.37866211 C-8.61853027 4.72647705 -7.48657227 4.07429199 -6.3203125 3.40234375 C-5.42880493 2.87646667 -5.42880493 2.87646667 -4.51928711 2.33996582 C-3.04670456 1.49781897 -1.52665788 0.73961232 0 0 Z " fill="#24DB6F" transform="translate(326,537)"/>
<path d="M0 0 C18.31494056 -0.14010654 36.62974222 -0.24593957 54.94510269 -0.31087303 C63.44909825 -0.34182302 71.95276101 -0.38402489 80.45654297 -0.45263672 C87.86769732 -0.51240435 95.27861069 -0.55114085 102.68999934 -0.56453097 C106.61512119 -0.57235943 110.5395536 -0.59078017 114.46445465 -0.63438034 C118.15821533 -0.67508076 121.85100213 -0.68767494 125.54496574 -0.67864609 C127.54819528 -0.68108615 129.5513185 -0.71338857 131.55427551 -0.746521 C140.14930398 -0.68704285 140.14930398 -0.68704285 142.71062469 1.38154221 C143.83734131 3.04257202 143.83734131 3.04257202 145 6 C141.125 4.125 141.125 4.125 140 3 C138.19039129 2.90358503 136.37697872 2.87812602 134.56480408 2.87974548 C132.79576973 2.87768349 132.79576973 2.87768349 130.99099731 2.87557983 C129.03273514 2.88097275 129.03273514 2.88097275 127.03491211 2.88647461 C125.65547182 2.88675648 124.27603139 2.88659875 122.89659119 2.8860321 C119.14055882 2.88574412 115.38455811 2.89164095 111.62853312 2.89860606 C107.70739955 2.90483949 103.78626533 2.90544339 99.86512756 2.90663147 C92.43488389 2.90974482 85.00465486 2.91795825 77.57441765 2.92798096 C69.11748362 2.93914199 60.6605489 2.94465252 52.20360935 2.94967639 C34.80239775 2.96014086 17.40120042 2.97774037 0 3 C0 2.01 0 1.02 0 0 Z " fill="#D8F7D6" transform="translate(447,640)"/>
<path d="M0 0 C0.66 0.33 1.32 0.66 2 1 C-5.02052846 8.04364869 -12.04371819 15.08463164 -19.07036495 22.12217712 C-22.33266031 25.38970202 -25.59401451 28.65815512 -28.85327148 31.92871094 C-31.99577287 35.08203872 -35.14067598 38.23295228 -38.28729439 41.38217163 C-39.49030875 42.58704069 -40.69243937 43.79279277 -41.89369011 44.99942017 C-43.56997783 46.68291503 -45.24931601 48.36330709 -46.92944336 50.04296875 C-47.43078796 50.54790863 -47.93213257 51.05284851 -48.44866943 51.5730896 C-51.88594784 55 -51.88594784 55 -53 55 C-53.05785647 51.04172765 -53.09354717 47.0835633 -53.125 43.125 C-53.14175781 41.99707031 -53.15851563 40.86914062 -53.17578125 39.70703125 C-53.18222656 38.63066406 -53.18867188 37.55429687 -53.1953125 36.4453125 C-53.20578613 35.45031738 -53.21625977 34.45532227 -53.22705078 33.43017578 C-53 31 -53 31 -51 29 C-50.67 35.93 -50.34 42.86 -50 50 C-33.5 33.5 -17 17 0 0 Z " fill="#03BC4C" transform="translate(350,588)"/>
<path d="M0 0 C0.66 0.33 1.32 0.66 2 1 C0.88200014 2.33920838 -0.24461897 3.67122556 -1.375 5 C-2.31472656 6.11375 -2.31472656 6.11375 -3.2734375 7.25 C-4.12808594 8.11625 -4.12808594 8.11625 -5 9 C-5.66 9 -6.32 9 -7 9 C-7.2475 9.598125 -7.495 10.19625 -7.75 10.8125 C-9.16370012 13.28647521 -10.65055383 14.43370255 -13 16 C-13.66 15.67 -14.32 15.34 -15 15 C-10.05 10.05 -5.1 5.1 0 0 Z " fill="#158A3B" transform="translate(350,619)"/>
<path d="M0 0 C0.33 0.66 0.66 1.32 1 2 C-3.23062044 7.1976194 -7.47954937 12.11523844 -13 16 C-13 13 -13 13 -11.80664062 11.46606445 C-11.26201172 10.937146 -10.71738281 10.40822754 -10.15625 9.86328125 C-9.56972656 9.28642578 -8.98320312 8.70957031 -8.37890625 8.11523438 C-7.75886719 7.52033203 -7.13882812 6.92542969 -6.5 6.3125 C-5.87996094 5.70599609 -5.25992187 5.09949219 -4.62109375 4.47460938 C-3.08735293 2.97626257 -1.54451802 1.48723507 0 0 Z " fill="#16893B" transform="translate(373,596)"/>
<path d="M0 0 C0.66 1.32 1.32 2.64 2 4 C1.41734375 4.26554688 0.8346875 4.53109375 0.234375 4.8046875 C-2.06174228 6.03302996 -3.80356018 7.40314939 -5.75 9.125 C-6.36359375 9.66382813 -6.9771875 10.20265625 -7.609375 10.7578125 C-8.06828125 11.16773438 -8.5271875 11.57765625 -9 12 C-9.66 11.67 -10.32 11.34 -11 11 C-7.37 7.37 -3.74 3.74 0 0 Z " fill="#178B3D" transform="translate(334,635)"/>
<path d="M0 0 C0.66 0.33 1.32 0.66 2 1 C0.0238076 3.00301854 -1.95574474 5.00249867 -3.9375 7 C-4.50146484 7.57234375 -5.06542969 8.1446875 -5.64648438 8.734375 C-7.07878776 10.17525505 -8.53741129 11.58987143 -10 13 C-10.33 13 -10.66 13 -11 13 C-11 11.35 -11 9.7 -11 8 C-10.41734375 7.90847656 -9.8346875 7.81695313 -9.234375 7.72265625 C-6.46816153 6.82798931 -5.23626036 5.53835231 -3.25 3.4375 C-2.63640625 2.79683594 -2.0228125 2.15617188 -1.390625 1.49609375 C-0.93171875 1.00238281 -0.4728125 0.50867188 0 0 Z " fill="#08B248" transform="translate(308,630)"/>
<path d="M0 0 C0.33 0.66 0.66 1.32 1 2 C-0.09655288 3.31886772 -1.20253423 4.62990057 -2.3125 5.9375 C-2.92738281 6.66839844 -3.54226563 7.39929688 -4.17578125 8.15234375 C-6 10 -6 10 -9 11 C-7.59155282 7.78475695 -5.89655214 5.67816132 -3.375 3.25 C-2.74335938 2.63640625 -2.11171875 2.0228125 -1.4609375 1.390625 C-0.73777344 0.70226562 -0.73777344 0.70226562 0 0 Z " fill="#168A3C" transform="translate(310,659)"/>
<path d="M0 0 C1.33332095 2.6666419 0.67102033 4.16680303 0 7 C-0.928125 7.12375 -0.928125 7.12375 -1.875 7.25 C-4.16088794 7.80583476 -4.16088794 7.80583476 -5.1875 9.9375 C-5.455625 10.618125 -5.72375 11.29875 -6 12 C-6.33 12.66 -6.66 13.32 -7 14 C-7.66 13.67 -8.32 13.34 -9 13 C-6.03 8.71 -3.06 4.42 0 0 Z " fill="#0B8330" transform="translate(830,625)"/>
<path d="M0 0 C0.33 0.66 0.66 1.32 1 2 C0.52949219 2.39832031 0.05898437 2.79664063 -0.42578125 3.20703125 C-1.04839844 3.73683594 -1.67101562 4.26664062 -2.3125 4.8125 C-2.92738281 5.33457031 -3.54226562 5.85664063 -4.17578125 6.39453125 C-5.85424679 7.87172469 -7.43882034 9.40039131 -9 11 C-9.66 10.67 -10.32 10.34 -11 10 C-7.84778899 5.58690458 -4.44536093 2.99206986 0 0 Z " fill="#42E976" transform="translate(229,262)"/>
<path d="M0 0 C1.66666667 1.66666667 3.33333333 3.33333333 5 5 C5.8971875 5.8353125 5.8971875 5.8353125 6.8125 6.6875 C8 8 8 8 8 10 C8.66 10.33 9.32 10.66 10 11 C7.32543283 10.62207203 6.19388186 10.20233084 4.296875 8.22265625 C3.78640625 7.50980469 3.2759375 6.79695312 2.75 6.0625 C2.22921875 5.35222656 1.7084375 4.64195312 1.171875 3.91015625 C0 2 0 2 0 0 Z " fill="#E5FAE7" transform="translate(408,616)"/>
<path d="M0 0 C0.99 0.33 1.98 0.66 3 1 C1.68 3.31 0.36 5.62 -1 8 C-1.66 7.34 -2.32 6.68 -3 6 C-2.75 3.4375 -2.75 3.4375 -2 1 C-1.34 0.67 -0.68 0.34 0 0 Z " fill="#01C866" transform="translate(664,504)"/>
<path d="M0 0 C0.99 0.66 1.98 1.32 3 2 C0.06171403 4.50298434 -2.17902761 5.46930939 -6 6 C-4 4 -2 2 0 0 Z " fill="#0EB756" transform="translate(635,556)"/>
<path d="M0 0 C-1.38009621 3.33523252 -2.84950652 5.18607951 -6 7 C-6.99 6.67 -7.98 6.34 -9 6 C-7.8803014 4.99406757 -6.7540588 3.9954151 -5.625 3 C-4.68527344 2.1646875 -4.68527344 2.1646875 -3.7265625 1.3125 C-2 0 -2 0 0 0 Z " fill="#0D8432" transform="translate(300,671)"/>
<path d="M0 0 C0 0.66 0 1.32 0 2 C-1.96147874 3.38938077 -3.96166576 4.7260411 -6 6 C-6 3 -6 3 -4.6875 1.3125 C-3 0 -3 0 0 0 Z " fill="#EDF9E7" transform="translate(632,534)"/>
<path d="M0 0 C0 3 0 3 -2 5.1875 C-2.66 5.785625 -3.32 6.38375 -4 7 C-4.99 6.67 -5.98 6.34 -7 6 C-5.625 4.5 -5.625 4.5 -4 3 C-3.34 3 -2.68 3 -2 3 C-2 2.34 -2 1.68 -2 1 C-1.34 0.67 -0.68 0.34 0 0 Z " fill="#E9F7E8" transform="translate(212,249)"/>
</svg>
